<?xml version="1.0" standalone="no"?>
<!DOCTYPE svg PUBLIC "-//W3C//DTD SVG 20010904//EN"
 "http://www.w3.org/TR/2001/REC-SVG-20010904/DTD/svg10.dtd">
<svg version="1.0" xmlns="http://www.w3.org/2000/svg"
 width="29.000000pt" height="31.000000pt" viewBox="0 0 29.000000 31.000000"
 preserveAspectRatio="xMidYMid meet">

<g transform="translate(0.000000,31.000000) scale(0.100000,-0.100000)"
fill="#000000" stroke="none">
<path d="M180 295 c-10 -12 -15 -13 -21 -4 -11 19 -68 -1 -91 -31 -10 -14 -21
-50 -25 -80 -3 -30 -15 -67 -25 -82 -25 -36 -16 -48 31 -48 28 0 42 -6 53 -21
19 -29 67 -29 86 0 11 15 25 21 53 21 45 0 57 14 35 39 -9 10 -23 38 -30 62
l-14 44 -1 -36 c-1 -23 7 -46 20 -63 l20 -26 -126 0 -126 0 20 26 c13 17 21
41 21 65 0 71 31 118 78 119 18 0 22 -6 22 -28 0 -15 5 -33 12 -40 20 -20 65
-14 82 10 21 30 20 44 -4 68 -24 24 -53 26 -70 5z m65 -39 c0 -36 -27 -56 -52
-40 -40 25 -20 77 26 72 21 -2 26 -8 26 -32z m-77 -218 c-3 -7 -13 -13 -23
-13 -10 0 -20 6 -22 13 -3 7 5 12 22 12 17 0 25 -5 23 -12z"/>
</g>
</svg>
