<svg xmlns="http://www.w3.org/2000/svg" xmlns:xlink="http://www.w3.org/1999/xlink" width="142" height="142" viewBox="0 0 142 142">
  <defs>
    <filter id="Ellipse_32" x="0" y="0" width="142" height="142" filterUnits="userSpaceOnUse">
      <feOffset dy="3" input="SourceAlpha"/>
      <feGaussianBlur stdDeviation="3" result="blur"/>
      <feFlood flood-color="#ff4900"/>
      <feComposite operator="in" in2="blur"/>
      <feComposite in="SourceGraphic"/>
    </filter>
    <filter id="Path_180" x="22.944" y="21.246" width="94.667" height="96.058" filterUnits="userSpaceOnUse">
      <feOffset dy="3" input="SourceAlpha"/>
      <feGaussianBlur stdDeviation="3" result="blur-2"/>
      <feFlood flood-color="#1f55ff"/>
      <feComposite operator="in" in2="blur-2"/>
      <feComposite in="SourceGraphic"/>
    </filter>
    <filter id="Path_181" x="34.449" y="52.597" width="34.047" height="33.929" filterUnits="userSpaceOnUse">
      <feOffset dy="3" input="SourceAlpha"/>
      <feGaussianBlur stdDeviation="3" result="blur-3"/>
      <feFlood flood-color="#1f55ff"/>
      <feComposite operator="in" in2="blur-3"/>
      <feComposite in="SourceGraphic"/>
    </filter>
    <filter id="Path_182" x="53.131" y="52.591" width="34.294" height="34.047" filterUnits="userSpaceOnUse">
      <feOffset dy="3" input="SourceAlpha"/>
      <feGaussianBlur stdDeviation="3" result="blur-4"/>
      <feFlood flood-color="#1f55ff"/>
      <feComposite operator="in" in2="blur-4"/>
      <feComposite in="SourceGraphic"/>
    </filter>
    <filter id="Path_183" x="70.469" y="54.346" width="35.22" height="30.313" filterUnits="userSpaceOnUse">
      <feOffset dy="3" input="SourceAlpha"/>
      <feGaussianBlur stdDeviation="3" result="blur-5"/>
      <feFlood flood-color="#1f55ff"/>
      <feComposite operator="in" in2="blur-5"/>
      <feComposite in="SourceGraphic"/>
    </filter>
    <filter id="Path_184" x="34.476" y="70.759" width="34.017" height="34.022" filterUnits="userSpaceOnUse">
      <feOffset dy="3" input="SourceAlpha"/>
      <feGaussianBlur stdDeviation="3" result="blur-6"/>
      <feFlood flood-color="#1f55ff"/>
      <feComposite operator="in" in2="blur-6"/>
      <feComposite in="SourceGraphic"/>
    </filter>
    <filter id="Path_185" x="53.145" y="70.756" width="34.255" height="34.047" filterUnits="userSpaceOnUse">
      <feOffset dy="3" input="SourceAlpha"/>
      <feGaussianBlur stdDeviation="3" result="blur-7"/>
      <feFlood flood-color="#1f55ff"/>
      <feComposite operator="in" in2="blur-7"/>
      <feComposite in="SourceGraphic"/>
    </filter>
    <filter id="Path_186" x="72.062" y="70.759" width="34.017" height="34.022" filterUnits="userSpaceOnUse">
      <feOffset dy="3" input="SourceAlpha"/>
      <feGaussianBlur stdDeviation="3" result="blur-8"/>
      <feFlood flood-color="#1f55ff"/>
      <feComposite operator="in" in2="blur-8"/>
      <feComposite in="SourceGraphic"/>
    </filter>
  </defs>
  <g id="booking-calender" transform="translate(-120 -258.002)">
    <g transform="matrix(1, 0, 0, 1, 120, 258)" filter="url(#Ellipse_32)">
      <g id="Ellipse_32-2" data-name="Ellipse 32" transform="translate(9 6)" fill="none" stroke="#ffaf81" stroke-width="3">
        <circle cx="62" cy="62" r="62" stroke="none"/>
        <circle cx="62" cy="62" r="60.5" fill="none"/>
      </g>
    </g>
    <g id="booking" transform="translate(82.444 728.119)">
      <g transform="matrix(1, 0, 0, 1, 37.56, -470.12)" filter="url(#Path_180)">
        <path id="Path_180-2" data-name="Path 180" d="M82.552-442.71a5.476,5.476,0,0,0-2.384,1.526,5.125,5.125,0,0,0-1.48,3.868l-.082,1.693-.884.125a12,12,0,0,0-4.871,2.571,11.028,11.028,0,0,0-2.857,4.453l-.493,1.359v53.938l.473,1.233a11.092,11.092,0,0,0,6.824,6.732c1.089.376,2.4.4,31.037.4s29.947-.021,31.037-.4a11.092,11.092,0,0,0,6.824-6.732l.473-1.233v-53.938l-.493-1.359a10.637,10.637,0,0,0-7.5-6.941l-1.089-.251-.1-1.693a5.183,5.183,0,0,0-1.48-3.826,5.128,5.128,0,0,0-8.427,1.254,4.867,4.867,0,0,0-.534,2.613v1.526h-5.55v-1.526a4.867,4.867,0,0,0-.534-2.613,5.128,5.128,0,0,0-8.427-1.254,5.09,5.09,0,0,0-1.48,3.763l-.1,1.631h-5.221l-.1-1.631a5.09,5.09,0,0,0-1.48-3.763,5.128,5.128,0,0,0-8.427,1.254,4.867,4.867,0,0,0-.534,2.613v1.526h-5.55v-1.526a5.223,5.223,0,0,0-3.474-5.268A5.642,5.642,0,0,0,82.552-442.71Zm2.466,3.052c1.172.627,1.233.857,1.233,5.373v4.139l-.555.627a2.342,2.342,0,0,1-3.885-.523c-.432-1.066-.411-7.631.041-8.572A2.3,2.3,0,0,1,85.018-439.658Zm15.929.021c1.172.564,1.336,1.233,1.336,5.31,0,2.885-.062,3.742-.329,4.307a2.292,2.292,0,0,1-3.823.5l-.576-.627v-4.1a22.8,22.8,0,0,1,.226-4.495,3.051,3.051,0,0,1,1.994-1.233A3.241,3.241,0,0,1,100.948-439.637Zm15.929-.021c1.172.627,1.233.857,1.233,5.373v4.139l-.555.627a2.324,2.324,0,0,1-3.864-.544c-.452-.983-.452-7.568.021-8.551A2.3,2.3,0,0,1,116.877-439.658Zm16.526.5.637.648.062,3.868c.062,3.282.021,3.972-.288,4.6a2.284,2.284,0,0,1-3.823.523l-.576-.627v-4.1a22.8,22.8,0,0,1,.226-4.495A2.378,2.378,0,0,1,133.4-439.156ZM94.679-431.4a5.242,5.242,0,0,0,2.569,4.913,5.079,5.079,0,0,0,5.981-.585,5.287,5.287,0,0,0,1.891-4.181l.1-1.61h5.221l.1,1.61a5.287,5.287,0,0,0,1.891,4.181,5.147,5.147,0,0,0,8.242-2.091,7,7,0,0,0,.308-2.237v-1.463h5.55v1.505c0,3.115,1.788,5.247,4.645,5.54a4.8,4.8,0,0,0,3.905-1.254,5.228,5.228,0,0,0,1.891-4.077c.1-1.756.164-1.777,1.85-.983a8.651,8.651,0,0,1,3.864,3.93c.534,1.213.6,1.526.658,4.474l.082,3.2h-71.2l.082-3.2c.062-2.948.123-3.261.658-4.474a8.651,8.651,0,0,1,3.864-3.93c1.685-.794,1.747-.773,1.85.983a5.228,5.228,0,0,0,1.891,4.077,5.1,5.1,0,0,0,8.057-1.714,5.359,5.359,0,0,0,.493-2.571v-1.505h5.55Zm48.672,35.791-.062,22.014-.637,1.359a7.763,7.763,0,0,1-3.782,3.847l-1.336.648h-59.4l-1.336-.648a7.763,7.763,0,0,1-3.782-3.847l-.637-1.359-.062-22.014L72.275-417.6h71.117Z" transform="translate(-37.56 470.12)" fill="#fff"/>
      </g>
      <g transform="matrix(1, 0, 0, 1, 37.56, -470.12)" filter="url(#Path_181)">
        <path id="Path_181-2" data-name="Path 181" d="M122.592-286.673a4.481,4.481,0,0,0-2.222,2.419c-.3.716-.37,1.9-.37,5.308,0,5.061.272,6,2.049,7.184l1.012.667h9.924l1.037-.691c1.827-1.185,2.024-1.926,2.024-7.184a31.767,31.767,0,0,0-.272-5.258,5.616,5.616,0,0,0-2.247-2.444C132.615-287.142,123.678-287.142,122.592-286.673Zm9.7,3.407c.42.42.42,8.122,0,8.542-.37.37-7.653.42-8.369.049-.444-.247-.469-.568-.469-4.271,0-2.814.1-4.123.3-4.32C124.172-283.686,131.874-283.686,132.294-283.266Z" transform="translate(-76.55 345.62)" fill="#fff"/>
      </g>
      <g transform="matrix(1, 0, 0, 1, 37.56, -470.12)" filter="url(#Path_182)">
        <path id="Path_182-2" data-name="Path 182" d="M225.419-286.506c-1.95,1.037-2.419,2.469-2.419,7.53,0,4.1.2,5.16,1.16,6.32,1.259,1.481,2.148,1.7,6.986,1.7s5.727-.222,6.986-1.7c.963-1.16,1.16-2.222,1.16-6.32,0-5.086-.469-6.517-2.469-7.53-.864-.444-1.457-.494-5.727-.494C226.876-286.975,226.234-286.926,225.419-286.506Zm10.171,3.432a22.5,22.5,0,0,1,.247,4.123c0,3.036-.074,3.7-.42,4.1s-.839.444-4.221.444c-3.234,0-3.9-.074-4.3-.42s-.444-.815-.444-4.073a22.782,22.782,0,0,1,.247-4.172c.247-.444.568-.469,4.444-.469S235.344-283.519,235.59-283.075Z" transform="translate(-160.87 345.59)" fill="#fff"/>
      </g>
      <g transform="matrix(1, 0, 0, 1, 37.56, -470.12)" filter="url(#Path_183)">
        <path id="Path_183-2" data-name="Path 183" d="M335.153-275.881l-4.147,4.123-2.049-2.024c-1.679-1.679-2.172-2.024-2.814-2.024a1.562,1.562,0,0,0-1.457,2.395,25.778,25.778,0,0,0,2.938,3.209c3.629,3.6,3.037,3.752,9.159-2.37,4.493-4.493,4.913-4.987,4.888-5.752a1.551,1.551,0,0,0-.568-1.234C339.967-280.5,339.547-280.25,335.153-275.881Z" transform="translate(-244.98 340.35)" fill="#fff"/>
      </g>
      <g transform="matrix(1, 0, 0, 1, 37.56, -470.12)" filter="url(#Path_184)">
        <path id="Path_184-2" data-name="Path 184" d="M122.608-190.482a4.936,4.936,0,0,0-1.728,1.531c-.667.987-.667,1.086-.741,5.629-.1,5.332.123,6.246,1.8,7.53l.938.716,4.592.074a50.687,50.687,0,0,0,5.406-.074,4.927,4.927,0,0,0,2.913-2.518c.247-.568.346-2.1.346-5.382,0-4.024-.049-4.691-.469-5.505-1.111-2.2-2.1-2.518-7.6-2.518C124.065-191,123.571-190.951,122.608-190.482Zm9.776,3.234c.42.42.42,8.122,0,8.542s-8.122.42-8.542,0c-.2-.2-.3-1.506-.3-4.271s.1-4.073.3-4.271,1.506-.3,4.271-.3S132.187-187.445,132.384-187.248Z" transform="translate(-76.64 267.76)" fill="#fff"/>
      </g>
      <g transform="matrix(1, 0, 0, 1, 37.56, -470.12)" filter="url(#Path_185)">
        <path id="Path_185-2" data-name="Path 185" d="M225.8-190.58a5.176,5.176,0,0,0-2.493,2.962,42.123,42.123,0,0,0,0,9.332,4.366,4.366,0,0,0,2.148,2.765c.864.543,1.185.568,5.7.568,4.493,0,4.839-.025,5.752-.543a4.833,4.833,0,0,0,1.629-1.679c.642-1.062.667-1.284.741-5.209.1-4.518-.1-5.7-1.111-6.912-1.259-1.481-2.148-1.7-7.11-1.7C227.481-191,226.469-190.9,225.8-190.58Zm9.677,3.431c.321.321.395,1.037.395,4.073a22.931,22.931,0,0,1-.247,4.2c-.247.444-.568.469-4.444.469s-4.2-.025-4.444-.469a22.931,22.931,0,0,1-.247-4.2c0-3.036.074-3.752.395-4.073C227.457-187.741,234.912-187.741,235.48-187.149Z" transform="translate(-160.91 267.76)" fill="#fff"/>
      </g>
      <g transform="matrix(1, 0, 0, 1, 37.56, -470.12)" filter="url(#Path_186)">
        <path id="Path_186-2" data-name="Path 186" d="M329.716-190.605a4.03,4.03,0,0,0-2.247,2.123c-.42.815-.469,1.481-.469,5.505,0,3.283.1,4.814.346,5.382a4.927,4.927,0,0,0,2.913,2.518,50.686,50.686,0,0,0,5.406.074l4.592-.074.938-.716c1.679-1.284,1.9-2.2,1.8-7.53-.074-4.542-.074-4.641-.741-5.629-1.185-1.8-2.1-2.049-7.258-2.049C331.617-190.975,330.382-190.9,329.716-190.605Zm9.579,3.357c.42.42.42,8.122,0,8.542s-8.122.42-8.542,0-.42-8.122,0-8.542c.2-.2,1.506-.3,4.271-.3S339.1-187.445,339.294-187.248Z" transform="translate(-245.94 267.76)" fill="#fff"/>
      </g>
    </g>
  </g>
</svg>
