<svg xmlns="http://www.w3.org/2000/svg" width="35.138" height="35.129" viewBox="0 0 35.138 35.129">
  <g id="cheers" transform="translate(-0.164 511.83)">
    <path id="Path_79" data-name="Path 79" d="M18.781-511.711a2.621,2.621,0,0,0-1.6,1.6,2.35,2.35,0,0,0-.082.906,1.846,1.846,0,0,0,.261.989,2.374,2.374,0,0,0,2.046,1.3,2.178,2.178,0,0,0,1.524-.412,2.433,2.433,0,0,0,.824-3.117A2.48,2.48,0,0,0,18.781-511.711Zm1.229,1.373A1.046,1.046,0,0,1,20.5-508.9a.98.98,0,0,1-.893.611,1.03,1.03,0,0,1-1-.529,1.075,1.075,0,0,1,.261-1.4A1,1,0,0,1,20.011-510.338Z" transform="translate(-15.765)" fill="#f5f5f5"/>
    <path id="Path_80" data-name="Path 80" d="M284.156-508.637a2.149,2.149,0,0,0-1.463,1.916,2.082,2.082,0,0,0,2.451,2.156,2.1,2.1,0,0,0,1.112-3.536,1.763,1.763,0,0,0-1.38-.57A2.88,2.88,0,0,0,284.156-508.637Zm1.105,1.511a.68.68,0,0,1,.007.975.677.677,0,0,1-1.181-.494.662.662,0,0,1,.687-.68A.569.569,0,0,1,285.262-507.126Z" transform="translate(-263.129 -2.937)" fill="#f5f5f5"/>
    <path id="Path_81" data-name="Path 81" d="M206.938-468.924c-.185.1-.227.22-.68,1.854-.508,1.861-.515,1.991-.213,2.266.426.385.941.2,1.14-.405.151-.467.783-2.836.8-3,.048-.488-.2-.79-.645-.79A.949.949,0,0,0,206.938-468.924Z" transform="translate(-191.556 -39.889)" fill="#f5f5f5"/>
    <path id="Path_82" data-name="Path 82" d="M375.368-452.765a2.647,2.647,0,0,0-1.682,1.366,1.846,1.846,0,0,0-.185,1.064,1.986,1.986,0,0,0,.687,1.717,1.979,1.979,0,0,0,1.751.687,1.764,1.764,0,0,0,1.03-.165,2.467,2.467,0,0,0,1.339-1.614A2.486,2.486,0,0,0,375.368-452.765Zm1.16,1.511a1.088,1.088,0,0,1,.227,1.6.991.991,0,0,1-.948.371,1.04,1.04,0,0,1-.954-1.167.98.98,0,0,1,.611-.865A1,1,0,0,1,376.528-451.254Z" transform="translate(-347.701 -54.951)" fill="#f5f5f5"/>
    <path id="Path_83" data-name="Path 83" d="M145.264-443.53a.719.719,0,0,0-.22,1.016,32.286,32.286,0,0,0,1.717,2.843.683.683,0,0,0,1.1-.639,33.147,33.147,0,0,0-1.792-3.1A.708.708,0,0,0,145.264-443.53Z" transform="translate(-134.826 -63.54)" fill="#f5f5f5"/>
    <path id="Path_84" data-name="Path 84" d="M17.8-400.692a6,6,0,0,0-1.1.419,5,5,0,0,0-2.1,2.032,1.842,1.842,0,0,1-.748.865c-.474.33-.488.336-.9.3a4.149,4.149,0,0,0-4.113,2.987,1.52,1.52,0,0,1-.144.364c-.014,0-.453-.11-.975-.247a4.34,4.34,0,0,0-1.73-.213,3.376,3.376,0,0,0-1.25.2,4.4,4.4,0,0,0-2.458,2.142,65.166,65.166,0,0,0-2.108,7.807A4.4,4.4,0,0,0,2.6-379.852a9.169,9.169,0,0,0,1.3.446c.488.13.893.254.906.268a.619.619,0,0,1-.041.3,2.172,2.172,0,0,0,.817,2.321,7.9,7.9,0,0,0,2.28.7c.371.034.405.027.6-.172a.6.6,0,0,0,.027-.9c-.158-.165-.357-.247-1.119-.453-1-.268-1.208-.391-1.277-.755-.055-.316,3.8-14.728,3.941-14.728.11,0,5.253,1.373,5.294,1.408a3.6,3.6,0,0,1-.13.6,2.234,2.234,0,0,0,.618,2.479,1.924,1.924,0,0,0,1.339.529H17.5l.034.515a2.525,2.525,0,0,0,.879,1.772,2.292,2.292,0,0,0,1.806.687c.515,0,.6.014.57.11-.021.062-.611,2.252-1.311,4.868s-1.311,4.813-1.353,4.889a1.084,1.084,0,0,1-.6.343c-.041,0-.824-.2-1.737-.446a18.612,18.612,0,0,0-1.9-.446.713.713,0,0,0-.563,1.03c.11.206.247.254,2.012.735,1.936.522,2.211.563,2.747.405.865-.254,1.291-.79,1.627-2.053.158-.57.275-.886.343-.906s2.184-.591,4.724-1.27,4.731-1.3,4.875-1.366a2.446,2.446,0,0,0,.913-.968,1.567,1.567,0,0,0,.158-.927c-.007-.343-.021-.673-.034-.748-.021-.11.089-.158.831-.357a4.634,4.634,0,0,0,2.444-1.291,4.271,4.271,0,0,0,1.229-3.989,1.045,1.045,0,0,0-.309-.673.609.609,0,0,0-.9.014c-.227.227-.24.378-.124,1.1a3.048,3.048,0,0,1-1.586,3.117,11.121,11.121,0,0,1-2.019.59c-.034-.048-.391-1.449-.371-1.463s.275-.089.591-.179a2.117,2.117,0,0,0,1.634-1.353c.192-.549.13-.913-.625-3.735-.4-1.483-.79-2.795-.865-2.918a2.315,2.315,0,0,0-1.112-.886,2.428,2.428,0,0,0-1.476.041,2.059,2.059,0,0,1-.536.11,9.994,9.994,0,0,1-.371-1.36c0-.089.192-.165.81-.323a3.4,3.4,0,0,1,1.772-.22,2.944,2.944,0,0,1,2.273,1.71c.13.288.275.591.309.666a.655.655,0,0,0,1.023.1c.254-.254.268-.6.034-1.167a4.473,4.473,0,0,0-3.763-2.726,7.4,7.4,0,0,0-2.747.494c-.082.027-.144-.069-.261-.433a4.234,4.234,0,0,0-1.147-1.813,3.714,3.714,0,0,0-2.767-1.092c-.591,0-.652-.014-.886-.192a4.56,4.56,0,0,0-1.421-.742A5.791,5.791,0,0,0,17.8-400.692Zm1.881,1.373a3.664,3.664,0,0,1,1.476.769c.412.357.625.433,1,.343a3.133,3.133,0,0,1,1.572.151,3.257,3.257,0,0,1,.639.391c.288.233.748.831.694.893-.076.069-4.14,1.119-4.175,1.071-.027-.027-.185-.254-.364-.5a4.941,4.941,0,0,0-3.962-2.053l-.309-.007.309-.268A3.473,3.473,0,0,1,19.681-399.319ZM17.7-396.661a3.225,3.225,0,0,1,1.435.954,3.763,3.763,0,0,1,.8,1.373.822.822,0,0,0,.529.611,2.814,2.814,0,0,1,1.243.783,2.33,2.33,0,0,1,.659,1.792,7.982,7.982,0,0,1-.467,2.335,16.828,16.828,0,0,1-.625,1.991,1.142,1.142,0,0,1-1.167.57,1.065,1.065,0,0,1-.687-.22,1.421,1.421,0,0,1-.515-.989c0-.124.2-.975.446-1.9s.446-1.751.446-1.854a.686.686,0,0,0-.68-.59c-.474,0-.6.172-.872,1.236-.213.817-.268.954-.474,1.147a.757.757,0,0,1-.927.124.847.847,0,0,1-.412-.659,8.7,8.7,0,0,1,.247-1.037c.261-.954.261-1.174.007-1.414a20.647,20.647,0,0,0-3.138-.941l-3.076-.824c-.069-.027-.062-.082.034-.247a2.923,2.923,0,0,1,1.181-1.044,2.842,2.842,0,0,1,1.73-.165l.378.062.412-.336a3.73,3.73,0,0,1,1.984-.934A4.081,4.081,0,0,1,17.7-396.661Zm9.771,8.487c1.064,3.989,1.936,7.32,1.936,7.4a.908.908,0,0,1-.137.357c-.11.178-.22.247-.6.357-1.147.343-8.212,2.2-8.24,2.177s.714-2.822,1.627-6.235c1.84-6.846,1.847-6.88,1.62-7.91a3.955,3.955,0,0,0-1.105-2l-.488-.487,1.655-.446c.906-.247,1.682-.453,1.717-.46S26.4-392.171,27.467-388.174Zm-20.2-4.484c.378.1.776.206.893.247l.213.069-.192.687a5.294,5.294,0,0,1-.227.728,3.09,3.09,0,0,1-.673-.117,2.023,2.023,0,0,0-1.984.35c-.474.371-.584.659-1.339,3.481-.824,3.062-.845,3.234-.5,3.914a1.941,1.941,0,0,0,1.318,1.078,4.392,4.392,0,0,0,.632.172c.172,0,.172.117-.014.817-.137.529-.206.693-.3.693a9.681,9.681,0,0,1-2.012-.632,3.076,3.076,0,0,1-1.531-2.856c.062-.536,1.73-6.7,1.929-7.134a3.259,3.259,0,0,1,1.208-1.291A3.266,3.266,0,0,1,7.266-392.658Zm21.924.412a.693.693,0,0,1,.275.288c.137.336,1.38,5.06,1.38,5.253,0,.309-.254.522-.817.68a3.483,3.483,0,0,1-.522.117c-.034-.048-1.614-6.029-1.614-6.111,0-.055.158-.137.4-.206C28.806-392.363,28.957-392.37,29.191-392.246ZM7.2-389.637l.412.117-.817,3.062c-.453,1.689-.831,3.083-.845,3.1a2.062,2.062,0,0,1-.488-.1c-.542-.151-.845-.4-.845-.7,0-.1.309-1.332.687-2.726.7-2.609.783-2.808,1.126-2.877C6.6-389.795,6.649-389.788,7.2-389.637Z" transform="translate(0 -103.425)" fill="#f5f5f5"/>
    <path id="Path_85" data-name="Path 85" d="M86.481-393.359a.663.663,0,0,0-.1,1.2c.213.117,3.207.893,3.433.893a.674.674,0,0,0,.46-1.154,7.757,7.757,0,0,0-1.7-.549C86.6-393.489,86.728-393.469,86.481-393.359Z" transform="translate(-79.984 -110.278)" fill="#f5f5f5"/>
    <path id="Path_86" data-name="Path 86" d="M11.417-373.983A2.115,2.115,0,0,0,9.9-371.951a2.06,2.06,0,0,0,1.112,1.854,1.457,1.457,0,0,0,.954.206,1.584,1.584,0,0,0,.934-.185,2.077,2.077,0,0,0,1.147-1.881,1.985,1.985,0,0,0-.707-1.559A2.184,2.184,0,0,0,11.417-373.983Zm.893,1.414a.6.6,0,0,1,.343.639.709.709,0,0,1-.508.673.7.7,0,0,1-.865-.687A.68.68,0,0,1,12.31-372.569Z" transform="translate(-9.067 -128.321)" fill="#f5f5f5"/>
    <path id="Path_87" data-name="Path 87" d="M478.106-258.8a.609.609,0,0,0,0,.913.519.519,0,0,0,.488.227.519.519,0,0,0,.487-.227.609.609,0,0,0,0-.913.569.569,0,0,0-.487-.2A.569.569,0,0,0,478.106-258.8Z" transform="translate(-444.933 -235.47)" fill="#f5f5f5"/>
    <path id="Path_88" data-name="Path 88" d="M147.733-44.7a.528.528,0,0,0-.233.494.519.519,0,0,0,.227.488.609.609,0,0,0,.913,0,.67.67,0,0,0-.391-1.154A.493.493,0,0,0,147.733-44.7Z" transform="translate(-137.219 -434.882)" fill="#f5f5f5"/>
  </g>
</svg>
