<svg xmlns="http://www.w3.org/2000/svg" xmlns:xlink="http://www.w3.org/1999/xlink" width="46.001" height="61" viewBox="0 0 46.001 61">
  <defs>
    <filter id="Path_101" x="0" y="0" width="46.001" height="61" filterUnits="userSpaceOnUse">
      <feOffset dy="3" input="SourceAlpha"/>
      <feGaussianBlur stdDeviation="3.5" result="blur"/>
      <feFlood flood-color="#d3207f"/>
      <feComposite operator="in" in2="blur"/>
      <feComposite in="SourceGraphic"/>
    </filter>
  </defs>
  <g id="cocktail" transform="translate(-85.596 519.329)">
    <g transform="matrix(1, 0, 0, 1, 85.6, -519.33)" filter="url(#Path_101)">
      <path id="Path_101-2" data-name="Path 101" d="M103.083-511.764a8.636,8.636,0,0,0-3.267,1.274,8.211,8.211,0,0,0-3.65,5.619,10.14,10.14,0,0,0,.156,3.306,8.347,8.347,0,0,0,1.876,3.439.757.757,0,0,0,.7.313h.391l2.024-2.024a24.521,24.521,0,0,1,2.063-1.946,8.066,8.066,0,0,1,.125.969,10.981,10.981,0,0,1-1.032,5.58c-.547,1.282-.61,1.782-.219,1.985.406.219.766,0,.946-.578.055-.172.281-.774.508-1.329a11.178,11.178,0,0,0,.985-4.767,10.086,10.086,0,0,0-.477-3.337c-.133-.422-.258-.813-.281-.883-.039-.1.43-.117,4.337-.117,3.595,0,4.384.016,4.384.1,0,.063-.2,1.047-.43,2.2s-.43,2.095-.43,2.11a4.917,4.917,0,0,1-.625.313,6.664,6.664,0,0,1-3.9.5c-1.1-.141-1.344.063-1.579,1.375a14.6,14.6,0,0,1-.977,3.134,7.588,7.588,0,0,0-.656,3.97,7.42,7.42,0,0,0,5.471,6.276,5.9,5.9,0,0,0,1.876.141,5.224,5.224,0,0,0,2.071-.219,7.388,7.388,0,0,0,5.2-5.861,9.381,9.381,0,0,0-.156-3.079,10.939,10.939,0,0,0-1.024-2.313.559.559,0,0,0-.938.4,5.121,5.121,0,0,0,.352,1.008,5.9,5.9,0,0,1,.649,3.079,4.632,4.632,0,0,1-.274,1.657,6.092,6.092,0,0,1-5.932,4.2,5.983,5.983,0,0,1-4.494-1.93,6.086,6.086,0,0,1-1.641-4.908,7.284,7.284,0,0,1,.68-2.2,14.2,14.2,0,0,0,.883-2.868c.109-.524.172-.711.25-.688.063.016.57.047,1.125.063a6.761,6.761,0,0,0,2.821-.4,4.086,4.086,0,0,1,.5-.164c0,.008-.367,1.805-.821,3.993s-.821,4.056-.821,4.15a.574.574,0,0,0,.993.3,29.884,29.884,0,0,0,.953-4.119c.445-2.165.86-4.173.922-4.462l.117-.531.641-.2a5.065,5.065,0,0,1,1.383-.242l.742-.047.1.891c.1.961.211,1.227.586,1.352a.36.36,0,0,0,.422-.086c.242-.18.25-.352.133-1.782-.07-.852-.156-1.11-.485-1.368-.211-.164-.274-.172-1.313-.133a9.334,9.334,0,0,0-1.5.156c-.227.063-.414.086-.414.047,0-.094.7-3.509.75-3.689.039-.125.227-.133,2.423-.133,1.305,0,2.376.023,2.376.055s-.094.344-.2.68a12.044,12.044,0,0,0-.063,6.6c.109.375.383,1.117.61,1.657a8.063,8.063,0,0,1,.883,4.283,7.236,7.236,0,0,1-.242,1.8,8.612,8.612,0,0,1-6.182,6.049,11.833,11.833,0,0,1-3.446.148,8.663,8.663,0,0,1-6.565-5.2,11.1,11.1,0,0,1-.625-2.642c-.055-.524-.227-.758-.571-.758a.781.781,0,0,0-.406.149c-.172.133-.188.2-.164.688a9.675,9.675,0,0,0,4.236,7.377,10.407,10.407,0,0,0,3.384,1.446l.289.047-.016,3.3-.023,3.29-1.837.938a9.776,9.776,0,0,0-1.985,1.157.892.892,0,0,0,.352,1.282,44.852,44.852,0,0,0,5.306.1c4.978,0,5.127-.008,5.377-.156a.9.9,0,0,0,.336-.375,1.13,1.13,0,0,0-.133-.961,19.414,19.414,0,0,0-1.946-1.063c-.985-.5-1.821-.946-1.852-.993s-.063-1.524-.063-3.275a15.131,15.131,0,0,1,.1-3.22c.047-.016.43-.117.836-.234a10.635,10.635,0,0,0,3.095-1.508A9.576,9.576,0,0,0,121.1-491.4a9.28,9.28,0,0,0-.946-4.2,10.312,10.312,0,0,1-.985-4.986,8.964,8.964,0,0,1,.531-2.9c.313-.922.3-1.243-.039-1.618l-.266-.289-2.626-.023c-1.446-.008-2.626-.047-2.626-.078a14.943,14.943,0,0,1,.571-2.227,24.857,24.857,0,0,1,2.29-1.665,14.4,14.4,0,0,0,2.227-1.657.564.564,0,0,0-.688-.75c-.313.125-4.15,2.735-4.5,3.071-.445.414-.57.727-.844,2.071l-.25,1.219h-6l1.563-1.547c1.375-1.352,1.571-1.579,1.618-1.852.078-.438-.125-.766-.828-1.305a8.989,8.989,0,0,0-2.931-1.438A10.64,10.64,0,0,0,103.083-511.764Zm2.978,1.329a7.95,7.95,0,0,1,2.368,1.11l.414.313-1.782,1.79c-1.688,1.688-1.805,1.79-2.079,1.79s-.289-.008-.336-.336c-.094-.68-.508-4.533-.508-4.72v-.2l.649.047A9.84,9.84,0,0,1,106.06-510.435Zm-2.868,2.243c.141,1.282.274,2.423.3,2.54.031.156.008.219-.063.219a22.96,22.96,0,0,1-1.9-1.79l-1.79-1.79.383-.281a8.08,8.08,0,0,1,2.7-1.219C102.919-510.514,102.981-510.131,103.192-508.193Zm-.633,3.736c-.023.023-1.164-.078-2.524-.227s-2.509-.281-2.548-.281c-.32,0,.445-1.907,1.118-2.806l.313-.414,1.844,1.837C101.778-505.332,102.583-504.48,102.559-504.457Zm-2.345.969c1.477.164,2.7.313,2.712.336s-.883.946-1.993,2.055L98.9-499.064l-.188-.234a7.309,7.309,0,0,1-1.454-4.033c0-.391.023-.461.141-.461C97.471-503.793,98.738-503.652,100.215-503.488ZM111.969-478.4l.023,3.353.234.344c.2.289.414.43,1.563,1.016l1.329.68h-7.424l1.321-.672c1.2-.617,1.336-.711,1.54-1.032l.227-.352v-3.29c0-1.813.023-3.321.055-3.345a1.788,1.788,0,0,1,.578-.055h.531Z" transform="translate(-85.6 519.33)" fill="#fff"/>
    </g>
  </g>
</svg>
