<svg xmlns="http://www.w3.org/2000/svg" xmlns:xlink="http://www.w3.org/1999/xlink" width="36" height="33.001" viewBox="0 0 36 33.001">
  <defs>
    <filter id="Cocktail_glass" x="0" y="0" width="36" height="33.001" filterUnits="userSpaceOnUse">
      <feOffset dy="3" input="SourceAlpha"/>
      <feGaussianBlur stdDeviation="3.5" result="blur"/>
      <feFlood flood-color="#ff9200"/>
      <feComposite operator="in" in2="blur"/>
      <feComposite in="SourceGraphic"/>
    </filter>
  </defs>
  <g transform="matrix(1, 0, 0, 1, 0, 0)" filter="url(#Cocktail_glass)">
    <path id="Cocktail_glass-2" data-name="Cocktail glass" d="M14.984,10.159a.934.934,0,0,0-1.223-.506l-.518.216-.907-2.388A2.744,2.744,0,0,0,13.144,3.9L11.115.372a.752.752,0,0,0-.937-.319L7.5,1.164,4.82.054a.75.75,0,0,0-.937.319L1.853,3.9a2.743,2.743,0,0,0,.809,3.579L1.754,9.866l-.518-.216a.935.935,0,0,0-1.223.506.188.188,0,0,0,.1.246l3.8,1.58a.185.185,0,0,0,.244-.1.94.94,0,0,0-.506-1.226l-.518-.216.923-2.428a2.778,2.778,0,0,0,.307.03,2.726,2.726,0,0,0,2.658-2L7.5,4.277l.473,1.767a2.726,2.726,0,0,0,2.658,2,2.778,2.778,0,0,0,.307-.03l.921,2.428-.518.216a.938.938,0,0,0-.506,1.226.186.186,0,0,0,.244.1l3.806-1.58A.187.187,0,0,0,14.984,10.159ZM6.465,3.8,3.838,2.707l.855-1.486,2.215.919Zm2.067,0L8.089,2.139,10.3,1.221l.855,1.486L8.532,3.8Z" transform="translate(10.5 7.5)" fill="#fff"/>
  </g>
</svg>
