<svg xmlns="http://www.w3.org/2000/svg" xmlns:xlink="http://www.w3.org/1999/xlink" width="77.496" height="78.171" viewBox="0 0 77.496 78.171">
  <defs>
    <filter id="Path_113" x="15.807" y="0" width="45.868" height="48.617" filterUnits="userSpaceOnUse">
      <feOffset dy="3" input="SourceAlpha"/>
      <feGaussianBlur stdDeviation="3.5" result="blur"/>
      <feFlood flood-color="#d3207f"/>
      <feComposite operator="in" in2="blur"/>
      <feComposite in="SourceGraphic"/>
    </filter>
    <filter id="Path_114" x="15.496" y="1.441" width="24.038" height="24.254" filterUnits="userSpaceOnUse">
      <feOffset dy="3" input="SourceAlpha"/>
      <feGaussianBlur stdDeviation="3.5" result="blur-2"/>
      <feFlood flood-color="#d3207f"/>
      <feComposite operator="in" in2="blur-2"/>
      <feComposite in="SourceGraphic"/>
    </filter>
    <filter id="Path_115" x="37.961" y="1.442" width="24.015" height="24.253" filterUnits="userSpaceOnUse">
      <feOffset dy="3" input="SourceAlpha"/>
      <feGaussianBlur stdDeviation="3.5" result="blur-3"/>
      <feFlood flood-color="#d3207f"/>
      <feComposite operator="in" in2="blur-3"/>
      <feComposite in="SourceGraphic"/>
    </filter>
    <filter id="Path_116" x="11.393" y="6.593" width="24.567" height="23.68" filterUnits="userSpaceOnUse">
      <feOffset dy="3" input="SourceAlpha"/>
      <feGaussianBlur stdDeviation="3.5" result="blur-4"/>
      <feFlood flood-color="#d3207f"/>
      <feComposite operator="in" in2="blur-4"/>
      <feComposite in="SourceGraphic"/>
    </filter>
    <filter id="Path_117" x="41.534" y="6.593" width="24.559" height="23.68" filterUnits="userSpaceOnUse">
      <feOffset dy="3" input="SourceAlpha"/>
      <feGaussianBlur stdDeviation="3.5" result="blur-5"/>
      <feFlood flood-color="#d3207f"/>
      <feComposite operator="in" in2="blur-5"/>
      <feComposite in="SourceGraphic"/>
    </filter>
    <filter id="Path_118" x="9.61" y="12.958" width="24.778" height="22.897" filterUnits="userSpaceOnUse">
      <feOffset dy="3" input="SourceAlpha"/>
      <feGaussianBlur stdDeviation="3.5" result="blur-6"/>
      <feFlood flood-color="#d3207f"/>
      <feComposite operator="in" in2="blur-6"/>
      <feComposite in="SourceGraphic"/>
    </filter>
    <filter id="Path_119" x="43.109" y="12.966" width="24.777" height="22.889" filterUnits="userSpaceOnUse">
      <feOffset dy="3" input="SourceAlpha"/>
      <feGaussianBlur stdDeviation="3.5" result="blur-7"/>
      <feFlood flood-color="#d3207f"/>
      <feComposite operator="in" in2="blur-7"/>
      <feComposite in="SourceGraphic"/>
    </filter>
    <filter id="Path_120" x="0" y="25.384" width="33.393" height="45.53" filterUnits="userSpaceOnUse">
      <feOffset dy="3" input="SourceAlpha"/>
      <feGaussianBlur stdDeviation="3.5" result="blur-8"/>
      <feFlood flood-color="#d3207f"/>
      <feComposite operator="in" in2="blur-8"/>
      <feComposite in="SourceGraphic"/>
    </filter>
    <filter id="Path_121" x="44.102" y="25.382" width="33.393" height="45.532" filterUnits="userSpaceOnUse">
      <feOffset dy="3" input="SourceAlpha"/>
      <feGaussianBlur stdDeviation="3.5" result="blur-9"/>
      <feFlood flood-color="#d3207f"/>
      <feComposite operator="in" in2="blur-9"/>
      <feComposite in="SourceGraphic"/>
    </filter>
    <filter id="Path_122" x="3.46" y="28.812" width="26.461" height="26.411" filterUnits="userSpaceOnUse">
      <feOffset dy="3" input="SourceAlpha"/>
      <feGaussianBlur stdDeviation="3.5" result="blur-10"/>
      <feFlood flood-color="#d3207f"/>
      <feComposite operator="in" in2="blur-10"/>
      <feComposite in="SourceGraphic"/>
    </filter>
    <filter id="Path_123" x="47.568" y="28.823" width="26.455" height="26.399" filterUnits="userSpaceOnUse">
      <feOffset dy="3" input="SourceAlpha"/>
      <feGaussianBlur stdDeviation="3.5" result="blur-11"/>
      <feFlood flood-color="#d3207f"/>
      <feComposite operator="in" in2="blur-11"/>
      <feComposite in="SourceGraphic"/>
    </filter>
    <filter id="Path_124" x="4.605" y="35.846" width="68.286" height="42.325" filterUnits="userSpaceOnUse">
      <feOffset dy="3" input="SourceAlpha"/>
      <feGaussianBlur stdDeviation="3.5" result="blur-12"/>
      <feFlood flood-color="#d3207f"/>
      <feComposite operator="in" in2="blur-12"/>
      <feComposite in="SourceGraphic"/>
    </filter>
    <filter id="Path_125" x="4.689" y="36.739" width="23.959" height="22.786" filterUnits="userSpaceOnUse">
      <feOffset dy="3" input="SourceAlpha"/>
      <feGaussianBlur stdDeviation="3.5" result="blur-13"/>
      <feFlood flood-color="#d3207f"/>
      <feComposite operator="in" in2="blur-13"/>
      <feComposite in="SourceGraphic"/>
    </filter>
    <filter id="Path_126" x="48.848" y="36.739" width="23.959" height="22.786" filterUnits="userSpaceOnUse">
      <feOffset dy="3" input="SourceAlpha"/>
      <feGaussianBlur stdDeviation="3.5" result="blur-14"/>
      <feFlood flood-color="#d3207f"/>
      <feComposite operator="in" in2="blur-14"/>
      <feComposite in="SourceGraphic"/>
    </filter>
  </defs>
  <g id="dance-floor" transform="translate(-232.5 519.55)">
    <g transform="matrix(1, 0, 0, 1, 232.5, -519.55)" filter="url(#Path_113)">
      <path id="Path_113-2" data-name="Path 113" d="M156.346-511.8c-.19.212-.223.391-.223,1.329,0,1.184-.022,1.217-.793,1.217a13.9,13.9,0,0,0-3.338.938,13.061,13.061,0,0,0-6.487,6.532,10.984,10.984,0,0,0-.927,4.678c-.011,1.675,0,1.719.257,1.932.547.447,1.463.134,1.463-.514v-.279h5.248v.8c0,.447.056,1.362.123,2.021a6.828,6.828,0,0,1,.067,1.262,27.486,27.486,0,0,1-4.31-.313,2.259,2.259,0,0,0-.29-.4.906.906,0,0,0-1.563.435,6.221,6.221,0,0,0,1.429,2.8,12.716,12.716,0,0,0,6.978,4.634,8.852,8.852,0,0,0,3.037.29,8.852,8.852,0,0,0,3.037-.29,12.537,12.537,0,0,0,5.795-3.3,12.482,12.482,0,0,0,3.316-5.806,9.137,9.137,0,0,0,.279-3.026,8.852,8.852,0,0,0-.29-3.037,12.6,12.6,0,0,0-9.088-9.088,10.02,10.02,0,0,0-1.362-.268c-.77,0-.793-.034-.793-1.217,0-.994-.022-1.105-.257-1.329A.975.975,0,0,0,156.346-511.8Zm1.932,4.3a.7.7,0,0,1,.636.48,12.449,12.449,0,0,1,.837,2.255c.1.357.2.715.234.815.056.145-.29.167-2.97.167s-3.026-.022-2.97-.167c.033-.1.134-.458.234-.815a12.892,12.892,0,0,1,.837-2.267c.156-.3.3-.435.525-.469A14.832,14.832,0,0,1,158.278-507.5Zm-5.4,1.105c-.067.179-.257.849-.424,1.5l-.313,1.172-1.05.089c-.581.045-1.351.067-1.719.056l-.67-.033.782-.782a13.106,13.106,0,0,1,1.34-1.172,12.6,12.6,0,0,1,2.155-1.184A.931.931,0,0,1,152.874-506.395Zm10.227.748a13.294,13.294,0,0,1,1.451,1.239l.782.793-.67.033c-.368.011-1.139-.011-1.719-.056l-1.061-.089-.089-.391c-.145-.592-.625-2.255-.715-2.49-.067-.179.045-.145.636.156A14.371,14.371,0,0,1,163.1-505.647Zm-2.735,3.9a17.985,17.985,0,0,1,.335,3.271v.726h-7.369v-.726a17.986,17.986,0,0,1,.335-3.271l.112-.246h6.476Zm-8.642.5c-.033.357-.1,1.284-.145,2.066l-.067,1.429h-5.2l.056-.424a13.612,13.612,0,0,1,.782-2.814c.29-.659.313-.67.759-.681.246-.011.983-.056,1.63-.1s1.418-.078,1.719-.089l.547-.022Zm13.744-.458,1.128.067.3.659a14.027,14.027,0,0,1,.77,2.8l.056.424h-5.2l-.067-1.429c-.045-.782-.112-1.708-.145-2.077l-.078-.659,1.049.078C163.86-501.806,164.843-501.739,165.468-501.705Zm-4.768,6.487a25.577,25.577,0,0,1-.279,3.126l-.067.368h-6.666l-.067-.313a23.66,23.66,0,0,1-.29-3.182v-.748H160.7Zm6.967-.335a13.935,13.935,0,0,1-.77,2.814l-.3.659-1.128.067c-.625.033-1.608.1-2.188.134l-1.049.078.078-.659c.033-.368.1-1.3.145-2.088l.067-1.418h5.2ZM151.2-490.071l.949.078.089.391c.145.581.614,2.255.715,2.49.067.179-.045.145-.636-.156a11.315,11.315,0,0,1-3.461-2.68c-.1-.2-.056-.212.648-.2C149.915-490.138,150.685-490.1,151.2-490.071Zm13.979.1a10.489,10.489,0,0,1-3.249,2.59c-.737.391-.916.447-.849.279.089-.246.569-1.909.715-2.5l.089-.391.837-.067c.458-.033,1.217-.067,1.7-.078C165.211-490.161,165.278-490.15,165.178-489.971Zm-5.192.2c-.033.1-.134.458-.234.815a12.449,12.449,0,0,1-.837,2.255.7.7,0,0,1-.636.48,10.691,10.691,0,0,1-2.534,0c-.413-.067-.458-.112-.793-.86a16.444,16.444,0,0,1-.9-2.668c-.056-.179.134-.19,2.97-.19C159.7-489.937,160.042-489.915,159.986-489.77Z" transform="translate(-118.27 519.55)" fill="#fff"/>
    </g>
    <g transform="matrix(1, 0, 0, 1, 232.5, -519.55)" filter="url(#Path_114)">
      <path id="Path_114-2" data-name="Path 114" d="M142.037-498.9c-.447.447-.313.882.614,2,.8.971.86,1.016,1.284,1.016a.786.786,0,0,0,.893-.837q0-.569-1.373-2.043A1,1,0,0,0,142.037-498.9Z" transform="translate(-115.79 508.08)" fill="#fff"/>
    </g>
    <g transform="matrix(1, 0, 0, 1, 232.5, -519.55)" filter="url(#Path_115)">
      <path id="Path_115-2" data-name="Path 115" d="M344.373-498.766Q343-497.292,343-496.723a.786.786,0,0,0,.893.837c.424,0,.48-.045,1.284-1.016.681-.826.837-1.083.837-1.4C346.015-499.157,345.01-499.436,344.373-498.766Z" transform="translate(-294.54 508.08)" fill="#fff"/>
    </g>
    <g transform="matrix(1, 0, 0, 1, 232.5, -519.55)" filter="url(#Path_116)">
      <path id="Path_116-2" data-name="Path 116" d="M105.316-452.721a.881.881,0,0,0-.167,1.061,7.12,7.12,0,0,0,2.624,1.34.879.879,0,0,0,.614-1.451A8.856,8.856,0,0,0,105.875-453,.92.92,0,0,0,105.316-452.721Z" transform="translate(-83.15 467.09)" fill="#fff"/>
    </g>
    <g transform="matrix(1, 0, 0, 1, 232.5, -519.55)" filter="url(#Path_117)">
      <path id="Path_117-2" data-name="Path 117" d="M376.34-452.442c-1.172.614-1.34.77-1.34,1.284a.866.866,0,0,0,.871.837,7.322,7.322,0,0,0,2.59-1.34.93.93,0,0,0-.748-1.34A5.575,5.575,0,0,0,376.34-452.442Z" transform="translate(-322.97 467.09)" fill="#fff"/>
    </g>
    <g transform="matrix(1, 0, 0, 1, 232.5, -519.55)" filter="url(#Path_118)">
      <path id="Path_118-2" data-name="Path 118" d="M89.3-395.7a.911.911,0,0,0-.034,1.161,4.3,4.3,0,0,0,2.445.447c.614,0,.715-.033.916-.29a.778.778,0,0,0-.011-1.105c-.223-.246-.4-.3-1.206-.391C89.846-396.06,89.555-396.038,89.3-395.7Z" transform="translate(-68.96 416.45)" fill="#fff"/>
    </g>
    <g transform="matrix(1, 0, 0, 1, 232.5, -519.55)" filter="url(#Path_119)">
      <path id="Path_119-2" data-name="Path 119" d="M390.372-395.8c-.636.067-.826.145-1.027.38a.769.769,0,0,0-.022,1.105c.2.257.3.29.916.29a4.3,4.3,0,0,0,2.445-.447.911.911,0,0,0-.033-1.161c-.2-.257-.3-.29-.86-.279C391.444-395.9,390.808-395.859,390.372-395.8Z" transform="translate(-335.49 416.38)" fill="#fff"/>
    </g>
    <g transform="matrix(1, 0, 0, 1, 232.5, -519.55)" filter="url(#Path_120)">
      <path id="Path_120-2" data-name="Path 120" d="M4.061-284.655a1.567,1.567,0,0,0-.9.715c-.134.268-.156,1.451-.156,7.525,0,6.487.022,7.257.179,7.536.368.614.6.67,2.936.67H8.248v6.23l-.681.045c-.547.045-.737.1-.893.3a.931.931,0,0,0,.045,1.217c.246.234.357.246,2.5.246h2.255l.223-.29a.912.912,0,0,0,.022-1.172c-.167-.212-.335-.268-.949-.3l-.737-.045v-6.23h4.488l.435-.435.435-.435v-3.975c0-3.83-.011-3.986-.223-4.2a1,1,0,0,0-1.239-.011l-.268.212-.033,3.528L13.6-270H4.786v-12.952h8.82v2.7l.335.335c.29.279.4.324.7.268.681-.134.748-.335.748-2.266s-.089-2.233-.7-2.568c-.324-.179-.8-.2-5.382-.223C6.551-284.7,4.184-284.689,4.061-284.655Z" transform="translate(7.5 317.58)" fill="#fff"/>
    </g>
    <g transform="matrix(1, 0, 0, 1, 232.5, -519.55)" filter="url(#Path_121)">
      <path id="Path_121-2" data-name="Path 121" d="M399.105-284.65c-1,.313-1.105.569-1.105,2.724,0,1.932.067,2.133.748,2.267.3.056.413.011.7-.268l.335-.335v-2.7h8.82v12.952H399.8l-.034-3.528-.034-3.528-.268-.212a1,1,0,0,0-1.239.011c-.212.212-.223.368-.223,4.2v3.975l.435.435.435.435h4.488V-262l-.737.045c-.614.034-.782.089-.949.3a.912.912,0,0,0,.022,1.172l.223.29h2.267c2.222,0,2.267,0,2.5-.257a.93.93,0,0,0,.033-1.206c-.156-.2-.346-.257-.893-.3l-.681-.045v-6.23h2.133c2.334,0,2.568-.056,2.936-.67.156-.279.179-1.05.179-7.536,0-7.86.022-7.6-.636-8.05-.29-.2-.6-.212-5.337-.234C401.662-284.728,399.262-284.695,399.105-284.65Z" transform="translate(-343.4 317.6)" fill="#fff"/>
    </g>
    <g transform="matrix(1, 0, 0, 1, 232.5, -519.55)" filter="url(#Path_122)">
      <path id="Path_122-2" data-name="Path 122" d="M35.462-253.71a2.736,2.736,0,0,0,.022,4.868,3.2,3.2,0,0,0,2.467.011,2.814,2.814,0,0,0,.893-4.232A2.806,2.806,0,0,0,36.724-254,2.533,2.533,0,0,0,35.462-253.71Zm1.775,1.641a.9.9,0,0,1,.167,1.373.937.937,0,0,1-1.63-.636A.966.966,0,0,1,37.238-252.068Z" transform="translate(-20.03 290.31)" fill="#fff"/>
    </g>
    <g transform="matrix(1, 0, 0, 1, 232.5, -519.55)" filter="url(#Path_123)">
      <path id="Path_123-2" data-name="Path 123" d="M430.507-253.629a2.755,2.755,0,0,0,.034,4.89,3.2,3.2,0,0,0,2.467-.011,2.763,2.763,0,0,0,.223-4.768,2.345,2.345,0,0,0-1.34-.368A2.144,2.144,0,0,0,430.507-253.629Zm1.932,1.786a.859.859,0,0,1,.011,1.239.9.9,0,0,1-1.5-.994A.906.906,0,0,1,432.438-251.843Z" transform="translate(-370.97 290.22)" fill="#fff"/>
    </g>
    <g transform="matrix(1, 0, 0, 1, 232.5, -519.55)" filter="url(#Path_124)">
      <path id="Path_124-2" data-name="Path 124" d="M61.445-190.81c-.413.234-16.837,18.791-17.083,19.3a1.353,1.353,0,0,0,.3,1.518l.313.313H90.8l.313-.313a1.353,1.353,0,0,0,.3-1.518c-.246-.514-16.67-19.07-17.083-19.3-.324-.179-.849-.19-6.442-.19S61.769-190.989,61.445-190.81Zm3.283,1.731c-.022.078-.19.636-.357,1.228l-.313,1.094H60.15l.212-.257c.123-.134.614-.681,1.094-1.228l.871-.971h1.228C64.493-189.214,64.772-189.18,64.727-189.08Zm4.745,1.038c.167.614.313,1.15.313,1.195a9.528,9.528,0,0,1-1.9.089,10.757,10.757,0,0,1-1.9-.089c0-.078.5-1.887.614-2.233.045-.1.357-.134,1.3-.112l1.251.034Zm4.846-.2c.48.547.971,1.094,1.094,1.228l.212.257H71.717l-.313-1.094c-.167-.592-.335-1.15-.357-1.228-.045-.1.234-.134,1.172-.134h1.228Zm-10.786,3.35c0,.056-.324,1.195-.715,2.546l-.7,2.456-4.053.034-4.042.022.759-.86c.424-.48,1.44-1.641,2.267-2.579l1.507-1.7h2.49A19.583,19.583,0,0,1,63.533-184.893Zm6.911.279c.056.2.368,1.3.681,2.423s.6,2.121.636,2.211c.045.123-.659.145-3.874.145s-3.919-.022-3.874-.145c.033-.089.313-1.072.636-2.211s.625-2.222.681-2.423l.123-.357h4.868Zm8.285,1.34c.826.938,1.842,2.1,2.267,2.579l.759.86-4.042-.022-4.053-.034-.7-2.456c-.391-1.351-.715-2.49-.715-2.546a19.583,19.583,0,0,1,2.49-.078h2.49ZM60.652-174.7l-.96,3.35H46.539l.38-.435c.2-.246,1.53-1.753,2.936-3.35l2.568-2.914H61.6Zm12.572-.089c.514,1.8.916,3.3.916,3.35s-2.814.089-6.252.089-6.252-.034-6.252-.089.4-1.552.916-3.35l.916-3.26h8.843Zm12.695-.346c1.418,1.6,2.735,3.1,2.936,3.35l.38.435H76.082l-.916-3.216c-.5-1.764-.916-3.271-.916-3.35,0-.1,1.061-.134,4.555-.134h4.544Z" transform="translate(-29.14 234.35)" fill="#fff"/>
    </g>
    <g transform="matrix(1, 0, 0, 1, 232.5, -519.55)" filter="url(#Path_125)">
      <path id="Path_125-2" data-name="Path 125" d="M45.279-182.721a.87.87,0,0,0-.279.614.87.87,0,0,0,.279.614c.246.257.357.279,1.206.279,1.184,0,1.474-.179,1.474-.893s-.29-.893-1.474-.893C45.636-183,45.525-182.978,45.279-182.721Z" transform="translate(-29.81 227.24)" fill="#fff"/>
    </g>
    <g transform="matrix(1, 0, 0, 1, 232.5, -519.55)" filter="url(#Path_126)">
      <path id="Path_126-2" data-name="Path 126" d="M440.768-182.788a.726.726,0,0,0-.268.681c0,.715.29.893,1.474.893.849,0,.96-.022,1.206-.279a.87.87,0,0,0,.279-.614.87.87,0,0,0-.279-.614c-.246-.257-.357-.279-1.206-.279C441.215-183,440.98-182.955,440.768-182.788Z" transform="translate(-381.15 227.24)" fill="#fff"/>
    </g>
  </g>
</svg>
