<svg xmlns="http://www.w3.org/2000/svg" xmlns:xlink="http://www.w3.org/1999/xlink" width="395" height="275.605" viewBox="0 0 395 275.605">
  <defs>
    <filter id="Path_171" x="0" y="0" width="395" height="274.606" filterUnits="userSpaceOnUse">
      <feOffset dy="3" input="SourceAlpha"/>
      <feGaussianBlur stdDeviation="3" result="blur"/>
      <feFlood flood-color="#f0c"/>
      <feComposite operator="in" in2="blur"/>
      <feComposite in="SourceGraphic"/>
    </filter>
    <filter id="Path_172" x="162.757" y="109.121" width="72.687" height="110.184" filterUnits="userSpaceOnUse">
      <feOffset dy="3" input="SourceAlpha"/>
      <feGaussianBlur stdDeviation="3" result="blur-2"/>
      <feFlood flood-color="#f0c"/>
      <feComposite operator="in" in2="blur-2"/>
      <feComposite in="SourceGraphic"/>
    </filter>
    <filter id="Path_173" x="182.237" y="239.524" width="36.014" height="36.081" filterUnits="userSpaceOnUse">
      <feOffset dy="3" input="SourceAlpha"/>
      <feGaussianBlur stdDeviation="3" result="blur-3"/>
      <feFlood flood-color="#f0c"/>
      <feComposite operator="in" in2="blur-3"/>
      <feComposite in="SourceGraphic"/>
    </filter>
  </defs>
  <g id="diamond-big" transform="translate(8.5 431.717)">
    <g transform="matrix(1, 0, 0, 1, -8.5, -431.72)" filter="url(#Path_171)">
      <path id="Path_171-2" data-name="Path 171" d="M181.844-424.571a22.714,22.714,0,0,0-7.673,37.918l3.541,3.4-10.55,18.884c-5.828,10.424-10.7,19.187-10.845,19.564-.074.377-9.222-5.514-20.289-13.068l-20.067-13.671,2.213-3.173a23.071,23.071,0,0,0-8.779-34.142c-4.722-2.19-13.132-2.19-17.854,0a22.446,22.446,0,0,0-10.771,10.726c-1.7,3.55-2.066,5.288-2.066,9.971,0,8.459,3.32,14.729,10.55,19.639l1.623,1.133-6.2,19.186c-3.467,10.5-6.492,19.338-6.64,19.488-.221.3-36.446-24.4-40.135-27.419-.148-.076.738-1.586,2.066-3.4,8.115-11.48,4.279-27.495-7.968-33.687-3.468-1.738-5.164-2.116-9.739-2.116C9.427-395.339.574-386.2.5-373.056c0,4.684.369,6.421,2.066,9.971,2.287,4.683,6.714,9.139,10.624,10.575,1.476.529,2.656,1.586,2.8,2.492.221.831,2.14,12.615,4.353,26.287l4.058,24.7-2.582,4c-6.419,9.97-8.706,29-5.091,43.206,2.656,10.576,9.443,19.791,15.936,21.527,1.992.6,2.951,1.284,3.246,2.493.221.907,2.213,13.068,4.427,26.966,2.287,13.9,4.427,26.287,4.943,27.42,1.7,4.456.074,4.305,58.431,4.305,39.913,0,54-.226,55.406-.907a8.223,8.223,0,0,0,4.058-6.647,8.224,8.224,0,0,0-4.058-6.646c-1.4-.68-14.608-.906-51.57-.906H57.9l-.885-6.27c-.516-3.4-1.033-6.8-1.254-7.553C55.39-199.25,62.1-199.326,189-199.326s133.61.075,133.241,1.284c-.221.755-.738,4.154-1.254,7.553l-.885,6.27H270.45c-36.962,0-50.168.227-51.57.906a8.224,8.224,0,0,0-4.058,6.646,8.223,8.223,0,0,0,4.058,6.647c1.4.681,15.493.907,55.407.907,58.358,0,56.734.151,58.431-4.305.516-1.133,2.656-13.521,4.943-27.42,2.213-13.9,4.205-26.059,4.427-26.966.3-1.208,1.254-1.889,3.246-2.493,6.492-1.737,13.132-10.8,15.936-21.527,3.615-14.05,1.328-33.235-5.091-43.206l-2.582-4,4.058-24.7c2.213-13.672,4.132-25.456,4.353-26.287.148-.905,1.328-1.963,2.8-2.492,3.91-1.436,8.337-5.892,10.624-10.575,1.7-3.55,2.066-5.287,2.066-9.971-.074-9.367-4.132-16.164-12.026-20.167-3.467-1.738-5.164-2.116-9.739-2.116s-6.271.378-9.738,2.116c-12.247,6.193-16.083,22.207-7.968,33.688,1.328,1.813,2.213,3.323,2.066,3.4-1.549,1.284-38.807,27.192-39.4,27.419s-3.1-6.571-6.935-18.355c-3.394-10.272-6.123-19.11-6.2-19.563-.074-.529,1.623-2.267,3.689-4,5.533-4.456,8.042-10.046,8.042-17.523,0-13.144-8.927-22.283-21.764-22.283-4.058,0-6.419.453-8.927,1.586a23.071,23.071,0,0,0-8.779,34.142l2.213,3.173-20.067,13.671c-11.067,7.554-20.215,13.445-20.289,13.068-.148-.377-5.017-9.14-10.845-19.564l-10.55-18.884,3.541-3.4c4.943-4.758,6.935-9.442,6.935-16.617,0-6.421-1.549-10.727-5.459-15.333C199.993-424.722,189.59-427.441,181.844-424.571Zm10.771,14.8c4.943,2.644,4.8,10.8-.3,13.144-3.763,1.737-7.894.528-9.665-2.946C179.188-406.443,185.9-413.316,192.615-409.767ZM104.083-394.66c4.943,2.645,4.8,10.8-.3,13.144-3.763,1.737-7.894.529-9.665-2.946C90.655-391.336,97.369-398.208,104.083-394.66Zm177.065,0c4.943,2.645,4.8,10.8-.3,13.144a7.392,7.392,0,0,1-9.665-10.349A7.231,7.231,0,0,1,281.147-394.66ZM25.879-379.552c4.943,2.643,4.8,10.8-.3,13.143-3.763,1.737-7.894.529-9.665-2.945C12.452-376.229,19.166-383.1,25.879-379.552Zm333.472,0c4.943,2.643,4.8,10.8-.3,13.143a7.392,7.392,0,0,1-9.665-10.348A7.228,7.228,0,0,1,359.351-379.552ZM215.929-324.639c27.519,49.4,27.814,49.777,32.388,49.777,2.066,0,1.4.454,59.464-40.259,20.436-14.353,37.331-25.984,37.479-25.909.221.226-4.574,30.516-5.386,34.218-.3,1.208-1.254,1.888-3.246,2.492-6.492,1.737-13.28,10.953-15.936,21.528-3.615,14.2-1.328,33.234,5.091,43.206l2.582,4-1.476,8.838c-.738,4.91-1.623,9.669-1.771,10.575l-.369,1.738H53.25l-.369-1.738c-.148-.906-1.033-5.665-1.771-10.575l-1.476-8.913,2.287-3.4c6.64-10.122,9.075-29.535,5.386-43.734-2.8-10.727-9.443-19.791-15.936-21.528-1.992-.6-2.951-1.283-3.246-2.492-.812-3.853-5.533-33.992-5.312-34.218.074-.151,16.969,11.556,37.4,25.909,58.136,40.789,57.4,40.259,59.464,40.259,4.574,0,4.869-.377,32.388-49.777C176.679-350.85,188.779-372.3,189-372.3S201.321-350.85,215.929-324.639Zm-89.786-21.9c11.657,7.931,21.469,14.729,21.764,15.03.516.454-18.3,35.427-20.141,37.315-.443.453-32.9-21.3-36.446-24.549-.516-.529,12.542-42.225,13.28-42.225C104.747-360.971,114.485-354.475,126.142-346.543Zm154.341,6.42c3.763,11.481,6.492,21.074,6.2,21.452-3.32,3.021-36,24.926-36.446,24.473-1.4-1.511-20.731-36.71-20.362-37.164.812-.831,42.864-29.533,43.381-29.533C273.475-360.971,276.795-351.6,280.483-340.123ZM39.823-286.946c2.951,4.532,4.205,10.2,4.205,19.638s-1.254,15.108-4.279,19.715c-2.14,3.248-3.32,3.248-5.459,0-6.419-9.668-5.755-33.311,1.033-41.016C36.872-290.421,37.757-290.043,39.823-286.946Zm303.961,0c2.951,4.532,4.205,10.2,4.205,19.638s-1.254,15.108-4.279,19.715c-2.14,3.248-3.32,3.248-5.46,0-6.419-9.668-5.755-33.311,1.033-41.016C340.833-290.421,341.718-290.043,343.784-286.946Z" transform="translate(8.5 431.72)" fill="#f1d1eb"/>
    </g>
    <g transform="matrix(1, 0, 0, 1, -8.5, -431.72)" filter="url(#Path_172)">
      <path id="Path_172-2" data-name="Path 172" d="M247.452-264.792c-4.89,1.569-11.81,8.4-14.947,14.762-4.613,9.6-5.9,16.239-5.9,30.171,0,18.914,4.244,31.831,13.194,39.858,9.688,8.673,19.376,8.4,28.694-.923a30.055,30.055,0,0,0,8.027-12.64c9.042-23.343,4.8-53.882-9.042-66.338C261.014-265.715,254.833-267.192,247.452-264.792Zm9.78,20.944c3.691,5.536,5.259,12.456,5.259,23.989s-1.568,18.452-5.351,24.081c-2.676,3.967-4.152,3.967-6.828,0-8.027-11.81-7.2-40.689,1.292-50.1C253.541-248.092,254.648-247.631,257.232-243.848Z" transform="translate(-54.84 381.01)" fill="#f1d1eb"/>
    </g>
    <g transform="matrix(1, 0, 0, 1, -8.5, -431.72)" filter="url(#Path_173)">
      <path id="Path_173-2" data-name="Path 173" d="M250.662-104.713c-7.92,4.37-4.552,16.932,4.461,16.932,4.643,0,9.1-4.461,9.1-9.012A9.168,9.168,0,0,0,250.662-104.713Z" transform="translate(-54.97 351.39)" fill="#f1d1eb"/>
    </g>
  </g>
</svg>
