<svg xmlns="http://www.w3.org/2000/svg" xmlns:xlink="http://www.w3.org/1999/xlink" width="71" height="71" viewBox="0 0 71 71">
  <defs>
    <filter id="Ellipse_26" x="0" y="0" width="71" height="71" filterUnits="userSpaceOnUse">
      <feOffset dy="3" input="SourceAlpha"/>
      <feGaussianBlur stdDeviation="5" result="blur"/>
      <feFlood flood-color="#f0c"/>
      <feComposite operator="in" in2="blur"/>
      <feComposite in="SourceGraphic"/>
    </filter>
    <filter id="Path_171" x="11" y="16.345" width="49.264" height="38.364" filterUnits="userSpaceOnUse">
      <feOffset dy="3" input="SourceAlpha"/>
      <feGaussianBlur stdDeviation="3" result="blur-2"/>
      <feFlood flood-color="#f0c"/>
      <feComposite operator="in" in2="blur-2"/>
      <feComposite in="SourceGraphic"/>
    </filter>
  </defs>
  <g id="diamond" transform="translate(-154 -396)">
    <g transform="matrix(1, 0, 0, 1, 154, 396)" filter="url(#Ellipse_26)">
      <g id="Ellipse_26-2" data-name="Ellipse 26" transform="translate(15 12)" fill="none" stroke="#dadada" stroke-width="2">
        <circle cx="20.5" cy="20.5" r="20.5" stroke="none"/>
        <circle cx="20.5" cy="20.5" r="19.5" fill="none"/>
      </g>
    </g>
    <g id="diamond-2" data-name="diamond" transform="translate(173.5 844.062)">
      <g transform="matrix(1, 0, 0, 1, -19.5, -448.06)" filter="url(#Path_171)">
        <path id="Path_171-2" data-name="Path 171" d="M15.539-425.626a1.769,1.769,0,0,0-.636,3.009l.294.27-.875,1.5c-.483.827-.887,1.523-.9,1.553a18.673,18.673,0,0,1-1.683-1.037l-1.664-1.085.184-.252a1.792,1.792,0,0,0-.728-2.709,2.167,2.167,0,0,0-1.481,0,1.824,1.824,0,0,0-.893.851,1.421,1.421,0,0,0-.171.791,1.735,1.735,0,0,0,.875,1.559l.135.09-.514,1.523c-.288.833-.538,1.535-.551,1.547S3.908-419.955,3.6-420.2a.954.954,0,0,1,.171-.27,1.779,1.779,0,0,0-.661-2.673,1.5,1.5,0,0,0-.808-.168,1.711,1.711,0,0,0-1.8,1.768,1.421,1.421,0,0,0,.171.791,1.814,1.814,0,0,0,.881.839c.122.042.22.126.232.2s.177,1,.361,2.086l.337,1.96-.214.318a4.741,4.741,0,0,0-.422,3.429,2.38,2.38,0,0,0,1.322,1.708c.165.048.245.1.269.2.018.072.184,1.037.367,2.14s.367,2.086.41,2.176c.141.354.006.342,4.846.342,3.31,0,4.479-.018,4.595-.072a.65.65,0,0,0,.337-.527.65.65,0,0,0-.337-.527c-.116-.054-1.211-.072-4.277-.072H5.26l-.073-.5c-.043-.27-.086-.539-.1-.6-.031-.1.526-.1,11.05-.1s11.08.006,11.05.1c-.018.06-.061.33-.1.6l-.073.5H22.887c-3.065,0-4.16.018-4.277.072a.65.65,0,0,0-.337.527.65.65,0,0,0,.337.527c.116.054,1.285.072,4.595.072,4.84,0,4.7.012,4.846-.342.043-.09.22-1.073.41-2.176s.349-2.068.367-2.14c.024-.1.1-.15.269-.2a2.384,2.384,0,0,0,1.322-1.708A4.749,4.749,0,0,0,30-415.346l-.214-.318.337-1.96c.184-1.085.343-2.02.361-2.086s.11-.156.232-.2a1.814,1.814,0,0,0,.881-.839,1.421,1.421,0,0,0,.171-.791,1.674,1.674,0,0,0-1-1.6,1.5,1.5,0,0,0-.808-.168,1.5,1.5,0,0,0-.808.168,1.779,1.779,0,0,0-.661,2.673.954.954,0,0,1,.171.27c-.128.1-3.218,2.158-3.267,2.176a6.407,6.407,0,0,1-.575-1.457c-.281-.815-.508-1.517-.514-1.552s.135-.18.306-.318a1.629,1.629,0,0,0,.667-1.391,1.708,1.708,0,0,0-1.8-1.768,1.706,1.706,0,0,0-.74.126,1.792,1.792,0,0,0-.728,2.709l.184.252-1.664,1.085a18.673,18.673,0,0,1-1.683,1.037c-.012-.03-.416-.725-.9-1.553l-.875-1.5.294-.27a1.61,1.61,0,0,0,.575-1.319,1.653,1.653,0,0,0-.453-1.217A1.943,1.943,0,0,0,15.539-425.626Zm.893,1.175a.592.592,0,0,1-.024,1.043.607.607,0,0,1-.8-.234A.6.6,0,0,1,16.432-424.451Zm-7.342,1.2a.592.592,0,0,1-.024,1.043.607.607,0,0,1-.8-.234A.6.6,0,0,1,9.09-423.252Zm14.684,0a.592.592,0,0,1-.024,1.043.6.6,0,0,1-.8-.821A.614.614,0,0,1,23.774-423.252ZM2.6-422.053a.592.592,0,0,1-.024,1.043.607.607,0,0,1-.8-.234A.6.6,0,0,1,2.6-422.053Zm27.654,0a.592.592,0,0,1-.024,1.043.6.6,0,0,1-.8-.821A.614.614,0,0,1,30.259-422.053ZM18.365-417.7c2.282,3.92,2.307,3.95,2.686,3.95.171,0,.116.036,4.931-3.195,1.695-1.139,3.1-2.062,3.108-2.056s-.379,2.422-.447,2.715c-.024.1-.1.15-.269.2a2.38,2.38,0,0,0-1.322,1.708,4.741,4.741,0,0,0,.422,3.429l.214.318-.122.7c-.061.39-.135.767-.147.839l-.031.138H4.875l-.031-.138c-.012-.072-.086-.45-.147-.839l-.122-.707.19-.27a4.74,4.74,0,0,0,.447-3.471,2.384,2.384,0,0,0-1.322-1.708c-.165-.048-.245-.1-.269-.2-.067-.306-.459-2.7-.441-2.715s1.407.917,3.1,2.056c4.821,3.237,4.76,3.195,4.931,3.195.379,0,.4-.03,2.686-3.95,1.211-2.08,2.215-3.782,2.233-3.782S17.154-419.775,18.365-417.7Zm-7.446-1.738c.967.629,1.78,1.169,1.8,1.193a33.583,33.583,0,0,1-1.67,2.961c-.037.036-2.729-1.69-3.022-1.948-.043-.042,1.04-3.351,1.1-3.351C9.145-420.579,9.953-420.063,10.919-419.434Zm12.8.509a13.177,13.177,0,0,1,.514,1.7c-.275.24-2.986,1.978-3.022,1.942-.116-.12-1.719-2.913-1.689-2.949.067-.066,3.555-2.344,3.6-2.344C23.138-420.579,23.413-419.835,23.719-418.924ZM3.761-414.7a2.626,2.626,0,0,1,.349,1.558,2.61,2.61,0,0,1-.355,1.565c-.177.258-.275.258-.453,0a3.42,3.42,0,0,1,.086-3.255C3.516-414.98,3.59-414.95,3.761-414.7Zm25.207,0a2.627,2.627,0,0,1,.349,1.558,2.61,2.61,0,0,1-.355,1.565c-.177.258-.275.258-.453,0a3.42,3.42,0,0,1,.086-3.255C28.723-414.98,28.8-414.95,28.968-414.7Z" transform="translate(19.5 448.06)" fill="#d4d6db"/>
      </g>
      <path id="Path_172" data-name="Path 172" d="M228.217-265.807a2.51,2.51,0,0,0-1.159,1.145,4.606,4.606,0,0,0-.458,2.34,3.934,3.934,0,0,0,1.023,3.091,1.446,1.446,0,0,0,2.225-.072,2.33,2.33,0,0,0,.622-.98c.7-1.81.372-4.178-.7-5.144A1.457,1.457,0,0,0,228.217-265.807Zm.758,1.624a3.186,3.186,0,0,1,.408,1.86,3.167,3.167,0,0,1-.415,1.867c-.207.308-.322.308-.529,0a4.156,4.156,0,0,1,.1-3.885C228.689-264.512,228.775-264.477,228.975-264.183Z" transform="translate(-212.575 -151.302)" fill="#d4d6db"/>
      <path id="Path_173" data-name="Path 173" d="M246.919-105.679a1.45,1.45,0,0,0,.709,2.691,1.531,1.531,0,0,0,1.447-1.432A1.457,1.457,0,0,0,246.919-105.679Z" transform="translate(-231.498 -301.366)" fill="#d4d6db"/>
    </g>
  </g>
</svg>
