<svg xmlns="http://www.w3.org/2000/svg" xmlns:xlink="http://www.w3.org/1999/xlink" width="52.473" height="71.355" viewBox="0 0 52.473 71.355">
  <defs>
    <filter id="Path_101" x="0" y="0" width="52.473" height="71.355" filterUnits="userSpaceOnUse">
      <feOffset dy="3" input="SourceAlpha"/>
      <feGaussianBlur stdDeviation="3.5" result="blur"/>
      <feFlood flood-color="#d3207f"/>
      <feComposite operator="in" in2="blur"/>
      <feComposite in="SourceGraphic"/>
    </filter>
  </defs>
  <g id="drinks" transform="translate(-85.596 519.329)">
    <g transform="matrix(1, 0, 0, 1, 85.6, -519.33)" filter="url(#Path_101)">
      <path id="Path_101-2" data-name="Path 101" d="M104.892-511.747a10.872,10.872,0,0,0-4.112,1.6,10.336,10.336,0,0,0-4.594,7.074,12.765,12.765,0,0,0,.2,4.162,10.507,10.507,0,0,0,2.361,4.329.953.953,0,0,0,.885.393h.492l2.548-2.548a30.862,30.862,0,0,1,2.6-2.45,10.151,10.151,0,0,1,.157,1.22,13.824,13.824,0,0,1-1.3,7.024c-.689,1.613-.767,2.243-.275,2.5.512.276.964,0,1.19-.728.069-.216.354-.974.639-1.672a14.072,14.072,0,0,0,1.24-6,12.7,12.7,0,0,0-.6-4.2c-.167-.531-.325-1.023-.354-1.112-.049-.128.541-.148,5.46-.148,4.526,0,5.519.02,5.519.128,0,.079-.246,1.318-.541,2.765s-.541,2.637-.541,2.656a6.187,6.187,0,0,1-.787.394,8.39,8.39,0,0,1-4.909.63c-1.387-.177-1.692.079-1.987,1.732a18.374,18.374,0,0,1-1.23,3.945,9.552,9.552,0,0,0-.826,5,9.341,9.341,0,0,0,6.887,7.9,7.424,7.424,0,0,0,2.361.177,6.576,6.576,0,0,0,2.607-.275,9.3,9.3,0,0,0,6.552-7.379,11.809,11.809,0,0,0-.2-3.876,13.769,13.769,0,0,0-1.289-2.912.7.7,0,0,0-1.181.5,6.447,6.447,0,0,0,.443,1.269,7.431,7.431,0,0,1,.817,3.876,5.831,5.831,0,0,1-.344,2.086,7.669,7.669,0,0,1-7.467,5.293,7.532,7.532,0,0,1-5.657-2.43A7.662,7.662,0,0,1,107.587-487a9.17,9.17,0,0,1,.856-2.765,17.869,17.869,0,0,0,1.112-3.611c.138-.659.216-.9.315-.866.079.02.718.059,1.417.079a8.513,8.513,0,0,0,3.552-.5,5.147,5.147,0,0,1,.63-.207c0,.01-.462,2.273-1.033,5.027s-1.033,5.106-1.033,5.224a.723.723,0,0,0,1.249.384,37.621,37.621,0,0,0,1.2-5.185c.561-2.725,1.082-5.254,1.161-5.618l.148-.669.807-.256a6.376,6.376,0,0,1,1.741-.3l.935-.059.128,1.122c.128,1.21.266,1.545.738,1.7a.453.453,0,0,0,.531-.108c.3-.226.315-.443.167-2.243-.089-1.072-.2-1.4-.61-1.722-.266-.207-.344-.216-1.653-.167a11.745,11.745,0,0,0-1.889.2c-.285.079-.521.108-.521.059,0-.118.876-4.417.944-4.644.049-.157.285-.167,3.05-.167,1.643,0,2.991.03,2.991.069s-.118.433-.256.856a15.162,15.162,0,0,0-.079,8.3c.138.472.482,1.407.767,2.086a10.15,10.15,0,0,1,1.112,5.391,9.109,9.109,0,0,1-.3,2.263,10.841,10.841,0,0,1-7.782,7.615,14.9,14.9,0,0,1-4.339.187,10.905,10.905,0,0,1-8.264-6.552,13.972,13.972,0,0,1-.787-3.325c-.069-.659-.285-.954-.718-.954a.984.984,0,0,0-.512.187c-.216.167-.236.256-.207.866a12.179,12.179,0,0,0,5.332,9.287,13.1,13.1,0,0,0,4.26,1.82l.364.059-.02,4.152-.03,4.142-2.312,1.181a12.307,12.307,0,0,0-2.5,1.456,1.123,1.123,0,0,0,.443,1.613,56.463,56.463,0,0,0,6.68.128c6.267,0,6.454-.01,6.769-.2a1.13,1.13,0,0,0,.423-.472,1.422,1.422,0,0,0-.167-1.21,24.443,24.443,0,0,0-2.45-1.338c-1.24-.63-2.292-1.19-2.332-1.249s-.079-1.918-.079-4.122c0-3.119.03-4.014.128-4.053.059-.02.541-.148,1.053-.3a13.388,13.388,0,0,0,3.9-1.9,12.055,12.055,0,0,0,4.958-9.8,11.682,11.682,0,0,0-1.19-5.293,12.981,12.981,0,0,1-1.24-6.277,11.284,11.284,0,0,1,.669-3.65c.394-1.161.384-1.564-.049-2.037l-.335-.364-3.306-.03c-1.82-.01-3.306-.059-3.306-.1a18.812,18.812,0,0,1,.718-2.8,31.3,31.3,0,0,1,2.883-2.1,18.119,18.119,0,0,0,2.8-2.086.71.71,0,0,0-.866-.944c-.394.157-5.224,3.443-5.667,3.866-.561.521-.718.915-1.063,2.607l-.315,1.535h-7.556l1.968-1.948c1.732-1.7,1.978-1.987,2.037-2.332.1-.551-.157-.964-1.043-1.643a11.316,11.316,0,0,0-3.689-1.81A13.394,13.394,0,0,0,104.892-511.747Zm3.748,1.673a10.009,10.009,0,0,1,2.981,1.4l.521.393-2.243,2.253c-2.125,2.125-2.273,2.253-2.617,2.253s-.364-.01-.423-.423c-.118-.856-.639-5.706-.639-5.942v-.256l.817.059A12.394,12.394,0,0,1,108.64-510.075Zm-3.611,2.824c.177,1.613.344,3.05.374,3.2.039.2.01.275-.079.275a28.9,28.9,0,0,1-2.391-2.253l-2.253-2.253.482-.354a10.172,10.172,0,0,1,3.394-1.535C104.685-510.173,104.764-509.691,105.029-507.251Zm-.8,4.7c-.03.029-1.466-.1-3.178-.285s-3.158-.354-3.207-.354c-.4,0,.561-2.4,1.407-3.532l.394-.521,2.322,2.312C103.249-503.65,104.262-502.578,104.232-502.548Zm-2.951,1.22c1.859.207,3.394.393,3.414.423s-1.112,1.19-2.509,2.588l-2.558,2.558-.236-.3a9.2,9.2,0,0,1-1.83-5.077c0-.492.03-.58.177-.58C97.828-501.712,99.421-501.535,101.281-501.329Zm14.8,31.581.03,4.221.3.433c.256.364.521.541,1.968,1.279l1.673.856H110.7l1.663-.846c1.505-.777,1.682-.9,1.938-1.3l.285-.443v-4.142c0-2.282.03-4.181.069-4.211a2.251,2.251,0,0,1,.728-.069h.669Z" transform="translate(-85.6 519.33)" fill="#fff"/>
    </g>
  </g>
</svg>
