<svg xmlns="http://www.w3.org/2000/svg" xmlns:xlink="http://www.w3.org/1999/xlink" width="40" height="40" viewBox="0 0 40 40">
  <defs>
    <filter id="Ellipse_9" x="0" y="0" width="40" height="40" filterUnits="userSpaceOnUse">
      <feOffset dy="3" input="SourceAlpha"/>
      <feGaussianBlur stdDeviation="3" result="blur"/>
      <feFlood flood-color="#ff6700"/>
      <feComposite operator="in" in2="blur"/>
      <feComposite in="SourceGraphic"/>
    </filter>
  </defs>
  <g id="filter-01" transform="translate(-273 -765)">
    <g transform="matrix(1, 0, 0, 1, 273, 765)" filter="url(#Ellipse_9)">
      <circle id="Ellipse_9-2" data-name="Ellipse 9" cx="11" cy="11" r="11" transform="translate(9 6)" fill="#fff"/>
    </g>
    <g id="filter-01-2" data-name="filter-01" transform="translate(151.294 541.388)">
      <path id="Path_24" data-name="Path 24" d="M188.45,294.153q-1.634,0-3.269,0a.194.194,0,0,0-.209.129,1.389,1.389,0,0,1-2.533,0,.192.192,0,0,0-.21-.131c-.281.008-.562,0-.843,0a.453.453,0,1,1,.006-.9c.291,0,.582,0,.873,0a.154.154,0,0,0,.163-.107,1.343,1.343,0,0,1,1.283-.839,1.328,1.328,0,0,1,1.27.833c.05.109.113.111.2.111h6.524a.47.47,0,0,1,.5.307.439.439,0,0,1-.3.569.953.953,0,0,1-.234.023Zm-5.245-.446a.493.493,0,0,0,.5.5.5.5,0,1,0,.008-1,.5.5,0,0,0-.5.506Z" transform="translate(-45.171 -56.698)" fill="#ff6700"/>
      <path id="Path_25" data-name="Path 25" d="M189.389,486.983q-1.161,0-2.322,0a.172.172,0,0,0-.187.118,1.391,1.391,0,0,1-2.545,0,.173.173,0,0,0-.19-.115c-.892,0-1.785,0-2.677,0h-.118a.462.462,0,0,1-.47-.453.454.454,0,0,1,.474-.446c.532-.005,1.066,0,1.6,0,.4,0,.809,0,1.213,0a.155.155,0,0,0,.165-.107,1.391,1.391,0,0,1,2.551-.006c.049.107.112.112.206.112q2.307,0,4.615,0a.468.468,0,0,1,.511.316.447.447,0,0,1-.457.584c-.513.006-1.026,0-1.539,0Zm-3.786-.951a.5.5,0,1,0,.5.5A.5.5,0,0,0,185.6,486.032Z" transform="translate(-45.173 -241.918)" fill="#ff6700"/>
      <path id="Path_26" data-name="Path 26" d="M188.048,389.55a1.41,1.41,0,0,1,.813-.855,1.39,1.39,0,0,1,1.791.735.163.163,0,0,0,.181.122c.3-.008.6,0,.9,0a.444.444,0,1,1,0,.886h-1.026a1.385,1.385,0,0,1-1.477.941,1.366,1.366,0,0,1-1.191-.941h-6.667a.789.789,0,0,1-.2-.017.443.443,0,0,1,.142-.869h6.733Zm1.828.445a.5.5,0,0,0-.5-.506.5.5,0,1,0,0,1.009.5.5,0,0,0,.506-.5Z" transform="translate(-45.137 -149.183)" fill="#ff6700"/>
    </g>
  </g>
</svg>
