<svg xmlns="http://www.w3.org/2000/svg" xmlns:xlink="http://www.w3.org/1999/xlink" width="68.936" height="70.305" viewBox="0 0 68.936 70.305">
  <defs>
    <filter id="Path_102" x="0" y="0" width="68.936" height="52.882" filterUnits="userSpaceOnUse">
      <feOffset dy="3" input="SourceAlpha"/>
      <feGaussianBlur stdDeviation="3.5" result="blur"/>
      <feFlood flood-color="#ff0087"/>
      <feComposite operator="in" in2="blur"/>
      <feComposite in="SourceGraphic"/>
    </filter>
    <filter id="Path_103" x="3.463" y="19.021" width="36.791" height="36.791" filterUnits="userSpaceOnUse">
      <feOffset dy="3" input="SourceAlpha"/>
      <feGaussianBlur stdDeviation="3.5" result="blur-2"/>
      <feFlood flood-color="#ff0087"/>
      <feComposite operator="in" in2="blur-2"/>
      <feComposite in="SourceGraphic"/>
    </filter>
    <filter id="Path_104" x="7.218" y="22.843" width="29.281" height="29.215" filterUnits="userSpaceOnUse">
      <feOffset dy="3" input="SourceAlpha"/>
      <feGaussianBlur stdDeviation="3.5" result="blur-3"/>
      <feFlood flood-color="#ff0087"/>
      <feComposite operator="in" in2="blur-3"/>
      <feComposite in="SourceGraphic"/>
    </filter>
    <filter id="Path_105" x="33.883" y="19.008" width="26.381" height="26.464" filterUnits="userSpaceOnUse">
      <feOffset dy="3" input="SourceAlpha"/>
      <feGaussianBlur stdDeviation="3.5" result="blur-4"/>
      <feFlood flood-color="#ff0087"/>
      <feComposite operator="in" in2="blur-4"/>
      <feComposite in="SourceGraphic"/>
    </filter>
    <filter id="Path_106" x="21.275" y="22.924" width="26.392" height="22.54" filterUnits="userSpaceOnUse">
      <feOffset dy="3" input="SourceAlpha"/>
      <feGaussianBlur stdDeviation="3.5" result="blur-5"/>
      <feFlood flood-color="#ff0087"/>
      <feComposite operator="in" in2="blur-5"/>
      <feComposite in="SourceGraphic"/>
    </filter>
    <filter id="Path_107" x="28.675" y="24.222" width="26.384" height="26.392" filterUnits="userSpaceOnUse">
      <feOffset dy="3" input="SourceAlpha"/>
      <feGaussianBlur stdDeviation="3.5" result="blur-6"/>
      <feFlood flood-color="#ff0087"/>
      <feComposite operator="in" in2="blur-6"/>
      <feComposite in="SourceGraphic"/>
    </filter>
    <filter id="Path_108" x="39.074" y="24.229" width="26.39" height="26.386" filterUnits="userSpaceOnUse">
      <feOffset dy="3" input="SourceAlpha"/>
      <feGaussianBlur stdDeviation="3.5" result="blur-7"/>
      <feFlood flood-color="#ff0087"/>
      <feComposite operator="in" in2="blur-7"/>
      <feComposite in="SourceGraphic"/>
    </filter>
    <filter id="Path_109" x="33.892" y="29.461" width="26.372" height="26.403" filterUnits="userSpaceOnUse">
      <feOffset dy="3" input="SourceAlpha"/>
      <feGaussianBlur stdDeviation="3.5" result="blur-8"/>
      <feFlood flood-color="#ff0087"/>
      <feComposite operator="in" in2="blur-8"/>
      <feComposite in="SourceGraphic"/>
    </filter>
    <filter id="Path_110" x="19.91" y="31.035" width="23.975" height="22.515" filterUnits="userSpaceOnUse">
      <feOffset dy="3" input="SourceAlpha"/>
      <feGaussianBlur stdDeviation="3.5" result="blur-9"/>
      <feFlood flood-color="#ff0087"/>
      <feComposite operator="in" in2="blur-9"/>
      <feComposite in="SourceGraphic"/>
    </filter>
    <filter id="Path_111" x="25.059" y="31.034" width="23.952" height="22.516" filterUnits="userSpaceOnUse">
      <feOffset dy="3" input="SourceAlpha"/>
      <feGaussianBlur stdDeviation="3.5" result="blur-10"/>
      <feFlood flood-color="#ff0087"/>
      <feComposite operator="in" in2="blur-10"/>
      <feComposite in="SourceGraphic"/>
    </filter>
    <filter id="Path_112" x="0" y="33.705" width="68.936" height="36.6" filterUnits="userSpaceOnUse">
      <feOffset dy="3" input="SourceAlpha"/>
      <feGaussianBlur stdDeviation="3.5" result="blur-11"/>
      <feFlood flood-color="#ff0087"/>
      <feComposite operator="in" in2="blur-11"/>
      <feComposite in="SourceGraphic"/>
    </filter>
  </defs>
  <g id="gamepad" transform="translate(3.5 519.655)">
    <g transform="matrix(1, 0, 0, 1, -3.5, -519.65)" filter="url(#Path_102)">
      <path id="Path_102-2" data-name="Path 102" d="M30.391-511.928c-.193.212-.2.3-.173,1.858.029,1.636.029,1.646.347,2.281a2.923,2.923,0,0,0,1.559,1.511l.529.25,3.465.048c3.783.048,3.821.058,4.274.635a1.706,1.706,0,0,1-.462,2.512c-.327.221-.366.221-3.369.221-3.2,0-3.908.058-4.572.385a3.606,3.606,0,0,0-1.492,1.54c-.241.51-.25.606-.279,2.512l-.029,1.993-.366.058a2.046,2.046,0,0,0-1.348,1.04,2.527,2.527,0,0,0-.2,1.213v.789H26.617l-.732-.626a13.561,13.561,0,0,0-1.28-.982l-.539-.356-.2-.934a4.516,4.516,0,0,0-2.281-3.427l-.578-.27H15.711l-.578.27a4.516,4.516,0,0,0-2.281,3.427l-.2.943-.741.491a11.865,11.865,0,0,0-4.466,6.112A15.75,15.75,0,0,0,7-483.417c0,2.6.01,2.724.193,2.926a.877.877,0,0,0,1.145.01c.173-.193.193-.385.221-3.292.048-3.494.106-3.841.837-5.41a10.158,10.158,0,0,1,6.632-5.554,12.236,12.236,0,0,1,4.659,0,10.692,10.692,0,0,1,4.457,2.474,7.479,7.479,0,0,0,.741.635c.1.048,2.233.087,5.121.087h4.957l.847-.751a9.712,9.712,0,0,1,3.764-2.233,9.863,9.863,0,0,1,11.965,5.342c.732,1.569.789,1.915.837,5.41.029,2.907.048,3.1.221,3.292a.712.712,0,0,0,.549.2c.77,0,.789-.1.789-3.215a15.477,15.477,0,0,0-.443-4.938,11.865,11.865,0,0,0-4.466-6.112l-.741-.491-.2-.943a4.516,4.516,0,0,0-2.281-3.427l-.578-.27H40.931l-.645.318a4.367,4.367,0,0,0-2.214,3.379l-.2.934-.549.366a15.079,15.079,0,0,0-1.29.972l-.722.626H33.663v-.789a2.527,2.527,0,0,0-.2-1.213,2.041,2.041,0,0,0-1.357-1.04l-.366-.067V-497.9c0-1.819.048-2.089.462-2.522.568-.6.52-.6,4.351-.645l3.513-.048.481-.26a3.8,3.8,0,0,0,1.521-1.6,2.638,2.638,0,0,0,.212-1.319,2.2,2.2,0,0,0-.337-1.473,3.309,3.309,0,0,0-1.531-1.482c-.433-.212-.558-.221-3.966-.27l-3.523-.048-.385-.26c-.664-.433-.8-.857-.8-2.455,0-1.222-.019-1.376-.2-1.608A.791.791,0,0,0,30.391-511.928Zm-9.6,13.88a3.07,3.07,0,0,1,1.463,1.973c.058.2.048.221-.106.164-.106-.048-.6-.183-1.1-.327a8.077,8.077,0,0,0-2.7-.241,8.077,8.077,0,0,0-2.7.241c-.5.144-.991.279-1.1.327-.154.058-.164.038-.106-.164a3.129,3.129,0,0,1,1.444-1.973A21.862,21.862,0,0,1,20.794-498.048Zm25.22,0a3.07,3.07,0,0,1,1.463,1.973c.058.2.048.221-.106.164-.106-.048-.6-.183-1.1-.318a11.865,11.865,0,0,0-5.8.116,6.4,6.4,0,0,1-.818.2,4.548,4.548,0,0,1,.655-1.473c.539-.732.8-.8,3.254-.8A9.855,9.855,0,0,1,46.013-498.048Zm-14.044,3.581c.106.106.154.337.154.77v.616h-2.31v-.616c0-.857.087-.924,1.155-.924C31.613-494.621,31.854-494.583,31.969-494.467Z" transform="translate(3.5 519.65)" fill="#fff"/>
    </g>
    <g transform="matrix(1, 0, 0, 1, -3.5, -519.65)" filter="url(#Path_103)">
      <path id="Path_103-2" data-name="Path 103" d="M49.764-314.5a7.93,7.93,0,0,0-6.594,6,9.273,9.273,0,0,0,0,3.783,7.937,7.937,0,0,0,5.554,5.737,6.378,6.378,0,0,0,2.147.221,6.378,6.378,0,0,0,2.147-.221,7.937,7.937,0,0,0,5.554-5.737,9.273,9.273,0,0,0,0-3.783,7.858,7.858,0,0,0-5.718-5.8A9.456,9.456,0,0,0,49.764-314.5Zm2.7,1.685a5.953,5.953,0,0,1,2.878,1.733,5.683,5.683,0,0,1,1.877,4.476,5.993,5.993,0,0,1-1.829,4.428,6.233,6.233,0,0,1-2.522,1.617,4.476,4.476,0,0,1-2,.26,4.476,4.476,0,0,1-2-.26,6.233,6.233,0,0,1-2.522-1.617,6.548,6.548,0,0,1-1.685-2.936,8.34,8.34,0,0,1,0-3.013,6.721,6.721,0,0,1,3.85-4.428A6.456,6.456,0,0,1,52.468-312.814Z" transform="translate(-29.01 341.07)" fill="#fff"/>
    </g>
    <g transform="matrix(1, 0, 0, 1, -3.5, -519.65)" filter="url(#Path_104)">
      <path id="Path_104-2" data-name="Path 104" d="M84.827-274.7a4.178,4.178,0,0,0-2.483,2.224,4.3,4.3,0,0,0,.414,4.168,4.137,4.137,0,0,0,1.752,1.4,2.906,2.906,0,0,0,1.617.279,2.906,2.906,0,0,0,1.617-.279,4.137,4.137,0,0,0,1.752-1.4,4.3,4.3,0,0,0,.414-4.168,4.081,4.081,0,0,0-1.925-1.973,2.986,2.986,0,0,0-1.7-.395A3.837,3.837,0,0,0,84.827-274.7Zm2.435,1.627a2.61,2.61,0,0,1-.019,4.688,2.074,2.074,0,0,1-1.117.212,2.231,2.231,0,0,1-1.829-.741,2.579,2.579,0,0,1,1.829-4.409A2.175,2.175,0,0,1,87.263-273.073Z" transform="translate(-64.27 305.19)" fill="#fff"/>
    </g>
    <g transform="matrix(1, 0, 0, 1, -3.5, -519.65)" filter="url(#Path_105)">
      <path id="Path_105-2" data-name="Path 105" d="M361.07-314.631a2.663,2.663,0,0,0-2.07,2.657,2.687,2.687,0,0,0,4.64,1.9,2.433,2.433,0,0,0,.732-2.079,2.514,2.514,0,0,0-.818-1.81A3.081,3.081,0,0,0,361.07-314.631Zm1.3,1.733a1.158,1.158,0,0,1,.481,1,.954.954,0,0,1-.327.722.817.817,0,0,1-.828.356.817.817,0,0,1-.828-.356.958.958,0,0,1-.327-.789A1.142,1.142,0,0,1,362.369-312.9Z" transform="translate(-314.62 341.2)" fill="#fff"/>
    </g>
    <g transform="matrix(1, 0, 0, 1, -3.5, -519.65)" filter="url(#Path_106)">
      <path id="Path_106-2" data-name="Path 106" d="M228.232-273.779a.761.761,0,0,0,.029,1.078l.231.241h4.447l.231-.241a.748.748,0,0,0,.019-1.088c-.221-.2-.3-.212-2.483-.212C228.463-274,228.434-274,228.232-273.779Z" transform="translate(-196.25 304.42)" fill="#fff"/>
    </g>
    <g transform="matrix(1, 0, 0, 1, -3.5, -519.65)" filter="url(#Path_107)">
      <path id="Path_107-2" data-name="Path 107" d="M307.055-260.465a2.621,2.621,0,0,0-2.156,2.7,2.509,2.509,0,0,0,1.376,2.368,2.059,2.059,0,0,0,1.328.279,2.211,2.211,0,0,0,1.2-.212,3.469,3.469,0,0,0,1.251-1.28,3.343,3.343,0,0,0,.106-2.089A2.773,2.773,0,0,0,307.055-260.465Zm1.2,1.713a1.25,1.25,0,0,1,.5,1.03,1.222,1.222,0,0,1-1.03,1.078,1.168,1.168,0,0,1-1.165-.6A1.17,1.17,0,0,1,308.259-258.751Z" transform="translate(-265.72 292.24)" fill="#fff"/>
    </g>
    <g transform="matrix(1, 0, 0, 1, -3.5, -519.65)" filter="url(#Path_108)">
      <path id="Path_108-2" data-name="Path 108" d="M415.063-260.4a2.721,2.721,0,0,0-1.376,4.543,2.2,2.2,0,0,0,1.944.789,2.042,2.042,0,0,0,1.338-.289,2.83,2.83,0,0,0,1.232-1.425,3.706,3.706,0,0,0-.058-2.05A2.8,2.8,0,0,0,415.063-260.4Zm1.02,1.579a1.155,1.155,0,0,1,.7,1.03,1.127,1.127,0,0,1-1.993.809.929.929,0,0,1-.318-.712,1.252,1.252,0,0,1,.77-1.145A1.057,1.057,0,0,1,416.084-258.819Z" transform="translate(-363.36 292.18)" fill="#fff"/>
    </g>
    <g transform="matrix(1, 0, 0, 1, -3.5, -519.65)" filter="url(#Path_109)">
      <path id="Path_109-2" data-name="Path 109" d="M360.676-205.9a2.541,2.541,0,0,0-1.569,2.233,2.546,2.546,0,0,0,1.434,2.676,2.728,2.728,0,0,0,3.812-1.463,3.6,3.6,0,0,0-.029-1.916,2.7,2.7,0,0,0-1.309-1.463A3.175,3.175,0,0,0,360.676-205.9Zm1.742,1.511a1.219,1.219,0,0,1,.366,1.579,1.159,1.159,0,0,1-2.156-.558,1.148,1.148,0,0,1,.462-.953A1.269,1.269,0,0,1,362.418-204.387Z" transform="translate(-314.7 243.05)" fill="#fff"/>
    </g>
    <g transform="matrix(1, 0, 0, 1, -3.5, -519.65)" filter="url(#Path_110)">
      <path id="Path_110-2" data-name="Path 110" d="M214.335-189.694a.806.806,0,0,0-.289,1.28c.173.173.318.193,1.28.193,1.213,0,1.357-.067,1.473-.645a.6.6,0,0,0-.183-.568c-.231-.27-.279-.279-1.194-.3A5.634,5.634,0,0,0,214.335-189.694Z" transform="translate(-183.43 228.27)" fill="#fff"/>
    </g>
    <g transform="matrix(1, 0, 0, 1, -3.5, -519.65)" filter="url(#Path_111)">
      <path id="Path_111-2" data-name="Path 111" d="M267.813-189.68a.778.778,0,0,0-.462.837c.135.549.27.606,1.463.606,1.271,0,1.473-.106,1.473-.751,0-.606-.231-.741-1.338-.76A4.466,4.466,0,0,0,267.813-189.68Z" transform="translate(-231.78 228.29)" fill="#fff"/>
    </g>
    <g transform="matrix(1, 0, 0, 1, -3.5, -519.65)" filter="url(#Path_112)">
      <path id="Path_112-2" data-name="Path 112" d="M7.241-161.759,7-161.528v4.38a39.521,39.521,0,0,0,.135,5.082c.655,3.4,3.658,5.66,7.518,5.66a7.041,7.041,0,0,0,5.41-2.137c.732-.78.982-1.213,2.945-5.131,1.916-3.812,2.589-4.957,3.08-5.227.279-.144.712-.164,4.88-.164s4.6.019,4.88.164c.491.27,1.165,1.415,3.08,5.227.982,1.954,1.935,3.793,2.118,4.081a7.075,7.075,0,0,0,2.984,2.57,9.021,9.021,0,0,0,6.488.038,7.368,7.368,0,0,0,3.908-3.783c.472-1.155.51-1.675.51-6.382v-4.38l-.241-.231a.75.75,0,0,0-.529-.241.75.75,0,0,0-.529.241l-.241.231v4.312c0,4.765-.039,5.121-.587,6.2A5.917,5.917,0,0,1,50.3-148.63a8,8,0,0,1-1.425.529,8.764,8.764,0,0,1-3.128.01,5.876,5.876,0,0,1-3.215-2.108c-.154-.221-1.049-1.916-1.983-3.764-2.753-5.419-2.994-5.795-4.062-6.324l-.655-.318H26.107l-.655.318c-1.068.529-1.309.9-4.062,6.324-.943,1.848-1.829,3.552-1.983,3.773a5.951,5.951,0,0,1-3.215,2.1,7.951,7.951,0,0,1-3.263-.048,5.7,5.7,0,0,1-4.255-4.129,38.413,38.413,0,0,1-.135-4.948v-4.312l-.241-.231A.75.75,0,0,0,7.77-162,.75.75,0,0,0,7.241-161.759Z" transform="translate(3.5 203.21)" fill="#fff"/>
    </g>
  </g>
</svg>
