<svg xmlns="http://www.w3.org/2000/svg" xmlns:xlink="http://www.w3.org/1999/xlink" width="71" height="71" viewBox="0 0 71 71">
  <defs>
    <filter id="Ellipse_28" x="0" y="0" width="71" height="71" filterUnits="userSpaceOnUse">
      <feOffset dy="3" input="SourceAlpha"/>
      <feGaussianBlur stdDeviation="5" result="blur"/>
      <feFlood flood-color="#ffe600"/>
      <feComposite operator="in" in2="blur"/>
      <feComposite in="SourceGraphic"/>
    </filter>
    <filter id="Path_174" x="11" y="17" width="47.514" height="36.159" filterUnits="userSpaceOnUse">
      <feOffset dy="3" input="SourceAlpha"/>
      <feGaussianBlur stdDeviation="3" result="blur-2"/>
      <feFlood flood-color="#ffe600"/>
      <feComposite operator="in" in2="blur-2"/>
      <feComposite in="SourceGraphic"/>
    </filter>
  </defs>
  <g id="gold" transform="translate(-160 -622)">
    <g transform="matrix(1, 0, 0, 1, 160, 622)" filter="url(#Ellipse_28)">
      <g id="Ellipse_28-2" data-name="Ellipse 28" transform="translate(15 12)" fill="none" stroke="#dadada" stroke-width="2">
        <circle cx="20.5" cy="20.5" r="20.5" stroke="none"/>
        <circle cx="20.5" cy="20.5" r="19.5" fill="none"/>
      </g>
    </g>
    <g id="gold-2" data-name="gold" transform="translate(180 1058.428)">
      <g transform="matrix(1, 0, 0, 1, -20, -436.43)" filter="url(#Path_174)">
        <path id="Path_174-2" data-name="Path 174" d="M9.762-413.4a1.567,1.567,0,0,0-.727,2.7l.254.225-.236.64a12.616,12.616,0,0,1-2.364,4.278,1.758,1.758,0,0,1-2.848-.081,7.864,7.864,0,0,1-.778-.963,5.014,5.014,0,0,1-.819-1.6,1.711,1.711,0,0,0,.721-.727,1.22,1.22,0,0,0,.173-.686,1.561,1.561,0,0,0-2.012-1.516A1.657,1.657,0,0,0,0-409.627a1.681,1.681,0,0,0,.882,1.4.572.572,0,0,1,.329.317c.035.1.709,2.07,1.5,4.376l1.436,4.2v3.742l.138.161.138.161H25.094l.138-.161.138-.161v-1.886l.006-1.885,1.488-4.353,1.493-4.353.283-.156a1.538,1.538,0,0,0,.392-2.5,1.467,1.467,0,0,0-1.8-.288,1.41,1.41,0,0,0-.715.755,1.587,1.587,0,0,0,.64,2l.144.092-.173.334a7.178,7.178,0,0,1-2.422,2.8,1.66,1.66,0,0,1-1.551.023c-1.078-.513-2.249-2.26-3.212-4.8l-.225-.594.311-.288A1.544,1.544,0,0,0,19-413.421a1.552,1.552,0,0,0-1.413,2.2,1.648,1.648,0,0,0,.79.8c.075.023.133.052.133.075,0,.1-.421,1.251-.68,1.88-.79,1.868-1.6,3.021-2.428,3.437a1.575,1.575,0,0,1-1.355-.029,7.9,7.9,0,0,1-2.739-3.483,13.127,13.127,0,0,1-.755-1.77c0-.04.069-.092.15-.11a1.793,1.793,0,0,0,.836-.894A1.57,1.57,0,0,0,9.762-413.4Zm.767,1.1a.64.64,0,0,1-.571,1.067.686.686,0,0,1-.525-.5.778.778,0,0,1,.213-.617A.684.684,0,0,1,10.529-412.3Zm8.937,0a.64.64,0,0,1-.571,1.067.686.686,0,0,1-.525-.5.778.778,0,0,1,.213-.617A.684.684,0,0,1,19.466-412.3ZM2-410.105a1.021,1.021,0,0,1,.2.317.633.633,0,0,1-.357.727.622.622,0,0,1-.83-.842A.633.633,0,0,1,2-410.105Zm26.224-.092a.637.637,0,0,1,.161,1.026.471.471,0,0,1-.421.15.632.632,0,1,1-.012-1.263A.821.821,0,0,1,28.225-410.2Zm-18.054,1.424a11.6,11.6,0,0,0,2.814,4.105c1.6,1.2,3.027.871,4.394-1.009a16.6,16.6,0,0,0,1.39-2.652c.086-.236.213-.548.277-.692l.11-.259.167.432a19.271,19.271,0,0,0,1.384,2.681,7.322,7.322,0,0,0,.94,1.153,2.882,2.882,0,0,0,4.376.2c.179-.162.329-.277.323-.248s-.4,1.2-.882,2.612l-.882,2.566H4.942l-.19-.548c-.1-.3-.484-1.424-.853-2.5s-.657-1.943-.646-1.943a2.549,2.549,0,0,1,.3.231,4.292,4.292,0,0,0,.709.45,1.613,1.613,0,0,0,1.038.213,1.69,1.69,0,0,0,1.067-.219,3.047,3.047,0,0,0,.986-.75,8.072,8.072,0,0,0,.865-1.049,18.586,18.586,0,0,0,1.407-2.756,3.242,3.242,0,0,1,.277-.594A5.921,5.921,0,0,1,10.171-408.773Zm14.277,11.227v1.384H5.074v-2.768H24.448Z" transform="translate(20 436.43)" fill="#dadada"/>
      </g>
    </g>
  </g>
</svg>
