<svg xmlns="http://www.w3.org/2000/svg" xmlns:xlink="http://www.w3.org/1999/xlink" width="407" height="257.343" viewBox="0 0 407 257.343">
  <defs>
    <filter id="Path_174" x="0" y="0" width="407" height="257.343" filterUnits="userSpaceOnUse">
      <feOffset dy="3" input="SourceAlpha"/>
      <feGaussianBlur stdDeviation="3" result="blur"/>
      <feFlood flood-color="#ffe600"/>
      <feComposite operator="in" in2="blur"/>
      <feComposite in="SourceGraphic"/>
    </filter>
  </defs>
  <g id="gold-big" transform="translate(9 419.428)">
    <g transform="matrix(1, 0, 0, 1, -9, -419.43)" filter="url(#Path_174)">
      <path id="Path_174-2" data-name="Path 174" d="M128.666-413.027c-16.492,3.192-22.192,24.472-9.576,35.568l3.344,2.964-3.116,8.436c-9.348,25.459-20.824,46.131-31.16,56.391-12.54,12.464-24.624,12.084-37.543-1.064a103.666,103.666,0,0,1-10.26-12.691c-6-8.969-12.008-20.748-10.792-21.128,2.888-.988,7.524-5.625,9.5-9.576a16.079,16.079,0,0,0,2.28-9.045A20.57,20.57,0,0,0,14.82-383.159C6.612-380.727,0-371.911,0-363.323,0-356.1,5.016-348.2,11.628-344.855c2.432,1.215,3.724,2.432,4.332,4.18.456,1.292,9.348,27.284,19.836,57.682l18.924,55.328v49.324l1.824,2.128,1.824,2.128h272.38l1.824-2.128,1.824-2.128v-24.852l.076-24.851,19.608-57.379L373.763-342.8l3.724-2.052c12.92-7.145,15.428-22.724,5.168-32.985-6.688-6.687-15.352-8.131-23.712-3.8a18.588,18.588,0,0,0-9.424,9.955c-4.256,9.576-.912,20.063,8.436,26.372l1.9,1.216-2.28,4.408c-8.056,15.731-22.344,32.224-31.92,36.859-7.068,3.5-13.68,3.573-20.444.3-14.212-6.763-29.64-29.791-42.331-63.307l-2.964-7.827,4.1-3.8c14.364-13.072,5.7-35.871-13.6-35.871a20.462,20.462,0,0,0-18.62,28.955c1.824,4.256,7.22,9.728,10.412,10.488.988.3,1.748.684,1.748.989,0,1.292-5.548,16.492-8.968,24.777-10.412,24.623-21.128,39.822-32,45.294-5.092,2.584-11.932,2.432-17.86-.379-11.02-5.32-24.016-21.889-36.1-45.9-4.256-8.437-9.956-21.889-9.956-23.333,0-.531.912-1.215,1.976-1.444,3.42-.911,9.2-7.067,11.02-11.779C157.7-400.562,144.474-416.142,128.666-413.027Zm10.108,14.441c5.7,5.4.3,15.5-7.524,14.06a9.041,9.041,0,0,1-6.916-6.612c-.456-2.508.912-6.537,2.812-8.132C130.338-401.93,135.582-401.627,138.774-398.586Zm117.8,0c5.7,5.4.3,15.5-7.524,14.06a9.041,9.041,0,0,1-6.916-6.612c-.456-2.508.912-6.537,2.812-8.132C248.136-401.93,253.38-401.627,256.572-398.586Zm-230.2,28.955a13.455,13.455,0,0,1,2.584,4.18c1.14,3.5-.912,7.676-4.712,9.576a8.2,8.2,0,0,1-10.944-11.1A8.344,8.344,0,0,1,26.372-369.631Zm345.643-1.215a8.4,8.4,0,0,1,2.128,13.528c-1.52,1.6-2.66,1.976-5.548,1.976-11.552,0-11.628-15.656-.152-16.644A10.826,10.826,0,0,1,372.015-370.847ZM134.062-352.075c10.868,24.091,25.46,45.372,37.088,54.111,21.052,15.808,39.9,11.476,57.911-13.3,4.94-6.915,14.744-25.535,18.316-34.96,1.14-3.115,2.812-7.219,3.648-9.119l1.444-3.42,2.2,5.7a253.987,253.987,0,0,0,18.24,35.34,96.5,96.5,0,0,0,12.388,15.2c18.772,18.62,38.835,19.532,57.683,2.661,2.356-2.129,4.332-3.647,4.256-3.269,0,.3-5.244,15.808-11.628,34.427l-11.628,33.82H65.131l-2.508-7.22c-1.292-3.951-6.384-18.772-11.248-32.908-4.788-14.06-8.664-25.611-8.512-25.611a33.612,33.612,0,0,1,3.952,3.039,56.558,56.558,0,0,0,9.348,5.928c5.472,2.736,6,2.812,13.68,2.812,7.752,0,8.284-.076,14.06-2.888,4.94-2.356,7.3-4.179,13-9.879a106.43,106.43,0,0,0,11.4-13.832c5.4-8.132,14.06-25,18.544-36.328,1.824-4.484,3.5-8.056,3.648-7.828A78.005,78.005,0,0,1,134.062-352.075Zm188.173,147.97v18.239H66.879v-36.479H322.235Z" transform="translate(9 419.43)" fill="#dadada"/>
    </g>
  </g>
</svg>
