<svg width="34" height="34" viewBox="0 0 34 34" fill="none" xmlns="http://www.w3.org/2000/svg">
<g filter="url(#filter0_d_1:31)">
<path d="M17 25C23.0751 25 28 20.0751 28 14C28 7.92487 23.0751 3 17 3C10.9249 3 6 7.92487 6 14C6 20.0751 10.9249 25 17 25Z" fill="white"/>
<g clip-path="url(#clip0_1:31)">
<path d="M19.5 8H19.472C18.9434 8.00254 18.4238 8.13671 17.9601 8.39039C17.4964 8.64407 17.1032 9.00927 16.816 9.453C16.5279 9.02062 16.1435 8.66088 15.693 8.402C15.2268 8.13434 14.6975 7.99624 14.16 8.002H14.132C13.2989 8.00964 12.5024 8.34591 11.9159 8.93767C11.3294 9.52943 11.0002 10.3288 11 11.162C11.0698 12.5035 11.535 13.7944 12.337 14.872C13.6316 16.5027 15.1379 17.9535 16.816 19.186C18.4941 17.9535 20.0004 16.5027 21.295 14.872C22.097 13.7944 22.5622 12.5035 22.632 11.162C22.6323 10.3285 22.3034 9.52857 21.7168 8.93638C21.1302 8.34419 20.3335 8.00765 19.5 8V8ZM20.663 14.409C19.5456 15.8301 18.253 17.1042 16.816 18.201C15.3791 17.1033 14.0865 15.8286 12.969 14.407C12.2657 13.4641 11.8535 12.3362 11.783 11.162C11.7817 10.5351 12.0285 9.93325 12.4696 9.48785C12.9107 9.04245 13.5102 8.78976 14.137 8.785H14.162C14.5644 8.78472 14.9601 8.88803 15.311 9.085C15.6548 9.27907 15.9465 9.55357 16.161 9.885C16.2324 9.99415 16.3298 10.0838 16.4445 10.1458C16.5592 10.2079 16.6876 10.2404 16.818 10.2404C16.9484 10.2404 17.0768 10.2079 17.1915 10.1458C17.3062 10.0838 17.4036 9.99415 17.475 9.885C17.6903 9.5542 17.9818 9.27986 18.325 9.085C18.6759 8.88803 19.0716 8.78472 19.474 8.785H19.499C20.1262 8.78923 20.7262 9.04169 21.1677 9.48715C21.6092 9.93261 21.8563 10.5348 21.855 11.162C21.7786 12.3362 21.3647 13.4634 20.663 14.408V14.409Z" fill="#FF6700"/>
</g>
</g>
<defs>
<filter id="filter0_d_1:31" x="0" y="0" width="34" height="34" filterUnits="userSpaceOnUse" color-interpolation-filters="sRGB">
<feFlood flood-opacity="0" result="BackgroundImageFix"/>
<feColorMatrix in="SourceAlpha" type="matrix" values="0 0 0 0 0 0 0 0 0 0 0 0 0 0 0 0 0 0 127 0" result="hardAlpha"/>
<feOffset dy="3"/>
<feGaussianBlur stdDeviation="3"/>
<feColorMatrix type="matrix" values="0 0 0 0 1 0 0 0 0 0.403922 0 0 0 0 0 0 0 0 1 0"/>
<feBlend mode="normal" in2="BackgroundImageFix" result="effect1_dropShadow_1:31"/>
<feBlend mode="normal" in="SourceGraphic" in2="effect1_dropShadow_1:31" result="shape"/>
</filter>
<clipPath id="clip0_1:31">
<rect width="11.632" height="11.185" fill="white" transform="translate(11 8)"/>
</clipPath>
</defs>
</svg>
