<svg xmlns="http://www.w3.org/2000/svg" width="35.332" height="33.973" viewBox="0 0 35.332 33.973">
  <path id="like" d="M29.194,3.937h-.085a9.664,9.664,0,0,0-8.069,4.416A10.214,10.214,0,0,0,17.63,5.16a9.155,9.155,0,0,0-4.657-1.222h-.085a9.6,9.6,0,0,0-9.512,9.6,20.674,20.674,0,0,0,4.06,11.271C12.548,31.8,21.041,37.91,21.041,37.91S29.534,31.8,34.647,24.805a20.674,20.674,0,0,0,4.06-11.271A9.6,9.6,0,0,0,29.194,3.937ZM32.728,23.4c-3.618,4.952-9.13,9.521-11.687,11.517-2.556-2-8.069-6.574-11.687-11.525a18.323,18.323,0,0,1-3.6-9.861A7.206,7.206,0,0,1,12.9,6.324h.076a7.121,7.121,0,0,1,3.491.917,7.421,7.421,0,0,1,2.582,2.421,2.386,2.386,0,0,0,3.992,0,7.5,7.5,0,0,1,2.582-2.421,7.121,7.121,0,0,1,3.491-.917h.076a7.206,7.206,0,0,1,7.151,7.211A18.555,18.555,0,0,1,32.728,23.4Z" transform="translate(-3.375 -3.938)" fill="#eed5c4"/>
</svg>
