<svg width="34" height="34" viewBox="0 0 34 34" fill="none" xmlns="http://www.w3.org/2000/svg">
<g filter="url(#filter0_d_1:7)">
<path d="M17 25C23.0751 25 28 20.0751 28 14C28 7.92487 23.0751 3 17 3C10.9249 3 6 7.92487 6 14C6 20.0751 10.9249 25 17 25Z" fill="white"/>
</g>
<path d="M20.111 11.889C20.111 9.74 17.848 8 15.055 8C12.262 8 10 9.74 10 11.889C10.0138 12.7244 10.344 13.5235 10.924 14.125C10.6996 14.6066 10.4061 15.053 10.053 15.45C10.0268 15.4777 10.0095 15.5125 10.0031 15.5501C9.99666 15.5876 10.0015 15.6262 10.017 15.661C10.0315 15.6959 10.0561 15.7257 10.0876 15.7465C10.1192 15.7674 10.1562 15.7783 10.194 15.778C10.9539 15.7703 11.6981 15.5605 12.35 15.17C13.194 15.5747 14.1189 15.7826 15.055 15.778C17.848 15.778 20.111 14.037 20.111 11.889ZM23.076 17.236C23.6566 16.6349 23.9869 15.8356 24 15C23.9265 14.1439 23.5823 13.3334 23.0172 12.6861C22.452 12.0388 21.6954 11.5883 20.857 11.4C20.8787 11.5621 20.8894 11.7255 20.889 11.889C20.889 14.463 18.271 16.556 15.056 16.556C14.7987 16.5543 14.5417 16.5389 14.286 16.51C14.787 17.2791 15.4808 17.9036 16.2982 18.3211C17.1156 18.7387 18.0282 18.9348 18.945 18.89C19.8812 18.8958 20.8064 18.6879 21.65 18.282C22.3019 18.6725 23.0461 18.8823 23.806 18.89C23.8437 18.8901 23.8806 18.879 23.9121 18.8582C23.9436 18.8374 23.9683 18.8077 23.983 18.773C23.9976 18.738 24.002 18.6996 23.9956 18.6623C23.9892 18.6249 23.9724 18.5901 23.947 18.562C23.5931 18.1652 23.2996 17.7184 23.076 17.236V17.236Z" fill="#FF6700"/>
<defs>
<filter id="filter0_d_1:7" x="0" y="0" width="34" height="34" filterUnits="userSpaceOnUse" color-interpolation-filters="sRGB">
<feFlood flood-opacity="0" result="BackgroundImageFix"/>
<feColorMatrix in="SourceAlpha" type="matrix" values="0 0 0 0 0 0 0 0 0 0 0 0 0 0 0 0 0 0 127 0" result="hardAlpha"/>
<feOffset dy="3"/>
<feGaussianBlur stdDeviation="3"/>
<feColorMatrix type="matrix" values="0 0 0 0 1 0 0 0 0 0.403922 0 0 0 0 0 0 0 0 1 0"/>
<feBlend mode="normal" in2="BackgroundImageFix" result="effect1_dropShadow_1:7"/>
<feBlend mode="normal" in="SourceGraphic" in2="effect1_dropShadow_1:7" result="shape"/>
</filter>
</defs>
</svg>
