<svg xmlns="http://www.w3.org/2000/svg" xmlns:xlink="http://www.w3.org/1999/xlink" width="142" height="142" viewBox="0 0 142 142">
  <defs>
    <filter id="Icon_ionic-ios-mail-open" x="25" y="18" width="92.965" height="98.501" filterUnits="userSpaceOnUse">
      <feOffset dy="3" input="SourceAlpha"/>
      <feGaussianBlur stdDeviation="3" result="blur"/>
      <feFlood flood-color="#1f55ff"/>
      <feComposite operator="in" in2="blur"/>
      <feComposite in="SourceGraphic"/>
    </filter>
    <filter id="Ellipse_18" x="0" y="0" width="142" height="142" filterUnits="userSpaceOnUse">
      <feOffset dy="3" input="SourceAlpha"/>
      <feGaussianBlur stdDeviation="3" result="blur-2"/>
      <feFlood flood-color="#e02070"/>
      <feComposite operator="in" in2="blur-2"/>
      <feComposite in="SourceGraphic"/>
    </filter>
  </defs>
  <g id="mail" transform="translate(-120 -307)">
    <g transform="matrix(1, 0, 0, 1, 120, 307)" filter="url(#Icon_ionic-ios-mail-open)">
      <path id="Icon_ionic-ios-mail-open-2" data-name="Icon ionic-ios-mail-open" d="M73.523,33.008c-.692-.692-27.385-27.921-27.385-27.921A9.5,9.5,0,0,0,32.576,5.1S6,32.178,5.191,33.025A6.951,6.951,0,0,0,3.375,37.54V74.215a5.552,5.552,0,0,0,5.536,5.536H69.8a5.552,5.552,0,0,0,5.536-5.536V37.367A6.658,6.658,0,0,0,73.523,33.008Zm-3.356,7.318L56.138,55a.334.334,0,0,0,0,.484L69.164,69.354a2.245,2.245,0,0,1,0,3.183,2.255,2.255,0,0,1-3.183,0L39.859,44.65a.681.681,0,0,0-1,0L12.751,72.52a2.255,2.255,0,0,1-3.183,0,2.245,2.245,0,0,1,0-3.183L22.594,55.462a.368.368,0,0,0,0-.484L8.513,40.308C6.835,38.6,8.1,34.115,11.3,34.115H67.417C70.271,34.1,71.845,38.63,70.167,40.326Z" transform="translate(32.12 23.25)" fill="none" stroke="#fff" stroke-width="3"/>
    </g>
    <g transform="matrix(1, 0, 0, 1, 120, 307)" filter="url(#Ellipse_18)">
      <g id="Ellipse_18-2" data-name="Ellipse 18" transform="translate(9 6)" fill="none" stroke="#e02070" stroke-width="3">
        <circle cx="62" cy="62" r="62" stroke="none"/>
        <circle cx="62" cy="62" r="60.5" fill="none"/>
      </g>
    </g>
  </g>
</svg>
