<svg xmlns="http://www.w3.org/2000/svg" xmlns:xlink="http://www.w3.org/1999/xlink" width="28.402" height="28.907" viewBox="0 0 28.402 28.907">
  <defs>
    <filter id="Path_146" x="0" y="0" width="28.402" height="28.907" filterUnits="userSpaceOnUse">
      <feOffset dy="3" input="SourceAlpha"/>
      <feGaussianBlur stdDeviation="3" result="blur"/>
      <feFlood flood-color="#ff0075" flood-opacity="0.349"/>
      <feComposite operator="in" in2="blur"/>
      <feComposite in="SourceGraphic"/>
    </filter>
  </defs>
  <g id="member" transform="translate(3.608 -1.748)">
    <g transform="matrix(1, 0, 0, 1, -3.61, 1.75)" filter="url(#Path_146)">
      <path id="Path_146-2" data-name="Path 146" d="M16.886,16.14c-.419-.15-1.1-.157-1.405-.273a1.986,1.986,0,0,1-.65-.3,4.019,4.019,0,0,1-.108-1.065,1.721,1.721,0,0,0,.37-.523,5.816,5.816,0,0,0,.179-1.028s.247.1.344-.389c.082-.426.239-.65.2-.964s-.217-.239-.217-.239a2.8,2.8,0,0,0,.217-1.4A2.237,2.237,0,0,0,13.4,7.748,2.244,2.244,0,0,0,10.98,9.957a2.841,2.841,0,0,0,.213,1.4s-.176-.075-.217.239.112.538.2.964c.1.5.344.389.344.389a5.872,5.872,0,0,0,.179,1.028,1.721,1.721,0,0,0,.37.523,4.019,4.019,0,0,1-.108,1.065,1.911,1.911,0,0,1-.65.3c-.3.116-.983.131-1.405.28a2.638,2.638,0,0,0-1.712,2.512h10.4A2.633,2.633,0,0,0,16.886,16.14Z" transform="translate(0.81 -1.75)" fill="#fff"/>
    </g>
    <path id="Path_147" data-name="Path 147" d="M6.27,15.94a2.538,2.538,0,0,0,1.248-.348c-.579-.878-.265-1.9-.385-2.859a1.577,1.577,0,0,0-1.746-1.525H5.373a1.582,1.582,0,0,0-1.731,1.525c-.12.953.213,2.093-.381,2.859a2.348,2.348,0,0,0,1.252.31h0a1.893,1.893,0,0,1-.037.628.944.944,0,0,1-.449.206,8.673,8.673,0,0,0-.968.269,1.574,1.574,0,0,0-.845,1.39h3a2.685,2.685,0,0,1,1.2-1.114,2.51,2.51,0,0,1,.923-.194s.142-.224-.325-.31a3.186,3.186,0,0,1-.718-.25C6.222,16.445,6.27,15.94,6.27,15.94Z" transform="translate(0 -1.62)" fill="#fff"/>
    <path id="Path_148" data-name="Path 148" d="M25.056,15.94a2.538,2.538,0,0,1-1.248-.348c.579-.878.265-1.9.385-2.859a1.577,1.577,0,0,1,1.746-1.525h.015a1.582,1.582,0,0,1,1.731,1.525c.12.953-.213,2.093.381,2.859a2.348,2.348,0,0,1-1.252.31h0a1.893,1.893,0,0,0,.037.628.944.944,0,0,0,.449.206,8.673,8.673,0,0,1,.968.269,1.574,1.574,0,0,1,.845,1.39h-3a2.685,2.685,0,0,0-1.2-1.114,2.51,2.51,0,0,0-.923-.194s-.142-.224.325-.31a3.186,3.186,0,0,0,.718-.25C25.1,16.445,25.056,15.94,25.056,15.94Z" transform="translate(-10.114 -1.62)" fill="#fff"/>
  </g>
</svg>
