<svg xmlns="http://www.w3.org/2000/svg" xmlns:xlink="http://www.w3.org/1999/xlink" width="67.632" height="72.679" viewBox="0 0 67.632 72.679">
  <defs>
    <filter id="Path_133" x="14.451" y="0" width="53.181" height="56.45" filterUnits="userSpaceOnUse">
      <feOffset dy="3" input="SourceAlpha"/>
      <feGaussianBlur stdDeviation="3.5" result="blur"/>
      <feFlood flood-color="#d3207f"/>
      <feComposite operator="in" in2="blur"/>
      <feComposite in="SourceGraphic"/>
    </filter>
    <filter id="Path_134" x="23.03" y="17.348" width="27.228" height="27.25" filterUnits="userSpaceOnUse">
      <feOffset dy="3" input="SourceAlpha"/>
      <feGaussianBlur stdDeviation="3.5" result="blur-2"/>
      <feFlood flood-color="#d3207f"/>
      <feComposite operator="in" in2="blur-2"/>
      <feComposite in="SourceGraphic"/>
    </filter>
    <filter id="Path_135" x="19.431" y="22.905" width="25.283" height="25.239" filterUnits="userSpaceOnUse">
      <feOffset dy="3" input="SourceAlpha"/>
      <feGaussianBlur stdDeviation="3.5" result="blur-3"/>
      <feFlood flood-color="#d3207f"/>
      <feComposite operator="in" in2="blur-3"/>
      <feComposite in="SourceGraphic"/>
    </filter>
    <filter id="Path_136" x="0" y="25.631" width="65.871" height="47.047" filterUnits="userSpaceOnUse">
      <feOffset dy="3" input="SourceAlpha"/>
      <feGaussianBlur stdDeviation="3.5" result="blur-4"/>
      <feFlood flood-color="#d3207f"/>
      <feComposite operator="in" in2="blur-4"/>
      <feComposite in="SourceGraphic"/>
    </filter>
  </defs>
  <g id="mic" transform="translate(-14.451 519.35)">
    <g transform="matrix(1, 0, 0, 1, 14.45, -519.35)" filter="url(#Path_133)">
      <path id="Path_133-2" data-name="Path 133" d="M187.9-511.714a10.917,10.917,0,0,0-2.674.918c-.928.464-1.161.666-1.231,1.09a.568.568,0,0,0,.2.605.94.94,0,0,0,.5.262,5.651,5.651,0,0,0,1.292-.5,7.834,7.834,0,0,1,4.229-.878,7.118,7.118,0,0,1,3.583.878,8.6,8.6,0,0,1,3.764,3.522,8.81,8.81,0,0,1-4.824,12.646l-.555.182-5.379-5.379-5.389-5.389.172-.545a9.744,9.744,0,0,1,1.1-2.2c.414-.606.444-.888.161-1.241a.827.827,0,0,0-.969-.262,7.333,7.333,0,0,0-1.706,2.806l-.212.545-.606.02a2.363,2.363,0,0,0-2.22,1.4,2.681,2.681,0,0,0,.626,3.088l.444.454-5,5.642c-2.745,3.1-5.026,5.743-5.066,5.884a.857.857,0,0,0,.5.908.519.519,0,0,0,.6-.03c.2-.1,2.23-2.311,5.228-5.7l4.895-5.541,3.764,3.754c2.059,2.069,3.754,3.785,3.754,3.815s-3.361,3.048-7.458,6.691c-7.973,7.065-7.812,6.9-7.428,7.489a.739.739,0,0,0,.959.313c.161-.061,3.633-3.088,7.721-6.711l7.428-6.6.525.495a2.511,2.511,0,0,0,2.119.818,2.159,2.159,0,0,0,1.585-.706,2.335,2.335,0,0,0,.706-1.756v-.605l.535-.182a10.863,10.863,0,0,0,3.563-2.261,10.216,10.216,0,0,0,3.169-7.489,10.36,10.36,0,0,0-8.4-10.244A14.871,14.871,0,0,0,187.9-511.714Zm-2.241,14.523c5.753,5.743,5.773,5.773,5.773,6.177a.889.889,0,0,1-.9.949c-.343,0-.646-.283-6.187-5.833-5.359-5.349-5.833-5.854-5.833-6.156a1.357,1.357,0,0,1,.111-.535,1.07,1.07,0,0,1,.979-.414C179.8-502.974,181.545-501.3,185.663-497.191Z" transform="translate(-143.19 519.35)" fill="#fff"/>
    </g>
    <g transform="matrix(1, 0, 0, 1, 14.45, -519.35)" filter="url(#Path_134)">
      <path id="Path_134-2" data-name="Path 134" d="M256.1-339.724a10.98,10.98,0,0,0-2.876,2.927,3.456,3.456,0,0,0-.081,1.029,1.98,1.98,0,0,0,1.181,1.776,2.227,2.227,0,0,0,2.019.071,13,13,0,0,0,2.775-2.695,2.315,2.315,0,0,0-.323-2.563A2.213,2.213,0,0,0,256.1-339.724Z" transform="translate(-219.61 364.81)" fill="#fff"/>
    </g>
    <g transform="matrix(1, 0, 0, 1, 14.45, -519.35)" filter="url(#Path_135)">
      <path id="Path_135-2" data-name="Path 135" d="M218.843-284.8a2.169,2.169,0,0,0-.706,3.563,1.814,1.814,0,0,0,1.474.575,2.022,2.022,0,0,0,1.958-1.241,2.123,2.123,0,0,0-1.968-3A2.856,2.856,0,0,0,218.843-284.8Z" transform="translate(-187.55 315.31)" fill="#fff"/>
    </g>
    <g transform="matrix(1, 0, 0, 1, 14.45, -519.35)" filter="url(#Path_136)">
      <path id="Path_136-2" data-name="Path 136" d="M37.491-257.738c-.252.172-8.77,9.749-9.043,10.153a.822.822,0,0,0,.151,1.05c.2.182.172.212-1.564,1.948a22.034,22.034,0,0,0-1.918,2.1,2.162,2.162,0,0,0,.474,2.331,2.6,2.6,0,0,0,1.625.626c.464,0,.545.1.626.706a2.364,2.364,0,0,0,1.4,2.079l.5.242H48.6c20.649,0,19.277-.04,19.539.6a.785.785,0,0,1-.444,1c-.2.091-3.421.121-13.352.121h-13.1l-.172-.293a2.464,2.464,0,0,0-1.251-1.009,30.828,30.828,0,0,0-5.107,0,2.464,2.464,0,0,0-1.251,1.009l-.172.293H30.305c-2.463,0-3.018.03-3.2.151a.825.825,0,0,0,.131,1.352,20.831,20.831,0,0,0,3.169.111h2.917l.151.272a2.1,2.1,0,0,0,.939.878,22.544,22.544,0,0,0,5.712,0,2.133,2.133,0,0,0,.939-.868l.141-.283,13.4-.02,13.4-.03.495-.262a2.429,2.429,0,0,0,0-4.32l-.495-.262-19.034-.05c-10.547-.03-19.085-.091-19.166-.141a1.883,1.883,0,0,1-.414-.868c0-.081.262-.091.838-.04a4.775,4.775,0,0,0,3.653-1.12l.525-.444.2.2a.907.907,0,0,0,1.06.071c.363-.242,6.066-5.309,6.278-5.581a.775.775,0,0,0-.6-1.292c-.414.01-.172-.172-3.482,2.765-1.393,1.241-2.574,2.271-2.6,2.291s-1.181-1.09-2.533-2.442c-2.251-2.251-2.452-2.483-2.321-2.644.081-.1,1.968-2.241,4.209-4.764,3.835-4.34,4.057-4.6,4.057-4.965A.746.746,0,0,0,37.491-257.738Zm-4.431,16.007a3.656,3.656,0,0,1-1.595.9,7.524,7.524,0,0,1-2.483-.111c-1.968-.232-2.412-.353-2.412-.686a14.532,14.532,0,0,1,1.685-1.857l1.7-1.7,1.635,1.635C33.141-242,33.212-241.9,33.061-241.731Zm6.479,7.4c.3.293.313.363.061.666-.192.242-.212.242-2.331.242s-2.14,0-2.331-.242c-.252-.3-.242-.373.061-.666.242-.252.252-.252,2.271-.252S39.3-234.586,39.54-234.333Z" transform="translate(-14.45 291.02)" fill="#fff"/>
    </g>
  </g>
</svg>
