<svg xmlns="http://www.w3.org/2000/svg" width="35.968" height="35.983" viewBox="0 0 35.968 35.983">
  <g id="music-gutiar" transform="translate(-50.62 -164.83)">
    <path id="Path_61" data-name="Path 61" d="M116.829,201.608l-1.167,1.3c.624.779.7,1.082.353,1.411s-.656.233-1.368-.375l-.488.53c.606.762.675,1.016.346,1.355s-.623.271-1.362-.328l-5.671,5.671a8.157,8.157,0,0,1,1.076,2.81,5.018,5.018,0,0,1-2.3,5.3c-.289.2-.6.375-.9.543a.7.7,0,1,1-.739-1.184c.187-.134.4-.247.6-.366a3.694,3.694,0,0,0,1.849-4.476c-.151-.562-.394-1.094-.613-1.686-.133.118-.212.182-.281.252q-2.646,2.644-5.284,5.3a.843.843,0,0,0-.221.51,3.918,3.918,0,1,1-4.052-4.016.758.758,0,0,0,.468-.156q2.757-2.727,5.493-5.484a.561.561,0,0,0,.058-.084c-2.407-1.482-4.7-1.231-6.068,1.131a9.989,9.989,0,0,1-4.393,4.151,10.983,10.983,0,0,1-2.256.739,5.659,5.659,0,0,0-4.451,4.683,6.87,6.87,0,0,0,.857,4.3,11.04,11.04,0,0,0,6.706,5.714,5.643,5.643,0,0,0,7.366-4.449c.064-.3.13-.595.217-.885a.7.7,0,1,1,1.341.382,18.546,18.546,0,0,1-.677,2.316,6.88,6.88,0,0,1-8.8,3.926,11.986,11.986,0,0,1-8.243-8.711,6.947,6.947,0,0,1,5.486-8.668,8.149,8.149,0,0,0,5.479-3.981,5.541,5.541,0,0,1,3.179-2.757,6.079,6.079,0,0,1,4.39.539c.317.149.621.322.988.514l5.526-5.593a7.285,7.285,0,0,1-.375-.961c-.028-.116.106-.307.214-.415.329-.326.614-.258,1.223.252l.54-.468c-.52-.638-.585-.974-.265-1.294s.656-.257,1.342.3c.293-.318.584-.656.9-.965a.687.687,0,0,1,1.08-.007c.884.871,1.759,1.752,2.634,2.632a3.461,3.461,0,0,1,.257.326Zm-6.346,4.338-1.623-1.638L98.595,214.575a8.863,8.863,0,0,1,.889.715,11.063,11.063,0,0,1,.745.915Zm-13.742,14.63a2.507,2.507,0,1,0-2.514-2.529A2.507,2.507,0,0,0,96.741,220.575Zm15.177-19.326-.486.4,1.693,1.706.468-.43Zm-1.554,1.523-.445.418,1.673,1.693.444-.444Zm4.7-1.3-1.7-1.7-.39.375,1.7,1.708Z" transform="translate(-30.241 -30.034)" fill="#f5f5f5"/>
    <path id="Path_62" data-name="Path 62" d="M50.62,226.84c.027-.076.058-.15.08-.227a2.383,2.383,0,0,1,2.936-1.671c.1.026.2.05.343.085v-5.11c0-.551.123-.71.656-.89L59.71,217.3c.785-.267,1.171.006,1.171.829,0,2.411.006,4.822,0,7.233a2.374,2.374,0,1,1-1.729-2.279l.3.084v-4.293l-2.845.958c-.033.011-.065.026-.094.038-.369.138-.873.175-1.07.441s-.058.742-.058,1.124v5.654a2.381,2.381,0,0,1-4.626.915c-.046-.131-.094-.263-.136-.4Q50.62,227.227,50.62,226.84Zm7.876-.5a.974.974,0,1,0-.964-.965A.974.974,0,0,0,58.5,226.341Zm-5.46-.07a.963.963,0,1,0,.937.982A.963.963,0,0,0,53.036,226.271Z" transform="translate(0 -47.468)" fill="#f5f5f5"/>
    <path id="Path_63" data-name="Path 63" d="M210.442,164.83l1.482.7a6.76,6.76,0,0,1,1.575-.616,2.69,2.69,0,0,1,2.729,3.8,3.522,3.522,0,0,1-.937,1.282c-.961.8-1.991,1.509-3,2.248a.627.627,0,0,1-.788.026c-1.124-.875-2.287-1.708-3.328-2.672a2.814,2.814,0,0,1,1.262-4.7c.078-.022.155-.049.231-.073Zm-1.678,2.705a1.618,1.618,0,0,0,.539,1.245c.8.668,1.618,1.3,2.435,1.943a.317.317,0,0,0,.3,0c.815-.606,1.629-1.218,2.423-1.847a1.55,1.55,0,0,0,.586-1.124,1.311,1.311,0,0,0-.66-1.3,1.087,1.087,0,0,0-1.332.128,3.758,3.758,0,0,0-.437.4c-.536.59-.893.586-1.39-.018a3.02,3.02,0,0,0-.367-.375,1.127,1.127,0,0,0-1.324-.231,1.339,1.339,0,0,0-.769,1.178Z" transform="translate(-142.049 0)" fill="#f5f5f5"/>
    <path id="Path_64" data-name="Path 64" d="M332.458,425.9v-5.129c0-.7.418-.995,1.087-.774q1.048.347,2.091.707c.491.171.7.528.562.929a.721.721,0,0,1-1.008.4c-.431-.14-.86-.287-1.327-.442v.419c0,2.049.008,4.1-.007,6.145a2.368,2.368,0,0,1-4.527.918A2.376,2.376,0,0,1,332.1,425.8c.057.013.112.03.169.046Zm-.973,3.156a.957.957,0,1,0-.68-.275A.965.965,0,0,0,331.484,429.06Z" transform="translate(-252.396 -231.205)" fill="#f5f5f5"/>
    <path id="Path_65" data-name="Path 65" d="M135.253,453.048c-.187.227-.305.5-.5.58a.806.806,0,0,1-.705-.053c-1.282-1.232-2.537-2.492-3.781-3.762a.641.641,0,0,1,.063-.92.694.694,0,0,1,.927-.036,2.308,2.308,0,0,1,.205.187c1.117,1.116,2.239,2.23,3.348,3.355A4.891,4.891,0,0,1,135.253,453.048Z" transform="translate(-72.032 -257.278)" fill="#f5f5f5"/>
    <path id="Path_66" data-name="Path 66" d="M164.121,437.84a3.4,3.4,0,0,1,.6.351c.459.431.9.88,1.339,1.331a.7.7,0,0,1,.049,1.03.69.69,0,0,1-1.03-.027c-.468-.454-.925-.922-1.385-1.385a.62.62,0,0,1-.147-.768A2.89,2.89,0,0,1,164.121,437.84Z" transform="translate(-102.281 -247.438)" fill="#f5f5f5"/>
    <path id="Path_67" data-name="Path 67" d="M276.867,440.747a.693.693,0,0,1,.7.681.733.733,0,0,1-.723.714.719.719,0,0,1-.677-.716.676.676,0,0,1,.7-.679Z" transform="translate(-204.423 -250.072)" fill="#f5f5f5"/>
  </g>
</svg>
