<svg xmlns="http://www.w3.org/2000/svg" xmlns:xlink="http://www.w3.org/1999/xlink" width="71.496" height="67.535" viewBox="0 0 71.496 67.535">
  <defs>
    <filter id="Path_97" x="0" y="0" width="35.724" height="34.304" filterUnits="userSpaceOnUse">
      <feOffset dy="3" input="SourceAlpha"/>
      <feGaussianBlur stdDeviation="3.5" result="blur"/>
      <feFlood flood-color="#d02180"/>
      <feComposite operator="in" in2="blur"/>
      <feComposite in="SourceGraphic"/>
    </filter>
    <filter id="Path_98" x="12.092" y="3.095" width="59.404" height="64.44" filterUnits="userSpaceOnUse">
      <feOffset dy="3" input="SourceAlpha"/>
      <feGaussianBlur stdDeviation="3.5" result="blur-2"/>
      <feFlood flood-color="#d3207f"/>
      <feComposite operator="in" in2="blur-2"/>
      <feComposite in="SourceGraphic"/>
    </filter>
    <filter id="Path_100" x="3.662" y="17.663" width="32.462" height="31.438" filterUnits="userSpaceOnUse">
      <feOffset dy="3" input="SourceAlpha"/>
      <feGaussianBlur stdDeviation="3.5" result="blur-3"/>
      <feFlood flood-color="#d02180"/>
      <feComposite operator="in" in2="blur-3"/>
      <feComposite in="SourceGraphic"/>
    </filter>
  </defs>
  <g id="music" transform="translate(10.431 499.379)">
    <g transform="matrix(1, 0, 0, 1, -10.43, -499.38)" filter="url(#Path_97)">
      <path id="Path_97-2" data-name="Path 97" d="M3.623-491.733a4.767,4.767,0,0,0-3.413,5.691c.306,1.184.513,1.45,3.393,4.35,2.791,2.811,3.166,3.117,3.857,3.117s1.065-.306,3.817-3.068c2.476-2.5,2.7-2.762,3.028-3.442a4.629,4.629,0,0,0,.02-4.094,4.653,4.653,0,0,0-6.3-2.21l-.582.276-.483-.237A4.749,4.749,0,0,0,3.623-491.733Zm2.357,2.111a4.516,4.516,0,0,1,.769.5c.464.414.858.385,1.509-.108a2.785,2.785,0,0,1,3.147-.335,2.618,2.618,0,0,1,1.411,2.417c0,1.095-.148,1.312-2.9,4.084L7.46-480.6l-2.466-2.466a26.085,26.085,0,0,1-2.673-2.88,2.978,2.978,0,0,1-.148-2.052,2.944,2.944,0,0,1,1.7-1.766A3.088,3.088,0,0,1,5.981-489.622Z" transform="translate(10.43 499.38)" fill="#fff"/>
    </g>
    <g transform="matrix(1, 0, 0, 1, -10.43, -499.38)" filter="url(#Path_98)">
      <path id="Path_98-2" data-name="Path 98" d="M154.747-459.124c-2.851.789-5.287,1.509-5.415,1.608a.947.947,0,0,0,.523,1.7c.187,0,2.3-.533,4.675-1.184s4.389-1.184,4.449-1.184c.079,0,.108,3.906.108,14.322,0,15.555.02,14.914-.542,16.088a5.494,5.494,0,0,1-4.143,3.008,4.763,4.763,0,0,1-5.06-2.732,3.375,3.375,0,0,1-.395-1.785,4.777,4.777,0,0,1,.128-1.637,5.576,5.576,0,0,1,4.054-3.847,6.549,6.549,0,0,1,2.525.02c.335.059.414.02.72-.286l.345-.345-.02-7.792c-.03-7.526-.039-7.8-.217-8-.335-.375-.71-.395-1.785-.108-.542.148-5.109,1.391-10.16,2.772-8.078,2.2-9.2,2.525-9.44,2.762l-.276.266v10.742c0,7.24-.039,10.939-.108,11.334a5.565,5.565,0,0,1-5.208,4.379,5.04,5.04,0,0,1-4.172-2.269,5.49,5.49,0,0,1-.572-3.8,5.674,5.674,0,0,1,4.034-3.995,6.879,6.879,0,0,1,1.766-.069,5.265,5.265,0,0,0,1.411-.03c.5-.276.483.108.483-11.235v-10.554l.4-.109c7.6-2.052,9.025-2.466,9.242-2.713a.988.988,0,0,0-.5-1.578,41.673,41.673,0,0,0-5.376,1.322c-2.782.76-5.139,1.43-5.248,1.489-.523.276-.493-.306-.493,10.969v10.436h-.769a7.241,7.241,0,0,0-6.224,3.945,6.847,6.847,0,0,0,3.886,9.824,7.333,7.333,0,0,0,9.262-5.6c.138-.661.158-2.062.158-11.057v-10.3l.375-.109c.454-.128,16.926-4.616,17.311-4.705l.266-.069v12.349h-.533a7.976,7.976,0,0,0-3.788,1.095,9.113,9.113,0,0,0-2.555,2.653,7.3,7.3,0,0,0-.158,6.836,7.718,7.718,0,0,0,2.742,2.752,7.229,7.229,0,0,0,7.151-.326,7.629,7.629,0,0,0,3.166-4.182l.237-.69.03-15.555.02-15.555-.266-.306a1.311,1.311,0,0,0-.572-.345C160.034-460.525,158.061-460.032,154.747-459.124Z" transform="translate(-100.06 471.1)" fill="#fff"/>
    </g>
    <path id="Path_99" data-name="Path 99" d="M346.5-420.7a.974.974,0,0,0-.256,1.568.884.884,0,0,0,1.272.039.833.833,0,0,0,.276-1.075A.954.954,0,0,0,346.5-420.7Z" transform="translate(-311.766 -64.067)" fill="#fff"/>
    <g transform="matrix(1, 0, 0, 1, -10.43, -499.38)" filter="url(#Path_100)">
      <path id="Path_100-2" data-name="Path 100" d="M40.1-312.721a3.833,3.833,0,0,0-2.88,4.074c.128,1.2.444,1.657,2.752,3.975,3.068,3.058,2.791,3.058,5.82.049a32.946,32.946,0,0,0,2.4-2.545,4.1,4.1,0,0,0,.434-2.427,3.764,3.764,0,0,0-5.188-2.9c-.464.217-.523.217-.789.079A3.941,3.941,0,0,0,40.1-312.721Zm1.47,2a3.611,3.611,0,0,1,.671.394,1.1,1.1,0,0,0,1.5-.089,1.787,1.787,0,0,1,1.775-.306,1.805,1.805,0,0,1,.977,2.525,24.964,24.964,0,0,1-1.835,1.953l-1.706,1.7L41.1-306.388c-1.766-1.785-1.845-1.874-1.9-2.328A1.778,1.778,0,0,1,41.566-310.719Z" transform="translate(-23.03 337.97)" fill="#fff"/>
    </g>
  </g>
</svg>
