<svg xmlns="http://www.w3.org/2000/svg" xmlns:xlink="http://www.w3.org/1999/xlink" width="45.3" height="47" viewBox="0 0 45.3 47">
  <defs>
    <filter id="phonebook" x="0" y="0" width="45.3" height="47" filterUnits="userSpaceOnUse">
      <feOffset dy="3" input="SourceAlpha"/>
      <feGaussianBlur stdDeviation="5" result="blur"/>
      <feFlood flood-color="#ff006f"/>
      <feComposite operator="in" in2="blur"/>
      <feComposite in="SourceGraphic"/>
    </filter>
  </defs>
  <g transform="matrix(1, 0, 0, 1, 0, 0)" filter="url(#phonebook)">
    <path id="phonebook-2" data-name="phonebook" d="M18.1,3.2h-.85V1.5h-1.7V3.2H8.75V1.5H7.05V3.2H6.2A1.7,1.7,0,0,0,4.5,4.9V16.8a1.7,1.7,0,0,0,1.7,1.7H18.1a1.705,1.705,0,0,0,1.7-1.7V4.9A1.705,1.705,0,0,0,18.1,3.2ZM12.15,5.75A2.55,2.55,0,1,1,9.6,8.3,2.547,2.547,0,0,1,12.15,5.75Zm5.1,10.2H7.05V15.1c0-1.7,3.4-2.635,5.1-2.635s5.1.935,5.1,2.635Z" transform="translate(10.5 10.5)" fill="#f9f9f9"/>
  </g>
</svg>
