<svg xmlns="http://www.w3.org/2000/svg" xmlns:xlink="http://www.w3.org/1999/xlink" width="392.001" height="392.443" viewBox="0 0 392.001 392.443">
  <defs>
    <filter id="Path_170" x="0" y="0" width="392.001" height="392.443" filterUnits="userSpaceOnUse">
      <feOffset dy="4" input="SourceAlpha"/>
      <feGaussianBlur stdDeviation="3.5" result="blur"/>
      <feFlood flood-color="#0033d3"/>
      <feComposite operator="in" in2="blur"/>
      <feComposite in="SourceGraphic"/>
    </filter>
  </defs>
  <g id="platinum-big" transform="translate(-5.767 502.5)">
    <g transform="matrix(1, 0, 0, 1, 5.77, -502.5)" filter="url(#Path_170)">
      <path id="Path_170-2" data-name="Path 170" d="M193.32-491.36c-10.213,7.739-15.706,14.778-18.26,23.443l-1.238,4.413h-4.1a40.719,40.719,0,0,0-16.094,3.945c-5.648,2.861-11.993,9.98-15.242,17.1-2.94,6.344-4.72,12.148-4.72,15.321,0,2.242,3.4,5.414,5.726,5.414,1.083,0,4.023-1.084,6.577-2.321,6.809-3.482,12.612-4.334,18.724-2.786a36.751,36.751,0,0,1,9.053,4.023c3.4,2.244,4.1,3.017,3.714,4.41-.232.929-.464,7.894-.464,15.475v13.772l-2.244-1.236c-4.178-2.091-15.242-4.875-23.367-5.88-9.13-1.006-19.807-.541-26.616,1.237-6.886,1.782-16.48,6.73-21.2,10.987l-4.178,3.791L93.9-381.8c-4.333-1.16-8.047-1.548-17.486-1.548-11.606-.078-12.225.08-19.343,2.478-10.445,3.636-17.1,7.813-24.836,15.627C20.78-353.79,15.441-340.253,16.37-325.009c1.006,16.868,8.588,34.817,21.2,50.136,7.428,9.055,15.01,19.345,18.182,24.684,6.964,11.449,13.385,27.7,14.933,37.448.464,2.63.309,3.016-1.857,4.1-3.25,1.7-7.505,6.81-8.511,10.446-2.166,7.042-.619,12.845,5.029,18.415,2.166,2.245,4.565,4.1,5.184,4.1,1.083,0,1.238,1.236,1.238,7.736s-.155,7.737-1.238,7.737c-.619,0-3.017,1.858-5.184,4.024-5.648,5.725-7.2,11.374-5.029,18.724,1.238,4.253,7.66,10.678,11.915,11.916,4.642,1.314,254.4,1.314,259.042,0,4.256-1.238,10.677-7.662,11.915-11.916,2.167-7.35.619-13-5.029-18.724-2.167-2.166-4.565-4.024-5.184-4.024-1.083,0-1.238-1.236-1.238-7.737s.155-7.736,1.238-7.736c.619,0,3.017-1.857,5.184-4.1,5.648-5.57,7.2-11.373,5.029-18.491-1.006-3.406-5.571-8.977-8.743-10.679-1.935-1-2.012-1.392-1.548-4.641a92.006,92.006,0,0,1,3.095-11.376q8.008-24.024,27.776-47.042c13.772-16.017,22.361-35.514,23.367-53,.619-9.671-.929-16.79-5.571-26.229-3.017-6.034-4.8-8.511-10.291-14.005-7.737-7.814-14.391-11.991-24.836-15.627-7.118-2.4-7.737-2.555-19.343-2.478-9.44,0-13.154.388-17.487,1.548l-5.493,1.547-4.178-3.791c-4.72-4.257-14.314-9.2-21.2-10.987-6.809-1.778-17.486-2.243-26.616-1.237-8.124,1-19.188,3.789-23.367,5.88l-2.244,1.236v-13.772c0-7.581-.232-14.546-.464-15.475-.387-1.392.309-2.165,3.714-4.41a36.755,36.755,0,0,1,9.052-4.023c6.035-1.548,11.838-.619,18.8,2.863,5.416,2.708,7.815,2.786,10.29.311,2.244-2.165,2.321-3.793.774-9.673-2.863-10.987-10.987-22.2-18.8-26.228a40.72,40.72,0,0,0-16.094-3.945h-4.023l-1.47-4.877a42.535,42.535,0,0,0-4.41-9.284C218.7-485.4,205.854-496,201.6-496,200.284-496,197.343-494.375,193.32-491.36Zm14.546,14.391c5.571,5.186,9.362,11.3,9.362,15.009a14.787,14.787,0,0,1-1.934,5.417c-6.19,10.832-8.9,19.963-8.9,29.79v5.028h-9.052l-.464-7.583a54.113,54.113,0,0,0-7.2-24.524c-3.791-6.27-4.1-8.669-1.547-13.775,1.934-4.022,11.761-14.468,13.54-14.468C202.14-482.074,204.926-479.752,207.866-476.968Zm-32.574,26.308c1.857.388,2.786,1.391,4.72,4.95s4.642,12.224,4.72,14.934c0,.307-1.161-.233-2.476-1.237-7.428-5.573-18.26-8.746-26.693-7.816-2.708.232-4.875.232-4.875,0,0-1.083,6.654-7.581,8.82-8.743A24.452,24.452,0,0,1,175.292-450.661Zm67.856,1.7c2.863,1.392,9.671,7.89,9.671,9.128,0,.232-2.166.232-4.874,0-8.434-.929-19.266,2.244-26.616,7.816-2.94,2.164-2.94,2.242-1.393-4.334,1.547-6.5,5.493-13.774,7.66-14.313C231.387-451.513,240.13-450.585,243.148-448.957Zm-29.015,45.8v6.192H189.374v-12.381h24.759ZM152-383.733c9.053,1.236,19.111,4.874,25.378,9.129l5.416,3.636.232,6.81.232,6.886-3.869-3.483c-8.743-7.89-21.277-12.3-34.895-12.3-17.331-.077-28.4,5.88-34.276,18.415-1.935,4.256-2.476,6.5-2.708,11.916-.619,12.147,3.559,23.907,16.635,46.888,4.1,7.119,8.356,15.4,9.594,18.415,6.035,15.086,9.517,32.961,11.915,60.892l.464,5.262H134.749l-.928-13.385c-2.012-28.859-9.672-52.073-24.837-74.975-6.731-10.29-8.588-13.928-11.3-22.284-1.857-5.647-2.166-7.891-2.244-15.86-.077-10.6,1.083-15.242,5.571-23.909C110.067-379.014,128.482-386.986,152-383.733Zm55.94,85.8v86.658h-12.38V-384.584h12.38Zm66.85-85.109c15.629,3.946,27,15.164,31.878,31.337,1.083,3.4,1.392,7.041,1.392,13.926-.078,7.969-.387,10.213-2.244,15.86-2.708,8.356-4.565,11.994-11.3,22.284-15.165,22.9-22.825,46.115-24.837,74.975l-.929,13.385H257.384l.464-5.262c2.4-27.931,5.88-45.806,11.915-60.892,1.238-3.017,5.493-11.3,9.594-18.415,13.076-22.98,17.254-34.74,16.635-46.888-.232-5.416-.774-7.66-2.708-11.916-5.88-12.534-16.945-18.491-34.276-18.415-13.618,0-26.152,4.412-34.895,12.3l-3.791,3.405V-370.5l3.714-2.707C237.268-382.883,259.009-387.06,274.793-383.038ZM89.254-370.273c1.7.543,1.7.621-.929,6.191A46.753,46.753,0,0,0,85.7-357.66c0,.388-3.482.543-7.969.31a70.712,70.712,0,0,0-12.3.54c-13.772,2.863-23.289,13.079-24.372,26.153-1.083,13.617,5.88,27.622,27.39,55.32,4.952,6.421,10.677,14.469,12.766,17.951,6.5,10.909,12.844,29.476,14.236,41.625l.542,4.489H83.761L82.368-218C78.5-236.65,66.971-258.78,51.11-277.81c-7.428-8.9-11.528-14.857-15.088-22.053-4.642-9.284-7.583-20.272-7.583-28.32,0-19.108,15.939-37.447,36.752-42.164C69.834-371.433,85.7-371.354,89.254-370.273Zm253.935,1.395c22.128,7.736,34.585,27,31.1,48.279-2.321,14.469-9.13,27.622-22.825,43.947-14.778,17.718-26.538,40.388-30.33,58.648l-1.393,6.733H307.522l.541-4.489c1.392-12.149,7.737-30.716,14.237-41.625,2.089-3.482,7.815-11.53,12.767-17.951,21.509-27.7,28.473-41.7,27.389-55.32-1.083-13.074-10.6-23.29-24.372-26.153a70.711,70.711,0,0,0-12.3-.54l-7.969.386-.851-2.786a65.415,65.415,0,0,0-2.708-6.421l-1.857-3.637,2.94-.465a23.3,23.3,0,0,0,3.636-.849,89.793,89.793,0,0,1,9.672,0C335.685-370.89,338.7-370.5,343.19-368.878ZM156.1-359.284a38.015,38.015,0,0,1,21.2,14.467c4.8,6.733,5.88,9.749,5.88,16.634v5.96l-9.826,1a279.43,279.43,0,0,0-37.912,6.654l-6.5,1.7-2.553-5.109c-3.869-7.658-6.654-17.174-6.654-22.746,0-8.2,4.333-15.165,11.219-18.029C137.148-361.3,147.9-361.528,156.1-359.284Zm115.207.31c7.815,2.707,12.457,9.44,12.457,18.26,0,5.572-2.785,15.088-6.654,22.746l-2.553,5.109-6.5-1.7a280.382,280.382,0,0,0-37.835-6.654l-9.9-1v-5.96c0-7.04,1.238-10.445,6.422-17.406C236.184-358.357,255.837-364.315,271.311-358.974ZM82.678-337c.774,12.769,3.559,22.981,8.9,32.652l2.708,4.8-3.25,1.623c-2.863,1.47-10.987,6.344-15.165,9.052-1.548,1.084-1.857.774-7.2-6.731C52.58-318.044,49.485-330.5,57.686-339.167c4.333-4.564,8.434-5.882,17.564-5.728l6.964.156Zm257.959-6.034c5.958,3.171,9.672,8.82,9.672,14.853,0,7.352-5.107,18.105-15.474,32.575-5.339,7.5-5.648,7.814-7.2,6.731-4.178-2.708-12.3-7.5-15.165-9.052l-3.172-1.547,2.321-4.177c5.416-9.517,9.285-24.375,9.285-35.282,0-2.864.232-5.417.619-5.726.309-.389,4.024-.467,8.279-.311C335.762-344.739,338.238-344.274,340.637-343.036ZM183.184-260.4v49.131h-24.6l-.464-5.262c-1.238-13.694-3.018-28.4-4.41-35.669-3.4-17.409-9.285-33.889-16.248-45.187-1.238-2.087-2.167-3.944-2.012-4.177,1.857-1.78,34.508-7.581,44.489-7.891l3.25-.078Zm51.066-47.972c13.231,1.625,34.044,5.958,34.044,7.041a28.225,28.225,0,0,1-1.857,3.25c-11.451,18.182-17.718,42.477-21.045,81.551l-.464,5.262h-24.6v-98.263h2.167C223.65-309.535,228.989-308.993,234.25-308.374ZM103.027-286.091c10.523,18.258,16.48,38.222,18.26,60.893,1.161,15.628,1.857,13.927-5.8,13.927-4.642,0-6.731-.31-6.886-1.005-.155-.465-.774-4.411-1.47-8.667a124.249,124.249,0,0,0-21.2-51.84,29.3,29.3,0,0,1-3.327-5.1c0-1.084,16.326-10.678,18.183-10.678C101.247-288.645,102.176-287.483,103.027-286.091Zm205.887.466c7.428,4.021,11.993,6.962,11.993,7.658a28.454,28.454,0,0,1-3.327,5.184c-10.909,15.012-18.956,35.05-21.664,54.316l-1.006,6.809-6.731.231-6.731.232v-2.164a233.593,233.593,0,0,1,3.172-30.8c2.089-10.289,6.809-24.371,10.987-32.648,4.72-9.363,6.189-11.839,7.118-11.839A31.844,31.844,0,0,1,308.914-285.625Zm20.89,88.668a5.686,5.686,0,0,1,0,8.511l-1.857,1.935H75.56L73.7-188.446a6.029,6.029,0,0,1-1.934-4.256,6.023,6.023,0,0,1,1.934-4.255l1.857-1.935H327.948Zm-10.445,29.014v6.189H84.148v-12.379H319.359Zm10.445,20.5a5.686,5.686,0,0,1,0,8.511l-1.857,1.934H75.56L73.7-138.927a6.032,6.032,0,0,1-1.934-4.257,6.024,6.024,0,0,1,1.934-4.255l1.857-1.935H327.948Z" transform="translate(-5.77 502.5)" fill="#d1dcff"/>
    </g>
  </g>
</svg>
