<svg xmlns="http://www.w3.org/2000/svg" xmlns:xlink="http://www.w3.org/1999/xlink" width="71" height="71" viewBox="0 0 71 71">
  <defs>
    <filter id="Ellipse_2" x="0" y="0" width="71" height="71" filterUnits="userSpaceOnUse">
      <feOffset dy="3" input="SourceAlpha"/>
      <feGaussianBlur stdDeviation="5" result="blur"/>
      <feFlood flood-color="#003eff"/>
      <feComposite operator="in" in2="blur"/>
      <feComposite in="SourceGraphic"/>
    </filter>
    <filter id="Path_170" x="14" y="13.229" width="42.45" height="42.479" filterUnits="userSpaceOnUse">
      <feOffset dy="3" input="SourceAlpha"/>
      <feGaussianBlur stdDeviation="3" result="blur-2"/>
      <feFlood flood-color="#003eff"/>
      <feComposite operator="in" in2="blur-2"/>
      <feComposite in="SourceGraphic"/>
    </filter>
  </defs>
  <g id="platinum" transform="translate(-154 -173)">
    <g transform="matrix(1, 0, 0, 1, 154, 173)" filter="url(#Ellipse_2)">
      <g id="Ellipse_2-2" data-name="Ellipse 2" transform="translate(15 12)" fill="none" stroke="#dadada" stroke-width="2">
        <circle cx="20.5" cy="20.5" r="20.5" stroke="none"/>
        <circle cx="20.5" cy="20.5" r="19.5" fill="none"/>
      </g>
    </g>
    <g id="platinum-2" data-name="platinum" transform="translate(160.733 688.229)">
      <g transform="matrix(1, 0, 0, 1, -6.73, -515.23)" filter="url(#Path_170)">
        <path id="Path_170-2" data-name="Path 170" d="M27.935-495.694a2.987,2.987,0,0,0-1.2,1.545l-.082.291h-.27a2.683,2.683,0,0,0-1.061.26,2.544,2.544,0,0,0-1,1.127,2.934,2.934,0,0,0-.311,1.01.463.463,0,0,0,.377.357,1.527,1.527,0,0,0,.433-.153,1.671,1.671,0,0,1,1.234-.184,2.421,2.421,0,0,1,.6.265c.224.148.27.2.245.291-.015.061-.031.52-.031,1.02v.908l-.148-.081a6.273,6.273,0,0,0-1.54-.388,5.414,5.414,0,0,0-1.754.081,3.958,3.958,0,0,0-1.4.724l-.275.25-.362-.1a4.048,4.048,0,0,0-1.152-.1,2.731,2.731,0,0,0-1.275.163,3.861,3.861,0,0,0-1.637,1.03,3.342,3.342,0,0,0-1.045,2.652,5.894,5.894,0,0,0,1.4,3.3,16.6,16.6,0,0,1,1.2,1.627,8.131,8.131,0,0,1,.984,2.468c.031.173.02.2-.122.27a1.384,1.384,0,0,0-.561.688,1.107,1.107,0,0,0,.331,1.214,1.106,1.106,0,0,0,.342.27c.071,0,.082.081.082.51s-.01.51-.082.51a1.147,1.147,0,0,0-.342.265,1.134,1.134,0,0,0-.331,1.234,1.515,1.515,0,0,0,.785.785c.306.087,16.766.087,17.072,0a1.515,1.515,0,0,0,.785-.785,1.134,1.134,0,0,0-.331-1.234,1.147,1.147,0,0,0-.342-.265c-.071,0-.082-.081-.082-.51s.01-.51.082-.51a1.107,1.107,0,0,0,.342-.27,1.113,1.113,0,0,0,.331-1.219,1.552,1.552,0,0,0-.576-.7c-.127-.066-.133-.092-.1-.306a6.064,6.064,0,0,1,.2-.75,9.323,9.323,0,0,1,1.831-3.1,6.142,6.142,0,0,0,1.54-3.493,3.1,3.1,0,0,0-.367-1.729,2.889,2.889,0,0,0-.678-.923,3.861,3.861,0,0,0-1.637-1.03,2.73,2.73,0,0,0-1.275-.163,4.048,4.048,0,0,0-1.152.1l-.362.1-.275-.25a3.959,3.959,0,0,0-1.4-.724,5.414,5.414,0,0,0-1.754-.081,6.273,6.273,0,0,0-1.54.388l-.148.081v-.908c0-.5-.015-.959-.031-1.02-.025-.092.02-.143.245-.291a2.421,2.421,0,0,1,.6-.265,1.7,1.7,0,0,1,1.239.189c.357.178.515.184.678.02.148-.143.153-.25.051-.637a2.92,2.92,0,0,0-1.239-1.728,2.683,2.683,0,0,0-1.061-.26h-.265l-.1-.321a2.8,2.8,0,0,0-.291-.612A3.394,3.394,0,0,0,28.48-496,1.394,1.394,0,0,0,27.935-495.694Zm.959.948a1.738,1.738,0,0,1,.617.989.975.975,0,0,1-.127.357,3.817,3.817,0,0,0-.586,1.963v.331h-.6l-.031-.5a3.566,3.566,0,0,0-.474-1.616c-.25-.413-.27-.571-.1-.908a3.263,3.263,0,0,1,.892-.953A2.189,2.189,0,0,1,28.894-494.746Zm-2.147,1.734c.122.026.184.092.311.326a3.562,3.562,0,0,1,.311.984c0,.02-.076-.015-.163-.081a2.685,2.685,0,0,0-1.759-.515.936.936,0,0,1-.321,0,2.3,2.3,0,0,1,.581-.576A1.611,1.611,0,0,1,26.747-493.012Zm4.472.112a2.088,2.088,0,0,1,.637.6.936.936,0,0,1-.321,0,2.663,2.663,0,0,0-1.754.515c-.194.143-.194.148-.092-.286s.362-.908.5-.943A2.14,2.14,0,0,1,31.219-492.9Zm-1.912,3.018v.408H27.675v-.816h1.632Zm-4.095,1.28a4.263,4.263,0,0,1,1.672.6l.357.24.015.449.015.454-.255-.23a3.426,3.426,0,0,0-2.3-.811,2.206,2.206,0,0,0-2.259,1.214,1.731,1.731,0,0,0-.178.785,5.692,5.692,0,0,0,1.1,3.09c.27.469.551,1.015.632,1.214a13.8,13.8,0,0,1,.785,4.013l.031.347h-.75l-.061-.882a9.719,9.719,0,0,0-1.637-4.941,5.03,5.03,0,0,1-.744-1.469,2.7,2.7,0,0,1-.148-1.045,2.769,2.769,0,0,1,.367-1.576A3.046,3.046,0,0,1,25.212-488.6Zm3.687,5.655v5.711h-.816v-11.422H28.9Zm4.406-5.609a2.9,2.9,0,0,1,2.1,2.065,2.943,2.943,0,0,1,.092.918,2.7,2.7,0,0,1-.148,1.045,5.03,5.03,0,0,1-.744,1.469,9.719,9.719,0,0,0-1.637,4.941l-.061.882h-.75l.031-.347a13.8,13.8,0,0,1,.785-4.013c.082-.2.362-.744.632-1.214a5.692,5.692,0,0,0,1.1-3.09,1.731,1.731,0,0,0-.178-.785,2.206,2.206,0,0,0-2.259-1.214,3.426,3.426,0,0,0-2.3.811l-.25.224v-.867l.245-.178A4.387,4.387,0,0,1,33.3-488.555Zm-12.227.841c.112.036.112.041-.061.408a3.082,3.082,0,0,0-.173.423,1.461,1.461,0,0,1-.525.02,4.663,4.663,0,0,0-.811.036A1.928,1.928,0,0,0,17.9-485.1c-.071.9.388,1.82,1.805,3.646.326.423.7.954.841,1.183a8.188,8.188,0,0,1,.938,2.743l.036.3h-.806l-.092-.444a9.662,9.662,0,0,0-2.06-3.941,6.989,6.989,0,0,1-.994-1.453,4.569,4.569,0,0,1-.5-1.866,3.041,3.041,0,0,1,2.422-2.779A5.878,5.878,0,0,1,21.077-487.714Zm16.735.092a2.865,2.865,0,0,1,2.05,3.182,5.885,5.885,0,0,1-1.5,2.9,9.668,9.668,0,0,0-2,3.865l-.092.444h-.806l.036-.3a8.188,8.188,0,0,1,.938-2.743c.138-.229.515-.76.841-1.183,1.418-1.825,1.876-2.748,1.805-3.646a1.928,1.928,0,0,0-1.606-1.724,4.663,4.663,0,0,0-.811-.036l-.525.025-.056-.184a4.312,4.312,0,0,0-.178-.423l-.122-.24.194-.031a1.536,1.536,0,0,0,.24-.056,5.906,5.906,0,0,1,.637,0A2.677,2.677,0,0,1,37.812-487.622Zm-12.329.632a2.505,2.505,0,0,1,1.4.953,1.546,1.546,0,0,1,.388,1.1v.393l-.648.066a18.416,18.416,0,0,0-2.5.439l-.428.112-.168-.337a3.947,3.947,0,0,1-.439-1.5,1.249,1.249,0,0,1,.739-1.188A2.923,2.923,0,0,1,25.482-486.99Zm7.592.02a1.206,1.206,0,0,1,.821,1.2,3.947,3.947,0,0,1-.439,1.5l-.168.337-.428-.112a18.479,18.479,0,0,0-2.493-.439l-.653-.066v-.393a1.6,1.6,0,0,1,.423-1.147A2.729,2.729,0,0,1,33.075-486.97Zm-12.431,1.448a4.878,4.878,0,0,0,.586,2.152l.178.316-.214.107c-.189.1-.724.418-1,.6-.1.071-.122.051-.474-.444-1.061-1.479-1.265-2.3-.724-2.871a1.311,1.311,0,0,1,1.157-.377l.459.01Zm17-.4a1.133,1.133,0,0,1,.637.979,4.382,4.382,0,0,1-1.02,2.147c-.352.495-.372.515-.474.444-.275-.178-.811-.495-1-.6l-.209-.1.153-.275a5.3,5.3,0,0,0,.612-2.325,1,1,0,0,1,.041-.377,1.914,1.914,0,0,1,.546-.021A1.583,1.583,0,0,1,37.643-485.919Zm-10.377,5.446v3.238H25.645l-.031-.347c-.082-.9-.2-1.871-.291-2.351a9.372,9.372,0,0,0-1.071-2.978.914.914,0,0,1-.133-.275,15.422,15.422,0,0,1,2.932-.52l.214-.005Zm3.365-3.161a11.4,11.4,0,0,1,2.244.464,1.862,1.862,0,0,1-.122.214,11.765,11.765,0,0,0-1.387,5.374l-.031.347H29.714v-6.476h.143C29.934-483.711,30.286-483.676,30.632-483.635Zm-8.648,1.469a9.323,9.323,0,0,1,1.2,4.013c.076,1.03.122.918-.382.918-.306,0-.444-.02-.454-.066-.01-.031-.051-.291-.1-.571a8.188,8.188,0,0,0-1.4-3.416,1.93,1.93,0,0,1-.219-.336,5.226,5.226,0,0,1,1.2-.7C21.867-482.335,21.928-482.258,21.984-482.166Zm13.569.031a3.072,3.072,0,0,1,.79.5,1.875,1.875,0,0,1-.219.342,8.284,8.284,0,0,0-1.428,3.58l-.066.449-.444.015-.444.015v-.143a15.4,15.4,0,0,1,.209-2.03,9.968,9.968,0,0,1,.724-2.152c.311-.617.408-.78.469-.78A2.1,2.1,0,0,1,35.553-482.136Zm1.377,5.843a.375.375,0,0,1,0,.561l-.122.128H20.174l-.122-.128a.4.4,0,0,1-.127-.281.4.4,0,0,1,.127-.28l.122-.128H36.807Zm-.688,1.912v.408H20.74v-.816h15.5Zm.688,1.351a.375.375,0,0,1,0,.561l-.122.127H20.174l-.122-.127a.4.4,0,0,1-.127-.281.4.4,0,0,1,.127-.28l.122-.128H36.807Z" transform="translate(6.73 515.23)" fill="#f1f1f1"/>
      </g>
    </g>
  </g>
</svg>
