<svg width="34" height="34" viewBox="0 0 34 34" fill="none" xmlns="http://www.w3.org/2000/svg">
<g filter="url(#filter0_d_1:31)">
<path d="M17 25C23.0751 25 28 20.0751 28 14C28 7.92487 23.0751 3 17 3C10.9249 3 6 7.92487 6 14C6 20.0751 10.9249 25 17 25Z" fill="white"/>
<g clip-path="url(#clip0_1:31)">
<path d="M17.9997 5.09977L16.8994 3.99951L6.99994 13.899L8.1002 14.9993L17.4496 15.5494L20.1995 18.2993L17.4496 21.0493L18.5491 22.1488L25.1485 15.5494L24.0483 14.4491L21.2991 17.1984L18.5498 14.4491L17.9997 5.09977ZM11.6364 13.6621L9.5632 13.5363L16.5423 6.55711L16.6626 8.63601L11.6364 13.6621Z" fill="#FF6700"/>
</g>
</g>
<defs>
<filter id="filter0_d_1:31" x="0" y="0" width="34" height="34" filterUnits="userSpaceOnUse" color-interpolation-filters="sRGB">
<feFlood flood-opacity="0" result="BackgroundImageFix"/>
<feColorMatrix in="SourceAlpha" type="matrix" values="0 0 0 0 0 0 0 0 0 0 0 0 0 0 0 0 0 0 127 0" result="hardAlpha"/>
<feOffset dy="3"/>
<feGaussianBlur stdDeviation="3"/>
<feColorMatrix type="matrix" values="0 0 0 0 1 0 0 0 0 0.403922 0 0 0 0 0 0 0 0 1 0"/>
<feBlend mode="normal" in2="BackgroundImageFix" result="effect1_dropShadow_1:31"/>
<feBlend mode="normal" in="SourceGraphic" in2="effect1_dropShadow_1:31" result="shape"/>
</filter>
<clipPath id="clip0_1:31">
<rect width="19.799" height="19.799" fill="white" transform="translate(7 4)"/>
</clipPath>
</defs>
</svg>
