<svg xmlns="http://www.w3.org/2000/svg" xmlns:xlink="http://www.w3.org/1999/xlink" width="408.733" height="293" viewBox="0 0 408.733 293">
  <defs>
    <filter id="Path_175" x="0" y="0" width="408.733" height="293" filterUnits="userSpaceOnUse">
      <feOffset dy="3" input="SourceAlpha"/>
      <feGaussianBlur stdDeviation="3" result="blur"/>
      <feFlood flood-color="#5bdc06"/>
      <feComposite operator="in" in2="blur"/>
      <feComposite in="SourceGraphic"/>
    </filter>
  </defs>
  <g id="silver-big" transform="translate(8.753 442)">
    <g transform="matrix(1, 0, 0, 1, -8.75, -442)" filter="url(#Path_175)">
      <path id="Path_175-2" data-name="Path 175" d="M188.815-433.937c-3.438,1.833-9.243,8.249-43.312,47.59-25.59,29.485-39.875,45.375-40.639,45.3s-19.326-8.938-41.4-19.785c-42.167-20.55-44.687-21.695-48.278-21.695-8.479,0-16.271,9.243-14.743,17.493C.9-362.361,57.35-175.9,59.031-171.313c1.222,3.285,5.042,7.18,8.632,8.862,2.9,1.375,7.868,1.451,127.951,1.451s125.048-.076,127.951-1.451c3.59-1.682,7.41-5.577,8.632-8.862,1.681-4.583,58.132-191.048,58.59-193.722,1.528-8.25-6.264-17.493-14.743-17.493-3.59,0-6.111,1.145-48.278,21.695-22.076,10.847-40.639,19.708-41.4,19.785s-15.049-15.813-40.639-45.3c-34.069-39.341-39.875-45.757-43.312-47.59a19.159,19.159,0,0,0-6.8-2.063A19.159,19.159,0,0,0,188.815-433.937Zm45.375,80.971c41.555,47.9,40.944,47.362,48.507,46.675,2.826-.306,11.153-4.048,35.444-15.889,17.493-8.479,32.007-15.278,32.236-15.125.153.229-9.549,33-21.694,72.875l-22.076,72.493H84.621L62.544-264.431C50.4-304.307,40.7-337.077,40.85-337.306c.229-.154,14.743,6.646,32.236,15.125C97.378-310.34,105.7-306.6,108.531-306.292c7.562.688,6.951,1.3,48.66-46.9,20.931-24.062,38.271-43.771,38.576-43.617C196.072-396.736,213.336-377.029,234.19-352.967Z" transform="translate(8.75 442)" fill="#dbd3da"/>
    </g>
  </g>
</svg>
