<svg xmlns="http://www.w3.org/2000/svg" xmlns:xlink="http://www.w3.org/1999/xlink" width="71" height="71" viewBox="0 0 71 71">
  <defs>
    <filter id="Ellipse_27" x="0" y="0" width="71" height="71" filterUnits="userSpaceOnUse">
      <feOffset dy="3" input="SourceAlpha"/>
      <feGaussianBlur stdDeviation="5" result="blur"/>
      <feFlood flood-color="#5bdc06"/>
      <feComposite operator="in" in2="blur"/>
      <feComposite in="SourceGraphic"/>
    </filter>
    <filter id="Path_175" x="12" y="16" width="46.699" height="38.198" filterUnits="userSpaceOnUse">
      <feOffset dy="3" input="SourceAlpha"/>
      <feGaussianBlur stdDeviation="3" result="blur-2"/>
      <feFlood flood-color="#5bdc06"/>
      <feComposite operator="in" in2="blur-2"/>
      <feComposite in="SourceGraphic"/>
    </filter>
  </defs>
  <g id="silver" transform="translate(-160 -852)">
    <g transform="matrix(1, 0, 0, 1, 160, 852)" filter="url(#Ellipse_27)">
      <g id="Ellipse_27-2" data-name="Ellipse 27" transform="translate(15 12)" fill="none" stroke="#dadada" stroke-width="2">
        <circle cx="20.5" cy="20.5" r="20.5" stroke="none"/>
        <circle cx="20.5" cy="20.5" r="19.5" fill="none"/>
      </g>
    </g>
    <g id="silver-2" data-name="silver" transform="translate(180.753 1310)">
      <g transform="matrix(1, 0, 0, 1, -20.75, -458)" filter="url(#Path_175)">
        <path id="Path_175-2" data-name="Path 175" d="M14.1-435.848c-.252.135-.679.606-3.181,3.5-1.88,2.166-2.929,3.333-2.985,3.327s-1.419-.656-3.041-1.453c-3.1-1.509-3.282-1.593-3.546-1.593a1.167,1.167,0,0,0-1.083,1.285c.034.2,4.18,13.892,4.3,14.229a1.369,1.369,0,0,0,.634.651c.213.1.578.107,9.4.107s9.185-.006,9.4-.107a1.369,1.369,0,0,0,.634-.651c.123-.337,4.27-14.032,4.3-14.229a1.167,1.167,0,0,0-1.083-1.285c-.264,0-.449.084-3.546,1.593-1.621.8-2.985,1.447-3.041,1.453s-1.105-1.161-2.985-3.327c-2.5-2.89-2.929-3.361-3.181-3.5a1.407,1.407,0,0,0-.5-.152A1.407,1.407,0,0,0,14.1-435.848ZM17.43-429.9c3.052,3.518,3.007,3.479,3.563,3.428a16.538,16.538,0,0,0,2.6-1.167c1.285-.623,2.351-1.122,2.368-1.111s-.7,2.424-1.593,5.353l-1.621,5.324H6.445L4.823-423.4c-.892-2.929-1.6-5.336-1.593-5.353s1.083.488,2.368,1.111a16.538,16.538,0,0,0,2.6,1.167c.555.051.511.1,3.574-3.445,1.537-1.767,2.811-3.215,2.833-3.2S15.9-431.669,17.43-429.9Z" transform="translate(20.75 458)" fill="#dbd3da"/>
      </g>
    </g>
  </g>
</svg>
