<svg xmlns="http://www.w3.org/2000/svg" xmlns:xlink="http://www.w3.org/1999/xlink" width="99" height="128.5" viewBox="0 0 99 128.5">
  <defs>
    <filter id="Rectangle_137" x="38.594" y="0" width="22" height="68.5" filterUnits="userSpaceOnUse">
      <feOffset dy="3" input="SourceAlpha"/>
      <feGaussianBlur stdDeviation="3" result="blur"/>
      <feFlood flood-color="#5bdc06"/>
      <feComposite operator="in" in2="blur"/>
    </filter>
    <filter id="Rectangle_137-2" x="38.594" y="0" width="22" height="68.5" filterUnits="userSpaceOnUse">
      <feOffset dy="-4" input="SourceAlpha"/>
      <feGaussianBlur stdDeviation="1.5" result="blur-2"/>
      <feFlood flood-color="#5bdc06" result="color"/>
      <feComposite operator="out" in="SourceGraphic" in2="blur-2"/>
      <feComposite operator="in" in="color"/>
      <feComposite operator="in" in2="SourceGraphic"/>
    </filter>
    <filter id="Rectangle_136" x="0" y="50.5" width="99" height="78" filterUnits="userSpaceOnUse">
      <feOffset dy="3" input="SourceAlpha"/>
      <feGaussianBlur stdDeviation="3" result="blur-3"/>
      <feFlood flood-color="#5bdc06"/>
      <feComposite operator="in" in2="blur-3"/>
    </filter>
    <filter id="Rectangle_136-2" x="0" y="50.5" width="99" height="78" filterUnits="userSpaceOnUse">
      <feOffset dy="-4" input="SourceAlpha"/>
      <feGaussianBlur stdDeviation="1.5" result="blur-4"/>
      <feFlood flood-color="#5bdc06" result="color-2"/>
      <feComposite operator="out" in="SourceGraphic" in2="blur-4"/>
      <feComposite operator="in" in="color-2"/>
      <feComposite operator="in" in2="SourceGraphic"/>
    </filter>
  </defs>
  <g id="slot-icon" transform="translate(-151 28.5)">
    <g data-type="innerShadowGroup">
      <g transform="matrix(1, 0, 0, 1, 151, -28.5)" filter="url(#Rectangle_137)">
        <g id="Rectangle_137-3" data-name="Rectangle 137" transform="translate(51.59 6) rotate(90)" fill="none" stroke="#dadada" stroke-width="2">
          <rect width="50.5" height="4" rx="1" stroke="none"/>
          <rect x="1" y="1" width="48.5" height="2" fill="none"/>
        </g>
      </g>
      <g transform="matrix(1, 0, 0, 1, 151, -28.5)" filter="url(#Rectangle_137-2)">
        <rect id="Rectangle_137-4" data-name="Rectangle 137" width="50.5" height="4" rx="1" transform="translate(51.59 6) rotate(90)" fill="#fff"/>
      </g>
      <g id="Rectangle_137-5" data-name="Rectangle 137" transform="translate(202.594 -22.5) rotate(90)" fill="none" stroke="#dadada" stroke-width="2">
        <rect width="50.5" height="4" rx="1" stroke="none"/>
        <rect x="1" y="1" width="48.5" height="2" fill="none"/>
      </g>
    </g>
    <g data-type="innerShadowGroup">
      <g transform="matrix(1, 0, 0, 1, 151, -28.5)" filter="url(#Rectangle_136)">
        <g id="Rectangle_136-3" data-name="Rectangle 136" transform="translate(9 56.5)" fill="none" stroke="#dadada" stroke-width="2">
          <rect width="81" height="60" rx="11" stroke="none"/>
          <rect x="1" y="1" width="79" height="58" rx="10" fill="none"/>
        </g>
      </g>
      <g transform="matrix(1, 0, 0, 1, 151, -28.5)" filter="url(#Rectangle_136-2)">
        <rect id="Rectangle_136-4" data-name="Rectangle 136" width="81" height="60" rx="11" transform="translate(9 56.5)" fill="#fff"/>
      </g>
      <g id="Rectangle_136-5" data-name="Rectangle 136" transform="translate(160 28)" fill="none" stroke="#dadada" stroke-width="2">
        <rect width="81" height="60" rx="11" stroke="none"/>
        <rect x="1" y="1" width="79" height="58" rx="10" fill="none"/>
      </g>
    </g>
    <g id="slot" transform="translate(239.394 92.155)">
      <path id="Path_160" data-name="Path 160" d="M22.54-511.977a3.321,3.321,0,0,0-2.444,2.793c-.095.735-.095,30.687,0,31.421a3.311,3.311,0,0,0,2.48,2.8c.684.16,21.58.16,22.344,0a3.353,3.353,0,0,0,2.422-2.189c.124-.335.138-.684.16-5.826l.022-5.47,2.706-.022c2.909-.022,2.909-.022,3.12-.415.138-.255.138-8.488,0-8.743s-.342-.364-.895-.407l-.5-.044.015-3.317.022-3.309.305-.087a3.438,3.438,0,0,0,1.3-.844,3.128,3.128,0,0,0,.706-2.429,2.956,2.956,0,0,0-4.888-1.738,2.949,2.949,0,0,0,.96,4.975l.2.08v6.692H47.524l-.022-5.7c-.022-5.361-.029-5.71-.16-6.044a3.353,3.353,0,0,0-2.422-2.189C44.186-512.145,23.187-512.137,22.54-511.977Zm22.431,1.455a2.393,2.393,0,0,1,1,1.04c.116.24.124,1.4.124,14.336v14.074l-12.307.022-12.314.015v-28.185l.175-.364a1.861,1.861,0,0,1,1.389-1.076c.08-.022,4.975-.029,10.874-.022C44.637-510.675,44.644-510.675,44.971-510.522Zm6.873,1.418a1.7,1.7,0,0,1,1.04,1.127,1.441,1.441,0,0,1-.233,1.251,1.364,1.364,0,0,1-1.36.647,1.455,1.455,0,0,1-1.455-1.549A1.542,1.542,0,0,1,51.844-509.1Zm.182,15.849v3.346h-4.51V-496.6h4.51ZM46.12-478.694c-.044,1.106-.116,1.338-.567,1.833-.589.64.436.589-11.783.589-8.961,0-10.852-.015-11.085-.1a2.034,2.034,0,0,1-1.033-.989,2.538,2.538,0,0,1-.175-1.331v-.96H46.157Z" transform="translate(-73.981 459.625)" fill="#dadada"/>
      <path id="Path_161" data-name="Path 161" d="M66.8-403.681a.6.6,0,0,0-.2.977l.174.149h8.489c5.964,0,8.527-.019,8.62-.068a.69.69,0,0,0,.255-.628.718.718,0,0,0-.187-.311l-.155-.143-8.433-.012C70.725-403.724,66.869-403.706,66.8-403.681Z" transform="translate(-115.117 375.271)" fill="#dadada"/>
      <path id="Path_162" data-name="Path 162" d="M66.418-356.9a.523.523,0,0,0-.236.322c-.05.155-.062,1.556-.05,4.489l.019,4.266.174.167.167.174,8.327.019c4.576.006,8.414,0,8.532-.019a.8.8,0,0,0,.353-.2l.149-.161v-4.378c0-4.055-.012-4.39-.112-4.508a.836.836,0,0,0-.242-.2c-.1-.05-2.462-.068-8.526-.068C67.707-356.994,66.56-356.981,66.418-356.9Zm4.973,4.675v3.6l-2.028-.012-2.034-.019-.019-3.5c-.006-1.928,0-3.54.019-3.584a8.6,8.6,0,0,1,2.046-.074H71.39Zm5.983,0v3.565l-2.369.019-2.375.012v-7.192l2.375.012,2.369.019Zm5.3,0v3.6H78.583v-7.192h4.092Z" transform="translate(-114.823 316.249)" fill="#dadada"/>
      <path id="Path_163" data-name="Path 163" d="M66.566-174.843a.59.59,0,0,0,0,.87l.177.183H84.65l.164-.15a.755.755,0,0,0,.2-.327.726.726,0,0,0-.268-.661c-.1-.052-2.793-.072-9.065-.072H66.749Z" transform="translate(-115.07 130.275)" fill="#dadada"/>
    </g>
  </g>
</svg>
