<svg xmlns="http://www.w3.org/2000/svg" xmlns:xlink="http://www.w3.org/1999/xlink" width="31" height="30.412" viewBox="0 0 31 30.412">
  <defs>
    <filter id="Icon_feather-star" x="0" y="0" width="31" height="30.412" filterUnits="userSpaceOnUse">
      <feOffset dy="3" input="SourceAlpha"/>
      <feGaussianBlur stdDeviation="3" result="blur"/>
      <feFlood flood-color="#f31184"/>
      <feComposite operator="in" in2="blur"/>
      <feComposite in="SourceGraphic"/>
    </filter>
  </defs>
  <g id="Group_79" data-name="Group 79" transform="translate(-152.937 -752.653)">
    <g transform="matrix(1, 0, 0, 1, 152.94, 752.65)" filter="url(#Icon_feather-star)">
      <path id="Icon_feather-star-2" data-name="Icon feather-star" d="M9,3l1.854,3.756L15,7.362l-3,2.922.708,4.128L9,12.462l-3.708,1.95L6,10.284,3,7.362l4.146-.606Z" transform="translate(6.5 3.5)" fill="none" stroke="#f9f9f9" stroke-linecap="round" stroke-linejoin="round" stroke-width="1"/>
    </g>
    <path id="Icon_awesome-star-half" data-name="Icon awesome-star-half" d="M7.031,0a.661.661,0,0,0-.6.372L5.067,3.138l-3.053.443a.669.669,0,0,0-.37,1.141L3.853,6.874,3.33,9.915a.669.669,0,0,0,.97.7L7.031,9.185Z" transform="translate(161.406 759.868)" fill="#f9f9f9"/>
  </g>
</svg>
