<svg xmlns="http://www.w3.org/2000/svg" width="37.29" height="37.255" viewBox="0 0 37.29 37.255">
  <g id="wifi" transform="translate(0.025 511.567)">
    <path id="Path_70" data-name="Path 70" d="M104.935-511.526a15.781,15.781,0,0,0-9.293,4.348,2.306,2.306,0,0,0-.845,1.813,2.043,2.043,0,0,0,.7,1.668,1.978,1.978,0,0,0,1.777.677,2.485,2.485,0,0,0,1.8-.9,11.185,11.185,0,0,1,5.353-2.738,12.846,12.846,0,0,1,4.224,0,11.156,11.156,0,0,1,5.36,2.746,2.559,2.559,0,0,0,1.886.9,2.057,2.057,0,0,0,1.682-.692,2.066,2.066,0,0,0,.7-1.668,2.353,2.353,0,0,0-.918-1.886,15.791,15.791,0,0,0-8.426-4.166A23.817,23.817,0,0,0,104.935-511.526Zm2.993,1.457a14.16,14.16,0,0,1,8.273,3.743c.583.546.714.823.6,1.238a.855.855,0,0,1-.867.626c-.342,0-.386-.022-.983-.568A11.887,11.887,0,0,0,112.035-507a11.6,11.6,0,0,0-2.986-1.056,12.231,12.231,0,0,0-8.084,1.085,12.238,12.238,0,0,0-2.84,1.944c-.6.546-.641.568-.983.568a.855.855,0,0,1-.867-.626c-.117-.415.015-.692.6-1.238A14.214,14.214,0,0,1,107.928-510.069Z" transform="translate(-87.917 0)" fill="#f5f5f5"/>
    <path id="Path_71" data-name="Path 71" d="M165.443-420.523a10.666,10.666,0,0,0-2.578.728,7.529,7.529,0,0,0-3.153,2.483,1.705,1.705,0,0,0-.211.976,2.154,2.154,0,0,0,.634,1.682,2.3,2.3,0,0,0,2.323.655c.393-.109.51-.182,1.355-.852a4.057,4.057,0,0,1,2.716-.969,4.16,4.16,0,0,1,2.913,1.129,2.309,2.309,0,0,0,1.784.757,2.085,2.085,0,0,0,1.7-.721,2.154,2.154,0,0,0,.634-1.682,1.705,1.705,0,0,0-.211-.976,4.9,4.9,0,0,0-1.486-1.522,9.115,9.115,0,0,0-3.6-1.573A11.448,11.448,0,0,0,165.443-420.523Zm2.2,1.493a7.408,7.408,0,0,1,3.219,1.282c.765.524,1.2,1.005,1.253,1.355a.906.906,0,0,1-1.231.961,7.208,7.208,0,0,1-.67-.517,6.655,6.655,0,0,0-2.338-1.194,6.988,6.988,0,0,0-2.695,0,6.654,6.654,0,0,0-2.338,1.194,7.209,7.209,0,0,1-.67.517.906.906,0,0,1-1.231-.961c.051-.35.488-.83,1.253-1.355A7.434,7.434,0,0,1,167.642-419.03Z" transform="translate(-147.907 -84.376)" fill="#f5f5f5"/>
    <path id="Path_72" data-name="Path 72" d="M225.392-328.884a2.359,2.359,0,0,0-1.493,2.112,2.232,2.232,0,0,0,1.42,2.25,2.288,2.288,0,0,0,2.272-.233,2.349,2.349,0,0,0,.757-2.949A2.357,2.357,0,0,0,225.392-328.884Zm1.274,1.406a.919.919,0,0,1-.036,1.609,1.243,1.243,0,0,1-.393.109.944.944,0,0,1-.888-.947A.894.894,0,0,1,226.666-327.479Z" transform="translate(-207.616 -169.234)" fill="#f5f5f5"/>
    <path id="Path_73" data-name="Path 73" d="M2.766-227.916a3.763,3.763,0,0,0-2.709,2.8c-.109.539-.109,10.268,0,10.807a3.76,3.76,0,0,0,2.818,2.818c.277.058,4.821.08,15.767.08,13.575,0,15.439-.015,15.818-.109a3.714,3.714,0,0,0,2.724-2.789c.109-.539.109-10.268,0-10.807a3.76,3.76,0,0,0-2.818-2.818c-.262-.058-2.316-.08-6.5-.08-6.642,0-6.416-.015-6.605.4a.915.915,0,0,0-.087.335.881.881,0,0,0,.342.619c.073.036,2.949.08,6.394.1,6.176.036,6.27.036,6.6.189a2.191,2.191,0,0,1,1.063,1.034l.2.415v10.414l-.2.415a2.191,2.191,0,0,1-1.063,1.034l-.335.153H3.072l-.335-.153a2.191,2.191,0,0,1-1.063-1.034l-.2-.415v-10.414l.2-.415a2.191,2.191,0,0,1,1.063-1.034c.328-.153.422-.153,6.6-.189,3.445-.022,6.321-.066,6.394-.1a.882.882,0,0,0,.342-.626.791.791,0,0,0-.4-.641C15.394-228.061,3.3-228.04,2.766-227.916Z" transform="translate(0 -262.898)" fill="#f5f5f5"/>
    <path id="Path_74" data-name="Path 74" d="M246.567-227.77a.73.73,0,0,0,.357,1.355.771.771,0,0,0,.728-.721A.733.733,0,0,0,246.567-227.77Z" transform="translate(-228.304 -263.044)" fill="#f5f5f5"/>
    <path id="Path_75" data-name="Path 75" d="M121.393-163.9a.7.7,0,0,0-.393.655c0,.146.262,1.566.583,3.168.561,2.8.59,2.92.8,3.132a.642.642,0,0,0,.575.218.74.74,0,0,0,.765-.473c.051-.1.32-.925.6-1.835a12.592,12.592,0,0,1,.546-1.6c.029.029.284.823.568,1.762.583,1.908.692,2.1,1.216,2.156a.791.791,0,0,0,.772-.335c.131-.189,1.3-5.768,1.3-6.227a.719.719,0,0,0-.83-.663c-.466.087-.524.233-.9,2.1-.182.954-.357,1.726-.379,1.726s-.262-.765-.546-1.7c-.43-1.435-.546-1.726-.736-1.93a.613.613,0,0,0-.83-.124c-.248.124-.284.218-.91,2.25-.255.837-.481,1.529-.488,1.544s-.167-.706-.342-1.595-.357-1.719-.408-1.842A.689.689,0,0,0,121.393-163.9Z" transform="translate(-112.211 -322.278)" fill="#f5f5f5"/>
    <path id="Path_76" data-name="Path 76" d="M251.74-163.789l-.24.211v6.438l.24.211a.82.82,0,0,0,.422.211.933.933,0,0,0,.685-.357c.1-.2.1-6.372,0-6.569a.933.933,0,0,0-.685-.357A.82.82,0,0,0,251.74-163.789Z" transform="translate(-233.207 -322.255)" fill="#f5f5f5"/>
    <path id="Path_77" data-name="Path 77" d="M295.422-163.92c-.415.226-.422.255-.422,3.525s0,3.306.437,3.532c.262.138.32.138.619,0,.357-.175.4-.35.4-1.675v-1.2h.859c.7,0,.881-.029,1.005-.131a.711.711,0,0,0,.058-1.114c-.175-.16-.255-.175-1.056-.2l-.867-.029v-1.369h1.908l.211-.211a.69.69,0,0,0-.189-1.143A9.846,9.846,0,0,0,295.422-163.92Z" transform="translate(-273.54 -322.219)" fill="#f5f5f5"/>
    <path id="Path_78" data-name="Path 78" d="M371.371-163.693c-.357.255-.371.393-.371,3.525,0,3.161.015,3.284.393,3.532a.737.737,0,0,0,.9-.146l.16-.189v-6.394l-.168-.189A.748.748,0,0,0,371.371-163.693Z" transform="translate(-344.005 -322.446)" fill="#f5f5f5"/>
  </g>
</svg>
